<svg id="Layer_1" data-name="Layer 1" xmlns="http://www.w3.org/2000/svg" xmlns:xlink="http://www.w3.org/1999/xlink" viewBox="0 0 1060.8 732.31"><defs><style>.cls-1,.cls-13{opacity:0.5;}.cls-1{fill:url(#linear-gradient);}.cls-2,.cls-20,.cls-21,.cls-22,.cls-4,.cls-5,.cls-6{opacity:0.53;}.cls-2{fill:url(#linear-gradient-2);}.cls-12,.cls-13,.cls-19,.cls-3{fill:#fff;}.cls-4{fill:url(#linear-gradient-3);}.cls-5{fill:url(#linear-gradient-4);}.cls-6{fill:url(#linear-gradient-5);}.cls-7{fill:url(#linear-gradient-6);}.cls-8{fill:url(#linear-gradient-7);}.cls-9{fill:url(#linear-gradient-8);}.cls-10{fill:url(#linear-gradient-9);}.cls-11{fill:url(#linear-gradient-10);}.cls-12{opacity:0.65;}.cls-14{opacity:0.42;}.cls-15{fill:url(#linear-gradient-11);}.cls-16{fill:url(#linear-gradient-12);}.cls-17{fill:url(#linear-gradient-13);}.cls-18{opacity:0.71;}.cls-19{opacity:0.47;}.cls-20{fill:url(#linear-gradient-14);}.cls-21{fill:url(#linear-gradient-15);}.cls-22{fill:url(#linear-gradient-16);}.cls-23{fill:url(#linear-gradient-17);}.cls-176,.cls-24{opacity:0.54;}.cls-24{fill:url(#linear-gradient-18);}.cls-25{fill:url(#linear-gradient-19);}.cls-26{fill:url(#linear-gradient-20);}.cls-27{fill:url(#linear-gradient-21);}.cls-28{fill:url(#linear-gradient-22);}.cls-29{fill:url(#linear-gradient-23);}.cls-30{fill:url(#linear-gradient-24);}.cls-31{fill:url(#linear-gradient-25);}.cls-32{fill:url(#linear-gradient-26);}.cls-33{fill:url(#linear-gradient-27);}.cls-34{fill:url(#linear-gradient-28);}.cls-35{fill:url(#linear-gradient-29);}.cls-36{fill:url(#linear-gradient-30);}.cls-37{fill:url(#linear-gradient-31);}.cls-38{fill:url(#linear-gradient-32);}.cls-39{fill:url(#linear-gradient-33);}.cls-40{fill:url(#linear-gradient-34);}.cls-41{fill:url(#linear-gradient-35);}.cls-42{fill:url(#linear-gradient-36);}.cls-43{fill:url(#linear-gradient-37);}.cls-44{fill:url(#linear-gradient-38);}.cls-45{fill:url(#linear-gradient-39);}.cls-46{fill:url(#linear-gradient-40);}.cls-47{fill:url(#linear-gradient-41);}.cls-48{fill:url(#linear-gradient-42);}.cls-49{fill:url(#linear-gradient-43);}.cls-50{fill:url(#linear-gradient-44);}.cls-51{fill:url(#linear-gradient-45);}.cls-52{fill:url(#linear-gradient-46);}.cls-53{fill:url(#linear-gradient-47);}.cls-54{fill:url(#linear-gradient-48);}.cls-55{fill:url(#linear-gradient-49);}.cls-56{fill:url(#linear-gradient-50);}.cls-57{fill:url(#linear-gradient-51);}.cls-58{fill:url(#linear-gradient-52);}.cls-59{fill:url(#linear-gradient-53);}.cls-60{fill:url(#linear-gradient-54);}.cls-61{fill:url(#linear-gradient-55);}.cls-62{fill:url(#linear-gradient-56);}.cls-63{fill:url(#linear-gradient-57);}.cls-64{fill:url(#linear-gradient-58);}.cls-65{fill:url(#linear-gradient-59);}.cls-66{fill:url(#linear-gradient-60);}.cls-67{fill:url(#linear-gradient-61);}.cls-68{fill:url(#linear-gradient-62);}.cls-69{fill:url(#linear-gradient-63);}.cls-70{fill:url(#linear-gradient-64);}.cls-71{fill:url(#linear-gradient-65);}.cls-72{fill:url(#linear-gradient-66);}.cls-73{fill:url(#linear-gradient-67);}.cls-74{fill:url(#linear-gradient-68);}.cls-75{fill:url(#linear-gradient-69);}.cls-76{fill:url(#linear-gradient-70);}.cls-77{fill:url(#linear-gradient-71);}.cls-78{fill:url(#linear-gradient-72);}.cls-79{fill:url(#linear-gradient-73);}.cls-80{fill:url(#linear-gradient-74);}.cls-81{fill:url(#linear-gradient-75);}.cls-82{fill:url(#linear-gradient-76);}.cls-83{fill:url(#linear-gradient-77);}.cls-84{fill:url(#linear-gradient-78);}.cls-85{fill:url(#linear-gradient-79);}.cls-86{fill:url(#linear-gradient-80);}.cls-87{fill:url(#linear-gradient-81);}.cls-88{fill:url(#linear-gradient-82);}.cls-89{fill:url(#linear-gradient-83);}.cls-90{fill:url(#linear-gradient-84);}.cls-91{fill:url(#linear-gradient-85);}.cls-92{fill:url(#linear-gradient-86);}.cls-93{fill:url(#linear-gradient-87);}.cls-94{fill:url(#linear-gradient-88);}.cls-95{fill:url(#linear-gradient-89);}.cls-96{fill:url(#linear-gradient-90);}.cls-97{fill:url(#linear-gradient-91);}.cls-98{fill:url(#linear-gradient-92);}.cls-99{fill:url(#linear-gradient-93);}.cls-100{fill:url(#linear-gradient-94);}.cls-101{fill:url(#linear-gradient-95);}.cls-102{fill:url(#linear-gradient-96);}.cls-103{fill:url(#linear-gradient-97);}.cls-104{fill:url(#linear-gradient-98);}.cls-105{fill:url(#linear-gradient-99);}.cls-106{fill:url(#linear-gradient-100);}.cls-107{fill:url(#linear-gradient-101);}.cls-108{fill:url(#linear-gradient-102);}.cls-109{fill:url(#linear-gradient-103);}.cls-110{fill:url(#linear-gradient-104);}.cls-111{fill:url(#linear-gradient-105);}.cls-112{fill:url(#linear-gradient-106);}.cls-113{fill:url(#linear-gradient-107);}.cls-114{fill:url(#linear-gradient-108);}.cls-115{fill:url(#linear-gradient-109);}.cls-116{fill:url(#linear-gradient-110);}.cls-117{fill:url(#linear-gradient-111);}.cls-118{fill:url(#linear-gradient-112);}.cls-119{fill:url(#linear-gradient-113);}.cls-120{fill:url(#linear-gradient-114);}.cls-121{fill:url(#linear-gradient-115);}.cls-122{fill:url(#linear-gradient-116);}.cls-123{fill:url(#linear-gradient-117);}.cls-124{fill:url(#linear-gradient-118);}.cls-125{fill:url(#linear-gradient-119);}.cls-126{fill:url(#linear-gradient-120);}.cls-127{fill:url(#linear-gradient-121);}.cls-128{opacity:0.55;}.cls-129{fill:url(#linear-gradient-122);}.cls-130{fill:url(#linear-gradient-123);}.cls-131{fill:url(#linear-gradient-124);}.cls-132{fill:url(#linear-gradient-125);}.cls-133{fill:url(#linear-gradient-126);}.cls-134{opacity:0.56;}.cls-135{fill:url(#linear-gradient-127);}.cls-136{fill:url(#linear-gradient-128);}.cls-137{fill:url(#linear-gradient-129);}.cls-138{fill:url(#linear-gradient-130);}.cls-139{fill:url(#linear-gradient-131);}.cls-140{fill:url(#linear-gradient-132);}.cls-141{fill:url(#linear-gradient-133);}.cls-142{fill:url(#linear-gradient-134);}.cls-143{fill:url(#linear-gradient-135);}.cls-144{fill:url(#linear-gradient-136);}.cls-145{fill:url(#linear-gradient-137);}.cls-146{fill:url(#linear-gradient-138);}.cls-147{fill:url(#linear-gradient-139);}.cls-148{fill:url(#linear-gradient-140);}.cls-149{fill:url(#linear-gradient-141);}.cls-150{fill:url(#linear-gradient-142);}.cls-151{fill:url(#linear-gradient-143);}.cls-152{fill:url(#linear-gradient-144);}.cls-153{fill:url(#linear-gradient-145);}.cls-154{fill:url(#linear-gradient-146);}.cls-155{fill:url(#linear-gradient-147);}.cls-156{fill:url(#linear-gradient-148);}.cls-157{fill:url(#linear-gradient-149);}.cls-158{fill:url(#linear-gradient-150);}.cls-159{fill:url(#linear-gradient-151);}.cls-160{fill:url(#linear-gradient-152);}.cls-161{fill:url(#linear-gradient-153);}.cls-162{fill:url(#linear-gradient-154);}.cls-163{fill:url(#linear-gradient-155);}.cls-164{opacity:0.67;}.cls-165{fill:url(#linear-gradient-156);}.cls-166{fill:url(#linear-gradient-157);}.cls-167{fill:url(#linear-gradient-158);}.cls-168{fill:url(#linear-gradient-159);}.cls-169{fill:url(#linear-gradient-160);}.cls-170{fill:url(#linear-gradient-161);}.cls-171{fill:url(#linear-gradient-162);}.cls-172{fill:url(#linear-gradient-163);}.cls-173{fill:url(#linear-gradient-164);}.cls-174{fill:url(#linear-gradient-165);}.cls-175{fill:url(#linear-gradient-166);}.cls-177{fill:url(#linear-gradient-167);}.cls-178{fill:url(#linear-gradient-168);}.cls-179{fill:url(#linear-gradient-169);}.cls-180{fill:url(#linear-gradient-170);}.cls-181{opacity:0.78;}</style><linearGradient id="linear-gradient" y1="337.37" x2="1018.75" y2="337.37" gradientUnits="userSpaceOnUse"><stop offset="0" stop-color="#b37cff"/><stop offset="1" stop-color="#f895e7"/></linearGradient><linearGradient id="linear-gradient-2" x1="109.32" y1="441.73" x2="275.35" y2="441.73" gradientUnits="userSpaceOnUse"><stop offset="0" stop-color="#a737d5"/><stop offset="1" stop-color="#ef497a"/></linearGradient><linearGradient id="linear-gradient-3" x1="31.26" y1="492.68" x2="241.7" y2="492.68" gradientUnits="userSpaceOnUse"><stop offset="0" stop-color="#fdf53f"/><stop offset="1" stop-color="#d93c65"/></linearGradient><linearGradient id="linear-gradient-4" x1="-3272.96" y1="294.69" x2="-3062.52" y2="294.69" gradientTransform="matrix(-1, 0, 0, 1, -2271.36, 0)" xlink:href="#linear-gradient-3"/><linearGradient id="linear-gradient-5" x1="-3194.9" y1="243.75" x2="-3028.87" y2="243.75" gradientTransform="matrix(-1, 0, 0, 1, -2271.36, 0)" xlink:href="#linear-gradient-2"/><linearGradient id="linear-gradient-6" x1="615.11" y1="489.04" x2="603.31" y2="773.71" gradientUnits="userSpaceOnUse"><stop offset="0" stop-color="#53d8ff"/><stop offset="1" stop-color="#3840f7"/></linearGradient><linearGradient id="linear-gradient-7" x1="382.79" y1="585.1" x2="272.16" y2="835.85" xlink:href="#linear-gradient-6"/><linearGradient id="linear-gradient-8" x1="208.14" y1="569.8" x2="376.29" y2="715.82" gradientUnits="userSpaceOnUse"><stop offset="0" stop-color="#fdf53f"/><stop offset="0.66" stop-color="#e57a58"/><stop offset="1" stop-color="#d93c65"/></linearGradient><linearGradient id="linear-gradient-9" x1="761.62" y1="461.18" x2="1060.8" y2="461.18" gradientUnits="userSpaceOnUse"><stop offset="0" stop-color="#2b3582"/><stop offset="1" stop-color="#150e42"/></linearGradient><linearGradient id="linear-gradient-10" x1="981.27" y1="354.1" x2="422.55" y2="1068.84" xlink:href="#linear-gradient-8"/><linearGradient id="linear-gradient-11" x1="546.87" y1="700.64" x2="538.25" y2="530" xlink:href="#linear-gradient-9"/><linearGradient id="linear-gradient-12" x1="195.88" y1="347.64" x2="858.77" y2="347.64" xlink:href="#linear-gradient-9"/><linearGradient id="linear-gradient-13" x1="267.33" y1="103.36" x2="967.62" y2="733.89" xlink:href="#linear-gradient-2"/><linearGradient id="linear-gradient-14" x1="-72.1" y1="2879.07" x2="-401.16" y2="3231.39" gradientTransform="translate(-2311.42 -636.43) rotate(-68.94)" xlink:href="#linear-gradient-3"/><linearGradient id="linear-gradient-15" x1="-1215.01" y1="3427.88" x2="-1423.05" y2="3650.64" gradientTransform="translate(-3268.14 17.7) rotate(-100.61)" xlink:href="#linear-gradient-2"/><linearGradient id="linear-gradient-16" x1="453.21" y1="1286" x2="124.16" y2="1638.33" gradientTransform="translate(-348.6 -431) rotate(-30.15)" xlink:href="#linear-gradient-3"/><linearGradient id="linear-gradient-17" x1="547.4" y1="636.25" x2="468.11" y2="810.33" xlink:href="#linear-gradient-9"/><linearGradient id="linear-gradient-18" x1="186.6" y1="-1421.98" x2="-45.76" y2="-1113.34" gradientTransform="translate(-372.98 117.18) rotate(99.02)" xlink:href="#linear-gradient-6"/><linearGradient id="linear-gradient-19" x1="1360.11" y1="-1074.12" x2="1513.11" y2="-1074.12" gradientTransform="matrix(0.66, 0.75, -0.75, 0.66, -799.69, 104.97)" xlink:href="#linear-gradient-9"/><linearGradient id="linear-gradient-20" x1="-270.54" y1="2436.4" x2="-133.24" y2="2317.58" gradientTransform="matrix(0.53, -0.85, 0.85, 0.53, -967.47, -853.58)" xlink:href="#linear-gradient-9"/><linearGradient id="linear-gradient-21" x1="500.92" y1="725.5" x2="499.61" y2="617.98" xlink:href="#linear-gradient-9"/><linearGradient id="linear-gradient-22" x1="501.31" y1="772.71" x2="500.65" y2="696" xlink:href="#linear-gradient-9"/><linearGradient id="linear-gradient-23" x1="187.98" y1="693.37" x2="816.18" y2="693.37" xlink:href="#linear-gradient-9"/><linearGradient id="linear-gradient-24" x1="779.11" y1="612.84" x2="779.66" y2="708.72" xlink:href="#linear-gradient-6"/><linearGradient id="linear-gradient-25" x1="743.94" y1="611.7" x2="744.49" y2="707.44" xlink:href="#linear-gradient-6"/><linearGradient id="linear-gradient-26" x1="735.32" y1="613.5" x2="735.87" y2="708.86" xlink:href="#linear-gradient-6"/><linearGradient id="linear-gradient-27" x1="654.32" y1="614.39" x2="654.86" y2="707.71" xlink:href="#linear-gradient-6"/><linearGradient id="linear-gradient-28" x1="697.44" y1="612.23" x2="697.99" y2="707.7" xlink:href="#linear-gradient-6"/><linearGradient id="linear-gradient-29" x1="566.04" y1="622.34" x2="566.53" y2="707.16" xlink:href="#linear-gradient-6"/><linearGradient id="linear-gradient-30" x1="608.08" y1="618.31" x2="608.6" y2="708.25" xlink:href="#linear-gradient-6"/><linearGradient id="linear-gradient-31" x1="649.13" y1="616.74" x2="649.66" y2="708.46" xlink:href="#linear-gradient-6"/><linearGradient id="linear-gradient-32" x1="690.56" y1="615.11" x2="691.1" y2="708.68" xlink:href="#linear-gradient-6"/><linearGradient id="linear-gradient-33" x1="567.56" y1="622.29" x2="568.06" y2="707.19" xlink:href="#linear-gradient-6"/><linearGradient id="linear-gradient-34" x1="226.13" y1="616.04" x2="226.67" y2="710.5" xlink:href="#linear-gradient-6"/><linearGradient id="linear-gradient-35" x1="278.7" y1="615.41" x2="279.25" y2="710.22" xlink:href="#linear-gradient-6"/><linearGradient id="linear-gradient-36" x1="523.67" y1="622.58" x2="524.16" y2="707.4" xlink:href="#linear-gradient-6"/><linearGradient id="linear-gradient-37" x1="789.91" y1="612.49" x2="790.46" y2="707.01" xlink:href="#linear-gradient-6"/><linearGradient id="linear-gradient-38" x1="423.38" y1="617.59" x2="423.91" y2="708.86" xlink:href="#linear-gradient-6"/><linearGradient id="linear-gradient-39" x1="475.25" y1="622.82" x2="475.74" y2="707.73" xlink:href="#linear-gradient-6"/><linearGradient id="linear-gradient-40" x1="523.3" y1="622.55" x2="523.79" y2="707.45" xlink:href="#linear-gradient-6"/><linearGradient id="linear-gradient-41" x1="375.46" y1="616.69" x2="376" y2="709.33" xlink:href="#linear-gradient-6"/><linearGradient id="linear-gradient-42" x1="611.51" y1="616.94" x2="612.04" y2="707.65" xlink:href="#linear-gradient-6"/><linearGradient id="linear-gradient-43" x1="327.45" y1="616.27" x2="327.99" y2="709.74" xlink:href="#linear-gradient-6"/><linearGradient id="linear-gradient-44" x1="569.25" y1="622.22" x2="569.75" y2="707.21" xlink:href="#linear-gradient-6"/><linearGradient id="linear-gradient-45" x1="522.87" y1="622.49" x2="523.36" y2="707.48" xlink:href="#linear-gradient-6"/><linearGradient id="linear-gradient-46" x1="615.11" y1="615.17" x2="615.64" y2="706.73" xlink:href="#linear-gradient-6"/><linearGradient id="linear-gradient-47" x1="477.56" y1="622.84" x2="478.05" y2="707.67" xlink:href="#linear-gradient-6"/><linearGradient id="linear-gradient-48" x1="704.68" y1="614.3" x2="705.21" y2="706.2" xlink:href="#linear-gradient-6"/><linearGradient id="linear-gradient-49" x1="752.93" y1="611.28" x2="753.48" y2="705.84" xlink:href="#linear-gradient-6"/><linearGradient id="linear-gradient-50" x1="798.38" y1="610.84" x2="798.93" y2="705.57" xlink:href="#linear-gradient-6"/><linearGradient id="linear-gradient-51" x1="659.73" y1="612.13" x2="660.27" y2="706.39" xlink:href="#linear-gradient-6"/><linearGradient id="linear-gradient-52" x1="382.17" y1="619.14" x2="382.7" y2="709.8" xlink:href="#linear-gradient-6"/><linearGradient id="linear-gradient-53" x1="336.41" y1="620.78" x2="336.93" y2="709.56" xlink:href="#linear-gradient-6"/><linearGradient id="linear-gradient-54" x1="290.08" y1="619.88" x2="290.6" y2="710.28" xlink:href="#linear-gradient-6"/><linearGradient id="linear-gradient-55" x1="433.64" y1="622.29" x2="434.14" y2="708.06" xlink:href="#linear-gradient-6"/><linearGradient id="linear-gradient-56" x1="427.96" y1="621.04" x2="428.46" y2="708.72" xlink:href="#linear-gradient-6"/><linearGradient id="linear-gradient-57" x1="241.56" y1="620.12" x2="242.09" y2="710.59" xlink:href="#linear-gradient-6"/><linearGradient id="linear-gradient-58" x1="318.18" y1="618.47" x2="318.7" y2="708.5" xlink:href="#linear-gradient-6"/><linearGradient id="linear-gradient-59" x1="267.03" y1="623.96" x2="267.53" y2="708.96" xlink:href="#linear-gradient-6"/><linearGradient id="linear-gradient-60" x1="214.45" y1="617.32" x2="214.98" y2="709.05" xlink:href="#linear-gradient-6"/><linearGradient id="linear-gradient-61" x1="778.48" y1="619.54" x2="781.43" y2="825.07" xlink:href="#linear-gradient-6"/><linearGradient id="linear-gradient-62" x1="743.4" y1="620.04" x2="746.35" y2="825.57" xlink:href="#linear-gradient-6"/><linearGradient id="linear-gradient-63" x1="734.85" y1="620.16" x2="737.8" y2="825.69" xlink:href="#linear-gradient-6"/><linearGradient id="linear-gradient-64" x1="653.76" y1="621.33" x2="656.71" y2="826.86" xlink:href="#linear-gradient-6"/><linearGradient id="linear-gradient-65" x1="696.94" y1="620.71" x2="699.89" y2="826.24" xlink:href="#linear-gradient-6"/><linearGradient id="linear-gradient-66" x1="565.53" y1="622.6" x2="568.48" y2="828.12" xlink:href="#linear-gradient-6"/><linearGradient id="linear-gradient-67" x1="607.6" y1="621.99" x2="610.55" y2="827.52" xlink:href="#linear-gradient-6"/><linearGradient id="linear-gradient-68" x1="648.67" y1="621.4" x2="651.62" y2="826.93" xlink:href="#linear-gradient-6"/><linearGradient id="linear-gradient-69" x1="690.14" y1="620.81" x2="693.09" y2="826.33" xlink:href="#linear-gradient-6"/><linearGradient id="linear-gradient-70" x1="566.96" y1="622.58" x2="569.91" y2="828.1" xlink:href="#linear-gradient-6"/><linearGradient id="linear-gradient-71" x1="225.6" y1="627.47" x2="228.55" y2="833" xlink:href="#linear-gradient-6"/><linearGradient id="linear-gradient-72" x1="278.17" y1="626.72" x2="281.12" y2="832.25" xlink:href="#linear-gradient-6"/><linearGradient id="linear-gradient-73" x1="523.17" y1="623.2" x2="526.12" y2="828.73" xlink:href="#linear-gradient-6"/><linearGradient id="linear-gradient-74" x1="789.31" y1="619.38" x2="792.26" y2="824.91" xlink:href="#linear-gradient-6"/><linearGradient id="linear-gradient-75" x1="422.88" y1="624.64" x2="425.83" y2="830.17" xlink:href="#linear-gradient-6"/><linearGradient id="linear-gradient-76" x1="474.7" y1="623.9" x2="477.65" y2="829.43" xlink:href="#linear-gradient-6"/><linearGradient id="linear-gradient-77" x1="522.7" y1="623.21" x2="525.65" y2="828.74" xlink:href="#linear-gradient-6"/><linearGradient id="linear-gradient-78" x1="374.93" y1="625.33" x2="377.88" y2="830.86" xlink:href="#linear-gradient-6"/><linearGradient id="linear-gradient-79" x1="610.94" y1="621.94" x2="613.89" y2="827.47" xlink:href="#linear-gradient-6"/><linearGradient id="linear-gradient-80" x1="326.91" y1="626.02" x2="329.86" y2="831.55" xlink:href="#linear-gradient-6"/><linearGradient id="linear-gradient-81" x1="568.54" y1="622.55" x2="571.49" y2="828.08" xlink:href="#linear-gradient-6"/><linearGradient id="linear-gradient-82" x1="614.43" y1="621.89" x2="617.38" y2="827.42" xlink:href="#linear-gradient-6"/><linearGradient id="linear-gradient-83" x1="477.12" y1="623.86" x2="480.07" y2="829.39" xlink:href="#linear-gradient-6"/><linearGradient id="linear-gradient-84" x1="704.01" y1="620.61" x2="706.96" y2="826.14" xlink:href="#linear-gradient-6"/><linearGradient id="linear-gradient-85" x1="752.28" y1="619.91" x2="755.23" y2="825.44" xlink:href="#linear-gradient-6"/><linearGradient id="linear-gradient-86" x1="797.77" y1="619.26" x2="800.72" y2="824.79" xlink:href="#linear-gradient-6"/><linearGradient id="linear-gradient-87" x1="417.94" y1="624.71" x2="420.89" y2="830.24" xlink:href="#linear-gradient-6"/><linearGradient id="linear-gradient-88" x1="659.06" y1="621.25" x2="662.01" y2="826.78" xlink:href="#linear-gradient-6"/><linearGradient id="linear-gradient-89" x1="381.78" y1="625.23" x2="384.73" y2="830.76" xlink:href="#linear-gradient-6"/><linearGradient id="linear-gradient-90" x1="335.98" y1="625.89" x2="338.93" y2="831.42" xlink:href="#linear-gradient-6"/><linearGradient id="linear-gradient-91" x1="289.66" y1="626.56" x2="292.61" y2="832.08" xlink:href="#linear-gradient-6"/><linearGradient id="linear-gradient-92" x1="443.55" y1="612.92" x2="446.95" y2="850.06" xlink:href="#linear-gradient-6"/><linearGradient id="linear-gradient-93" x1="427.53" y1="624.58" x2="430.48" y2="830.1" xlink:href="#linear-gradient-6"/><linearGradient id="linear-gradient-94" x1="241.19" y1="627.25" x2="244.14" y2="832.78" xlink:href="#linear-gradient-6"/><linearGradient id="linear-gradient-95" x1="317.5" y1="626.16" x2="320.45" y2="831.68" xlink:href="#linear-gradient-6"/><linearGradient id="linear-gradient-96" x1="266.38" y1="626.89" x2="269.33" y2="832.42" xlink:href="#linear-gradient-6"/><linearGradient id="linear-gradient-97" x1="213.84" y1="627.64" x2="216.79" y2="833.17" xlink:href="#linear-gradient-6"/><linearGradient id="linear-gradient-98" x1="-3325.51" y1="499.79" x2="-3298.89" y2="499.79" gradientTransform="matrix(-1, 0, 0, 1, -2567.07, 0)" xlink:href="#linear-gradient-6"/><linearGradient id="linear-gradient-99" x1="-3325.51" y1="494.57" x2="-3299.64" y2="494.57" gradientTransform="matrix(-1, 0, 0, 1, -2567.07, 0)" xlink:href="#linear-gradient-9"/><linearGradient id="linear-gradient-100" x1="-3323.05" y1="487.29" x2="-3315.55" y2="487.29" gradientTransform="matrix(-1, 0, 0, 1, -2567.07, 0)" gradientUnits="userSpaceOnUse"><stop offset="0" stop-color="#f9b776"/><stop offset="1" stop-color="#f47960"/></linearGradient><linearGradient id="linear-gradient-101" x1="-3378.57" y1="499.21" x2="-3368.37" y2="499.21" gradientTransform="matrix(-1, 0, 0, 1, -2567.07, 0)" xlink:href="#linear-gradient-6"/><linearGradient id="linear-gradient-102" x1="-3378.49" y1="491.36" x2="-3363.52" y2="491.36" gradientTransform="matrix(-1, 0, 0, 1, -2567.07, 0)" xlink:href="#linear-gradient-9"/><linearGradient id="linear-gradient-103" x1="-3370.71" y1="481.04" x2="-3361.75" y2="481.04" xlink:href="#linear-gradient-100"/><linearGradient id="linear-gradient-104" x1="-3301.43" y1="398.49" x2="-3400.61" y2="543.02" gradientTransform="matrix(-1, 0, 0, 1, -2567.07, 0)" gradientUnits="userSpaceOnUse"><stop offset="0" stop-color="#18459f"/><stop offset="0.11" stop-color="#2874b5"/></linearGradient><linearGradient id="linear-gradient-105" x1="-3258.04" y1="294.01" x2="-3463.43" y2="472.65" gradientTransform="matrix(-1, 0, 0, 1, -2567.07, 0)" xlink:href="#linear-gradient-3"/><linearGradient id="linear-gradient-106" x1="-3340.52" y1="447.86" x2="-3336.22" y2="439.27" gradientTransform="matrix(-1, 0, 0, 1, -2567.07, 0)" xlink:href="#linear-gradient-6"/><linearGradient id="linear-gradient-107" x1="-3329.66" y1="350.44" x2="-3361.56" y2="378.69" xlink:href="#linear-gradient-100"/><linearGradient id="linear-gradient-108" x1="-3275.16" y1="275.08" x2="-3479.63" y2="452.91" gradientTransform="matrix(-1, 0, 0, 1, -2567.07, 0)" xlink:href="#linear-gradient-3"/><linearGradient id="linear-gradient-109" x1="-3243.02" y1="312.03" x2="-3447.49" y2="489.87" gradientTransform="matrix(-1, 0, 0, 1, -2567.07, 0)" xlink:href="#linear-gradient-3"/><linearGradient id="linear-gradient-110" x1="-3269.87" y1="353.11" x2="-3244.76" y2="353.11" xlink:href="#linear-gradient-100"/><linearGradient id="linear-gradient-111" x1="-3294.29" y1="285.99" x2="-3294.56" y2="332.9" xlink:href="#linear-gradient-100"/><linearGradient id="linear-gradient-112" x1="-3585.81" y1="1466.86" x2="-3608.9" y2="1497.4" gradientTransform="matrix(-0.99, -0.14, -0.14, 0.99, -2627.41, -1685.52)" xlink:href="#linear-gradient-100"/><linearGradient id="linear-gradient-113" x1="-3603.44" y1="1474.22" x2="-3575.86" y2="1474.22" gradientTransform="matrix(-0.99, -0.14, -0.14, 0.99, -2627.41, -1685.52)" xlink:href="#linear-gradient-9"/><linearGradient id="linear-gradient-114" x1="-3619.62" y1="1491.05" x2="-3601.1" y2="1472.04" gradientTransform="matrix(-0.99, -0.14, -0.14, 0.99, -2627.41, -1685.52)" xlink:href="#linear-gradient-100"/><linearGradient id="linear-gradient-115" x1="-3247.42" y1="350.16" x2="-3238.43" y2="350.16" xlink:href="#linear-gradient-100"/><linearGradient id="linear-gradient-116" x1="-3147.19" y1="280.35" x2="-3526.57" y2="557.11" gradientTransform="matrix(-1, 0, 0, 1, -2567.07, 0)" xlink:href="#linear-gradient-9"/><linearGradient id="linear-gradient-117" x1="-3133.88" y1="341.95" x2="-3083.91" y2="298.51" gradientTransform="matrix(-1, 0, 0, 1, -2567.07, 0)" xlink:href="#linear-gradient-9"/><linearGradient id="linear-gradient-118" x1="-3090.19" y1="278.19" x2="-3275.22" y2="468.34" gradientTransform="matrix(-1, 0, 0, 1, -2567.07, 0)" xlink:href="#linear-gradient-3"/><linearGradient id="linear-gradient-119" x1="-3203.03" y1="283.74" x2="-3370.01" y2="455.35" gradientTransform="matrix(-1, 0, 0, 1, -2567.07, 0)" xlink:href="#linear-gradient-2"/><linearGradient id="linear-gradient-120" x1="-3198.71" y1="298.82" x2="-3365.69" y2="470.43" gradientTransform="matrix(-1, 0, 0, 1, -2567.07, 0)" xlink:href="#linear-gradient-2"/><linearGradient id="linear-gradient-121" x1="-3317.07" y1="364.67" x2="-3348.96" y2="392.91" xlink:href="#linear-gradient-100"/><linearGradient id="linear-gradient-122" x1="255.4" y1="66.71" x2="263.75" y2="289.1" xlink:href="#linear-gradient-6"/><linearGradient id="linear-gradient-123" x1="254.67" y1="66.73" x2="263.02" y2="289.12" xlink:href="#linear-gradient-6"/><linearGradient id="linear-gradient-124" x1="256.72" y1="66.66" x2="265.07" y2="289.05" xlink:href="#linear-gradient-6"/><linearGradient id="linear-gradient-125" x1="256.12" y1="66.68" x2="264.47" y2="289.07" xlink:href="#linear-gradient-6"/><linearGradient id="linear-gradient-126" x1="253.94" y1="66.76" x2="262.29" y2="289.15" xlink:href="#linear-gradient-6"/><linearGradient id="linear-gradient-127" x1="413.6" y1="839.99" x2="421.95" y2="1062.39" gradientTransform="translate(-505.96 -545.45) rotate(-21.12)" gradientUnits="userSpaceOnUse"><stop offset="0" stop-color="#cb236d"/><stop offset="1" stop-color="#4c246d"/></linearGradient><linearGradient id="linear-gradient-128" x1="412.87" y1="840.02" x2="421.22" y2="1062.41" xlink:href="#linear-gradient-127"/><linearGradient id="linear-gradient-129" x1="414.92" y1="839.94" x2="423.27" y2="1062.34" xlink:href="#linear-gradient-127"/><linearGradient id="linear-gradient-130" x1="414.33" y1="839.97" x2="422.68" y2="1062.36" xlink:href="#linear-gradient-127"/><linearGradient id="linear-gradient-131" x1="412.15" y1="840.05" x2="420.5" y2="1062.44" xlink:href="#linear-gradient-127"/><linearGradient id="linear-gradient-132" x1="159.64" y1="1893.37" x2="167.99" y2="2115.76" gradientTransform="translate(-1453.26 -927.18) rotate(-50.28)" xlink:href="#linear-gradient-3"/><linearGradient id="linear-gradient-133" x1="158.92" y1="1893.4" x2="167.27" y2="2115.79" gradientTransform="translate(-1453.26 -927.18) rotate(-50.28)" xlink:href="#linear-gradient-3"/><linearGradient id="linear-gradient-134" x1="160.96" y1="1893.32" x2="169.31" y2="2115.7" gradientTransform="translate(-1453.26 -927.18) rotate(-50.28)" xlink:href="#linear-gradient-3"/><linearGradient id="linear-gradient-135" x1="160.37" y1="1893.34" x2="168.72" y2="2115.73" gradientTransform="translate(-1453.26 -927.18) rotate(-50.28)" xlink:href="#linear-gradient-3"/><linearGradient id="linear-gradient-136" x1="158.19" y1="1893.43" x2="166.54" y2="2115.81" gradientTransform="translate(-1453.26 -927.18) rotate(-50.28)" xlink:href="#linear-gradient-3"/><linearGradient id="linear-gradient-137" x1="268.22" y1="287.52" x2="74.1" y2="588.14" xlink:href="#linear-gradient-3"/><linearGradient id="linear-gradient-138" x1="131.4" y1="662.37" x2="162.22" y2="662.37" xlink:href="#linear-gradient-9"/><linearGradient id="linear-gradient-139" x1="131.4" y1="667.91" x2="162.22" y2="667.91" xlink:href="#linear-gradient-6"/><linearGradient id="linear-gradient-140" x1="77.26" y1="662.45" x2="91.69" y2="662.45" xlink:href="#linear-gradient-9"/><linearGradient id="linear-gradient-141" x1="77.26" y1="669" x2="91.26" y2="669" xlink:href="#linear-gradient-6"/><linearGradient id="linear-gradient-142" x1="83.36" y1="652.5" x2="92.73" y2="652.5" gradientTransform="matrix(1, 0, 0, 1, 0, 0)" xlink:href="#linear-gradient-100"/><linearGradient id="linear-gradient-143" x1="132.97" y1="651.88" x2="140.77" y2="651.88" gradientTransform="matrix(1, 0, 0, 1, 0, 0)" xlink:href="#linear-gradient-100"/><linearGradient id="linear-gradient-144" x1="189.6" y1="531.49" x2="38.81" y2="687.06" gradientTransform="matrix(1, 0, 0, 1, 0, 0)" xlink:href="#linear-gradient-127"/><linearGradient id="linear-gradient-145" x1="152.37" y1="531.91" x2="120.43" y2="573.2" gradientTransform="matrix(1, 0, 0, 1, 0, 0)" xlink:href="#linear-gradient-127"/><linearGradient id="linear-gradient-146" x1="176.33" y1="448.6" x2="14.85" y2="695.11" xlink:href="#linear-gradient-6"/><linearGradient id="linear-gradient-147" x1="242.15" y1="403.46" x2="203.21" y2="464.6" gradientTransform="matrix(1, 0, 0, 1, 0, 0)" xlink:href="#linear-gradient-100"/><linearGradient id="linear-gradient-148" x1="156.64" y1="456.29" x2="160.29" y2="433.78" gradientTransform="matrix(1, 0, 0, 1, 0, 0)" xlink:href="#linear-gradient-100"/><linearGradient id="linear-gradient-149" x1="202.43" y1="404.59" x2="8.58" y2="695.37" gradientUnits="userSpaceOnUse"><stop offset="0" stop-color="#9cfffb"/><stop offset="1" stop-color="#9bfffa"/></linearGradient><linearGradient id="linear-gradient-150" x1="149.81" y1="431.23" x2="-11.67" y2="677.74" xlink:href="#linear-gradient-6"/><linearGradient id="linear-gradient-151" x1="97.46" y1="520.85" x2="120.14" y2="520.85" gradientTransform="matrix(1, 0, 0, 1, 0, 0)" xlink:href="#linear-gradient-100"/><linearGradient id="linear-gradient-152" x1="168.68" y1="419.4" x2="143.81" y2="438.43" gradientTransform="matrix(1, 0, 0, 1, 0, 0)" xlink:href="#linear-gradient-100"/><linearGradient id="linear-gradient-153" x1="151.21" y1="404.38" x2="173.73" y2="433.37" xlink:href="#linear-gradient-9"/><linearGradient id="linear-gradient-154" x1="165.6" y1="415.37" x2="140.73" y2="434.4" gradientTransform="matrix(1, 0, 0, 1, 0, 0)" xlink:href="#linear-gradient-100"/><linearGradient id="linear-gradient-155" x1="230.87" y1="396.28" x2="191.94" y2="457.42" gradientTransform="matrix(1, 0, 0, 1, 0, 0)" xlink:href="#linear-gradient-100"/><linearGradient id="linear-gradient-156" x1="704.8" y1="112.29" x2="691.03" y2="157.86" xlink:href="#linear-gradient-8"/><linearGradient id="linear-gradient-157" x1="703.85" y1="139.29" x2="602.56" y2="288.76" xlink:href="#linear-gradient-8"/><linearGradient id="linear-gradient-158" x1="740.4" y1="130.43" x2="721.39" y2="160.26" xlink:href="#linear-gradient-8"/><linearGradient id="linear-gradient-159" x1="813.07" y1="124.72" x2="816.68" y2="160.45" xlink:href="#linear-gradient-6"/><linearGradient id="linear-gradient-160" x1="791.27" y1="179.15" x2="704.41" y2="232.58" xlink:href="#linear-gradient-6"/><linearGradient id="linear-gradient-161" x1="819.65" y1="181.77" x2="844.89" y2="222.74" xlink:href="#linear-gradient-6"/><linearGradient id="linear-gradient-162" x1="835.77" y1="165.3" x2="897.4" y2="171.2" xlink:href="#linear-gradient-6"/><linearGradient id="linear-gradient-163" x1="931.26" y1="94.22" x2="934.86" y2="178.47" gradientTransform="matrix(1, 0, 0, 1, 0, 0)" xlink:href="#linear-gradient-127"/><linearGradient id="linear-gradient-164" x1="1009.22" y1="115.75" x2="968.24" y2="151.15" gradientTransform="matrix(1, 0, 0, 1, 0, 0)" xlink:href="#linear-gradient-127"/><linearGradient id="linear-gradient-165" x1="884.42" y1="173.5" x2="1103.06" y2="169.24" gradientTransform="matrix(1, 0, 0, 1, 0, 0)" xlink:href="#linear-gradient-127"/><linearGradient id="linear-gradient-166" x1="982.53" y1="177.09" x2="906.15" y2="216.42" gradientTransform="matrix(1, 0, 0, 1, 0, 0)" xlink:href="#linear-gradient-127"/><linearGradient id="linear-gradient-167" x1="778.39" y1="-63.49" x2="536.49" y2="106.14" xlink:href="#linear-gradient-6"/><linearGradient id="linear-gradient-168" x1="821.79" y1="-1.59" x2="579.89" y2="168.04" xlink:href="#linear-gradient-6"/><linearGradient id="linear-gradient-169" x1="786.36" y1="-52.12" x2="544.46" y2="117.5" xlink:href="#linear-gradient-6"/><linearGradient id="linear-gradient-170" x1="823.3" y1="0.57" x2="581.4" y2="170.19" xlink:href="#linear-gradient-6"/></defs><title>website-development-for-associations</title><path class="cls-1" d="M207.69,30.58C149.28,69.7,108,39.49,72.69,80.92-37.45,210.18,102.12,259.17,37.29,279c-70.41,21.53-26.61,116.54,13,144s69.08,44,12.79,72S-3,554.14,20.57,604.64s68.32,66.43,254.14,69.42S820.4,670.71,918.57,642,945.17,539.28,986.44,484s49.4-87.67-13.81-141.25-27.2-109-8.23-148.14S998,84.61,921.8,64.38s-164.74,60.49-203,19.48S697.3-11.54,613.63,2.16,501.83,121.83,428.87,116,331.51-52.35,207.69,30.58Z"/><path class="cls-2" d="M265.44,649.42s66.14-200.2-143.34-415.37C122.1,234.05,46,500.21,265.44,649.42Z"/><path class="cls-3" d="M251.65,602.29a1,1,0,0,1-.86-.5c-71.38-123.91-116.6-315.49-117-317.41a1,1,0,0,1,1.95-.45c.45,1.92,45.6,193.21,116.83,316.87a1,1,0,0,1-.87,1.49Z"/><path class="cls-4" d="M33.57,343.14S-5.94,622.86,241.7,642.21C241.7,642.21,240.07,441.74,33.57,343.14Z"/><path class="cls-3" d="M192.33,599.67a1,1,0,0,1-.71-.3c-55-55.64-91.39-114.54-112.28-154.14C56.7,402.3,46.92,372.12,46.83,371.82a1,1,0,1,1,1.9-.61c.1.3,9.83,30.35,32.4,73.13C102,483.81,138.28,542.51,193.05,598a1,1,0,0,1,0,1.41A1,1,0,0,1,192.33,599.67Z"/><path class="cls-5" d="M999.29,145.16s39.51,279.72-208.13,299.07C791.16,444.23,792.79,243.76,999.29,145.16Z"/><path class="cls-6" d="M767.42,451.44S701.28,251.24,910.76,36.06C910.76,36.06,986.9,302.23,767.42,451.44Z"/><path class="cls-7" d="M794.12,592.26C621.48,560.82,496.24,566.06,416.51,578c5.31,15,10.62,38.58,4.82,64.23,163.93,19.77,302-5.46,373.72-23.66C809.07,615,808.34,594.85,794.12,592.26Z"/><path class="cls-8" d="M416.51,578c-71.14,10.64-106,26.6-106,26.6l.77,17.84a960,960,0,0,0,110.1,19.79C427.13,616.56,421.82,593,416.51,578Z"/><path class="cls-9" d="M170.28,609.24s49.58,42.56,95.16,40.18,50.22-23.54,48.88-42.53-18.5-45.78-50.94-38.68C218.55,578,200,609.59,170.28,609.24Z"/><path class="cls-3" d="M261.55,640.88c-9.53,0-20.07-1.81-31.49-5.46a191.29,191.29,0,0,1-42.29-20,1,1,0,1,1,1.1-1.66,190.26,190.26,0,0,0,41.83,19.74c21,6.69,50,10.42,68.69-9.76a1,1,0,1,1,1.46,1.36C291.15,635.6,277.82,640.88,261.55,640.88Z"/><path class="cls-3" d="M323.3,605.79a1,1,0,0,1-.32-1.95c.47-.16,48.28-16.53,88.75-19.59a1,1,0,0,1,.15,2c-40.21,3-87.78,19.33-88.25,19.49A1,1,0,0,1,323.3,605.79Z"/><path class="cls-10" d="M766.51,282.11c-1.58,63.54-6.68,282.71-4.25,360.37a15.6,15.6,0,0,0,15.09,15.1c40.69,1.34,189.88,4.71,256.44,1.92A26.26,26.26,0,0,0,1059,633.81c1.38-66.69,4.43-254.27-2.82-340.2a21.43,21.43,0,0,0-19.23-19.52c-44.32-4.44-194.15-15.27-251.66-11.54A20.08,20.08,0,0,0,766.51,282.11Z"/><path class="cls-11" d="M784.67,301.6c-2.19,51.29-9.1,221.9-6.91,285a17.86,17.86,0,0,0,16.8,17.22c37.93,2.22,167.32,7.11,223,2.66a20.07,20.07,0,0,0,18.41-18.94c2.82-52.32,10.92-211.19,8.81-273.57a19.72,19.72,0,0,0-18-19c-41-3.68-178.52-12.45-225.79-9.87A17.24,17.24,0,0,0,784.67,301.6Z"/><path class="cls-12" d="M887.92,651.66A17.69,17.69,0,1,1,905.6,634,17.71,17.71,0,0,1,887.92,651.66Zm0-33.37A15.69,15.69,0,1,0,903.6,634,15.71,15.71,0,0,0,887.92,618.29Z"/><path class="cls-13" d="M867.08,273.65h0a3.66,3.66,0,0,0,3.47,3.66c9.61.5,36.69,1.93,48.79,2.63a3.66,3.66,0,0,0,3.8-4.35l-.07-.4a3.67,3.67,0,0,0-3.26-3c-8.18-.75-32.87-2.83-49.22-2.24A3.66,3.66,0,0,0,867.08,273.65Z"/><g class="cls-14"><polygon class="cls-3" points="875.67 455.93 950.39 458.42 945.17 404.8 875.67 403.22 875.67 455.93"/><polygon class="cls-3" points="959.31 458.72 1017.65 460.66 1018.1 406.46 954.08 405 959.31 458.72"/><path class="cls-3" d="M1018.18,397.61l.47-56.8a12.93,12.93,0,0,0-12.12-13L828.69,316.69A12.93,12.93,0,0,0,815,329l-2.85,63.91Z"/><polygon class="cls-3" points="866.82 403.02 811.72 401.76 809.4 453.73 866.82 455.64 866.82 403.02"/><path class="cls-3" d="M809,462.57l-4.79,107a12.93,12.93,0,0,0,12.59,13.5l186.65,4.74A12.93,12.93,0,0,0,1016.71,575l.87-105.52Z"/></g><polygon class="cls-15" points="474.85 506.92 460.53 635.29 626.6 635.29 604.97 506.92 474.85 506.92"/><path class="cls-16" d="M195.88,190.63v294a44.61,44.61,0,0,0,43.46,44.59c107.38,2.77,483,9.48,585.19,8a32.81,32.81,0,0,0,32.31-31.88c2-68.3,5.17-232.54-6.67-308.8a33.78,33.78,0,0,0-32.3-28.58c-90-2.88-488.12-12-590.29-9.72A32.42,32.42,0,0,0,195.88,190.63Z"/><path class="cls-17" d="M214.33,189.2V468.53a25.85,25.85,0,0,0,25.46,25.84l570,7a25.15,25.15,0,0,0,25.53-25.05l.95-276.84a18.38,18.38,0,0,0-17.94-18.45L234.75,169.28A19.93,19.93,0,0,0,214.33,189.2Z"/><path class="cls-12" d="M839.64,513.07h0L214.31,502.41a1,1,0,0,1-1-1,1,1,0,0,1,1-1h0l625.31,10.66a1,1,0,0,1,0,2Z"/><path class="cls-12" d="M533.15,526.08a7.51,7.51,0,1,1,7.51-7.51A7.52,7.52,0,0,1,533.15,526.08Zm0-13a5.51,5.51,0,1,0,5.51,5.5A5.51,5.51,0,0,0,533.15,513.07Z"/><g class="cls-18"><path class="cls-19" d="M398.16,471h-130a11.6,11.6,0,0,1-11.6-11.61V289.86a11.6,11.6,0,0,1,11.6-11.6H407.69a11.6,11.6,0,0,1,11.59,12.25l-9.53,169.58A11.61,11.61,0,0,1,398.16,471Z"/><path class="cls-3" d="M388.28,463.2h-10a2,2,0,0,1,0-4h10a2,2,0,0,1,0,4Zm-20,0h-10a2,2,0,0,1,0-4h10a2,2,0,0,1,0,4Zm-20,0h-10a2,2,0,0,1,0-4h10a2,2,0,0,1,0,4Zm-20,0h-10a2,2,0,0,1,0-4h10a2,2,0,0,1,0,4Zm-20,0h-10a2,2,0,0,1,0-4h10a2,2,0,0,1,0,4Zm-20,0h-10a2,2,0,0,1,0-4h10a2,2,0,0,1,0,4Zm-20,0h-.17a3.77,3.77,0,0,1-3.77-3.77v-7.21a2,2,0,0,1,4,0v7a2,2,0,0,1-.06,4Zm130,0a2,2,0,0,1-.34-4l.41-7.24a2,2,0,1,1,4,.23l-.41,7.43a3.79,3.79,0,0,1-3.52,3.55Zm-131.94-19a2,2,0,0,1-2-2v-10a2,2,0,0,1,4,0v10A2,2,0,0,1,266.34,444.22Zm134.57-.1h-.12a2,2,0,0,1-1.88-2.11l.56-10a2,2,0,0,1,2.11-1.89,2,2,0,0,1,1.88,2.11l-.56,10A2,2,0,0,1,400.91,444.12Zm-134.57-19.9a2,2,0,0,1-2-2v-10a2,2,0,0,1,4,0v10A2,2,0,0,1,266.34,424.22ZM402,424.15h-.11A2,2,0,0,1,400,422l.56-10a2,2,0,1,1,4,.22l-.56,10A2,2,0,0,1,402,424.15ZM266.34,404.22a2,2,0,0,1-2-2v-10a2,2,0,0,1,4,0v10A2,2,0,0,1,266.34,404.22Zm136.81,0H403a2,2,0,0,1-1.89-2.11l.57-10a2,2,0,1,1,4,.22l-.56,10A2,2,0,0,1,403.15,404.19Zm1.13-20h-.12a2,2,0,0,1-1.88-2.1l.56-10a2,2,0,1,1,4,.23l-.56,10A2,2,0,0,1,404.28,384.22Zm-137.94,0a2,2,0,0,1-2-2v-10a2,2,0,0,1,4,0v10A2,2,0,0,1,266.34,384.22Zm139.06-20h-.12a2,2,0,0,1-1.88-2.11l.56-10a2,2,0,1,1,4,.23l-.56,10A2,2,0,0,1,405.4,364.25Zm-139.06,0a2,2,0,0,1-2-2v-10a2,2,0,0,1,4,0v10A2,2,0,0,1,266.34,364.22Zm140.18-19.94h-.11a2,2,0,0,1-1.89-2.11l.56-10a2,2,0,0,1,4,.23l-.56,10A2,2,0,0,1,406.52,344.28Zm-140.18-.06a2,2,0,0,1-2-2v-10a2,2,0,0,1,4,0v10A2,2,0,0,1,266.34,344.22Zm141.3-19.91h-.11a2,2,0,0,1-1.89-2.11l.57-10a2,2,0,1,1,4,.22l-.56,10A2,2,0,0,1,407.64,324.31Zm-141.3-.09a2,2,0,0,1-2-2v-10a2,2,0,0,1,4,0v10A2,2,0,0,1,266.34,324.22Zm142.43-19.88h-.12a2,2,0,0,1-1.88-2.11l.56-10a2,2,0,1,1,4,.22l-.56,10A2,2,0,0,1,408.77,304.34Zm-142.43-.12a2,2,0,0,1-2-2v-10a2,2,0,0,1,4,0v10A2,2,0,0,1,266.34,304.22ZM403,290.09H393a2,2,0,0,1,0-4h10a2,2,0,0,1,0,4Zm-20,0H373a2,2,0,0,1,0-4h10a2,2,0,0,1,0,4Zm-20,0H353a2,2,0,0,1,0-4h10a2,2,0,0,1,0,4Zm-20,0H333a2,2,0,0,1,0-4h10a2,2,0,0,1,0,4Zm-20,0H313a2,2,0,0,1,0-4h10a2,2,0,0,1,0,4Zm-20,0H293a2,2,0,0,1,0-4h10a2,2,0,0,1,0,4Zm-20,0H273a2,2,0,0,1,0-4h10a2,2,0,0,1,0,4Z"/><path class="cls-3" d="M595.87,473h-10a2,2,0,0,1,0-4h10a2,2,0,0,1,.92.22,2.18,2.18,0,0,1,.86-.39,9.56,9.56,0,0,0,6.54-4.64,2,2,0,0,1,3.47,2,13.63,13.63,0,0,1-9.27,6.58,2.76,2.76,0,0,0-2.52.23Zm-20,0h-10a2,2,0,0,1,0-4h10a2,2,0,0,1,0,4Zm-20,0h-10a2,2,0,0,1,0-4h10a2,2,0,0,1,0,4Zm-20,0h-10a2,2,0,0,1,0-4h10a2,2,0,0,1,0,4Zm-20,0h-10a2,2,0,0,1,0-4h10a2,2,0,0,1,0,4Zm-20,0h-10a2,2,0,0,1,0-4h10a2,2,0,0,1,0,4Zm-20,0h-10a2,2,0,0,1,0-4h10a2,2,0,0,1,0,4Zm-20,0H445.82a2,2,0,1,1,.11-4h9.94a2,2,0,0,1,0,4Zm-18.69-4.29a2,2,0,0,1-1.55-.74,13.56,13.56,0,0,1-3.05-8.56c0-.26,0-.52,0-.78l.08-1.42a2,2,0,1,1,4,.22l-.08,1.43c0,.18,0,.36,0,.55a9.63,9.63,0,0,0,2.15,6,2,2,0,0,1-.29,2.81A1.93,1.93,0,0,1,437.18,468.75Zm170.08-11.24a2,2,0,0,1-2-1.87l-.61-10a2,2,0,0,1,4-.24l.61,10a2,2,0,0,1-1.88,2.12Zm-172-8.14h-.11a2,2,0,0,1-1.89-2.11l.57-10a2,2,0,1,1,4,.22l-.56,10A2,2,0,0,1,435.24,449.37ZM606,437.55a2,2,0,0,1-2-1.88l-.61-10a2,2,0,1,1,4-.24l.61,10a2,2,0,0,1-1.88,2.12Zm-169.67-8.14h-.12a2,2,0,0,1-1.88-2.11l.56-10a2,2,0,0,1,2.11-1.88,2,2,0,0,1,1.88,2.1l-.56,10A2,2,0,0,1,436.37,429.41Zm168.45-11.82a2,2,0,0,1-2-1.88l-.61-10a2,2,0,1,1,4-.24l.61,10a2,2,0,0,1-1.87,2.11Zm-167.33-8.15h-.12a2,2,0,0,1-1.88-2.11l.56-10a2,2,0,0,1,2.11-1.88,2,2,0,0,1,1.88,2.11l-.56,10A2,2,0,0,1,437.49,409.44ZM603.6,397.63a2,2,0,0,1-2-1.88l-.61-10a2,2,0,0,1,4-.25l.61,10a2,2,0,0,1-1.87,2.12Zm-165-8.16h-.11a2,2,0,0,1-1.89-2.11l.56-10a2,2,0,0,1,4,.23l-.57,10A2,2,0,0,1,438.61,389.47Zm163.78-11.81a2,2,0,0,1-2-1.88l-.61-10a2,2,0,0,1,4-.24l.6,10a2,2,0,0,1-1.87,2.12ZM439.73,369.5h-.11a2,2,0,0,1-1.89-2.11l.56-10a2,2,0,0,1,2.11-1.88,2,2,0,0,1,1.89,2.11l-.56,10A2,2,0,0,1,439.73,369.5Zm161.44-11.8a2,2,0,0,1-2-1.88l-.6-10a2,2,0,1,1,4-.24l.61,10a2,2,0,0,1-1.88,2.12Zm-160.32-8.17h-.11a2,2,0,0,1-1.88-2.11l.56-10a2,2,0,0,1,2.11-1.89,2,2,0,0,1,1.88,2.11l-.56,10A2,2,0,0,1,440.85,349.53ZM600,337.74a2,2,0,0,1-2-1.88l-.61-10a2,2,0,1,1,4-.25l.61,10a2,2,0,0,1-1.88,2.12Zm-158-8.18h-.12a2,2,0,0,1-1.88-2.11l.56-10a2,2,0,1,1,4,.22l-.56,10A2,2,0,0,1,442,329.56Zm156.75-11.79a2,2,0,0,1-2-1.87l-.61-10a2,2,0,0,1,4-.24l.61,10a2,2,0,0,1-1.87,2.12ZM443.1,309.6H443a2,2,0,0,1-1.88-2.11l.56-10a2,2,0,1,1,4,.22l-.57,10A2,2,0,0,1,443.1,309.6Zm154.42-11.79a2,2,0,0,1-2-1.88l-.4-6.65a9.76,9.76,0,0,0-.56-2.69,2,2,0,0,1,3.76-1.37,13.82,13.82,0,0,1,.79,3.82l.4,6.65a2,2,0,0,1-1.87,2.12Zm-153.19-8.17a1.72,1.72,0,0,1-.39,0,2,2,0,0,1-1.58-2.34A13.61,13.61,0,0,1,449,278a2,2,0,0,1,2,3.48,9.56,9.56,0,0,0-4.69,6.51A2,2,0,0,1,444.33,289.64ZM589.63,281a2.27,2.27,0,0,1-.71-.13,9.52,9.52,0,0,0-3.39-.62h-5.81a2,2,0,0,1,0-4h5.81a13.6,13.6,0,0,1,4.81.87,2,2,0,0,1-.71,3.88Zm-19.91-.75h-10a2,2,0,0,1,0-4h10a2,2,0,0,1,0,4Zm-20,0h-10a2,2,0,0,1,0-4h10a2,2,0,0,1,0,4Zm-20,0h-10a2,2,0,0,1,0-4h10a2,2,0,0,1,0,4Zm-20,0h-10a2,2,0,0,1,0-4h10a2,2,0,0,1,0,4Zm-20,0h-10a2,2,0,0,1,0-4h10a2,2,0,0,1,0,4Zm-20,0h-10a2,2,0,0,1,0-4h10a2,2,0,0,1,0,4Z"/><path class="cls-3" d="M784.84,473h-10a2,2,0,0,1,0-4h10a9.47,9.47,0,0,0,3.72-.75,2,2,0,0,1,1.55,3.69A13.55,13.55,0,0,1,784.84,473Zm-20,0h-10a2,2,0,0,1,0-4h10a2,2,0,0,1,0,4Zm-20,0h-10a2,2,0,0,1,0-4h10a2,2,0,0,1,0,4Zm-20,0h-10a2,2,0,0,1,0-4h10a2,2,0,0,1,0,4Zm-20,0h-10a2,2,0,0,1,0-4h10a2,2,0,0,1,0,4Zm-20,0h-10a2,2,0,0,1,0-4h10a2,2,0,0,1,0,4Zm-20,0h-10a2,2,0,0,1,0-4h10a2,2,0,0,1,0,4Zm-20,0h-.94a13.54,13.54,0,0,1-9.57-3.94,2,2,0,1,1,2.82-2.84A9.55,9.55,0,0,0,643.9,469h.94a2,2,0,0,1,0,4Zm151-8a2.16,2.16,0,0,1-.61-.1,2,2,0,0,1-1.29-2.52,9.78,9.78,0,0,0,.46-2.95v-6.38a2,2,0,1,1,4,0v6.38a13.44,13.44,0,0,1-.66,4.18A2,2,0,0,1,795.89,465Zm-163.66-4.39a2,2,0,0,1-2-1.88l-.61-10a2,2,0,0,1,1.88-2.12,2,2,0,0,1,2.12,1.87l.6,10a2,2,0,0,1-1.87,2.11Zm164.22-15.56a2,2,0,0,1-2-2v-10a2,2,0,1,1,4,0v10A2,2,0,0,1,796.45,445.05ZM631,440.65a2,2,0,0,1-2-1.88l-.6-10a2,2,0,1,1,4-.25l.61,10a2,2,0,0,1-1.88,2.12Zm165.44-15.6a2,2,0,0,1-2-2v-10a2,2,0,1,1,4,0v10A2,2,0,0,1,796.45,425.05Zm-166.66-4.37a2,2,0,0,1-2-1.88l-.61-10a2,2,0,1,1,4-.24l.61,10a2,2,0,0,1-1.88,2.12Zm166.66-15.63a2,2,0,0,1-2-2v-10a2,2,0,1,1,4,0v10A2,2,0,0,1,796.45,405.05Zm-167.88-4.33a2,2,0,0,1-2-1.88l-.61-10a2,2,0,1,1,4-.24l.61,10a2,2,0,0,1-1.87,2.12Zm167.88-15.67a2,2,0,0,1-2-2v-10a2,2,0,1,1,4,0v10A2,2,0,0,1,796.45,385.05Zm-169.1-4.29a2,2,0,0,1-2-1.88l-.61-10a2,2,0,0,1,4-.25l.61,10a2,2,0,0,1-1.87,2.12Zm169.1-15.71a2,2,0,0,1-2-2v-10a2,2,0,1,1,4,0v10A2,2,0,0,1,796.45,365.05Zm-170.31-4.26a2,2,0,0,1-2-1.87l-.61-10a2,2,0,0,1,4-.24l.61,10a2,2,0,0,1-1.88,2.12Zm170.31-15.74a2,2,0,0,1-2-2v-10a2,2,0,1,1,4,0v10A2,2,0,0,1,796.45,345.05Zm-171.53-4.22a2,2,0,0,1-2-1.88l-.61-10a2,2,0,1,1,4-.24l.61,10a2,2,0,0,1-1.88,2.12Zm171.53-15.78a2,2,0,0,1-2-2v-10a2,2,0,1,1,4,0v10A2,2,0,0,1,796.45,325.05ZM623.7,320.87a2,2,0,0,1-2-1.88l-.61-10a2,2,0,1,1,4-.25l.61,10a2,2,0,0,1-1.87,2.11Zm172.75-15.82a2,2,0,0,1-2-2v-10a2,2,0,1,1,4,0v10A2,2,0,0,1,796.45,305.05Zm-174-4.15a2,2,0,0,1-2-1.87l-.51-8.34c0-.28,0-.56,0-.84s0-.73,0-1.09a2,2,0,0,1,2.15-1.83,2,2,0,0,1,1.84,2.15c0,.25,0,.51,0,.77s0,.4,0,.6l.51,8.33a2,2,0,0,1-1.87,2.12Zm172-15.46a2,2,0,0,1-1.67-.89,9.59,9.59,0,0,0-6.82-4.22,2,2,0,1,1,.49-4,13.58,13.58,0,0,1,9.66,6,2,2,0,0,1-.55,2.78A2.05,2.05,0,0,1,794.51,285.44Zm-167.77-3a2,2,0,0,1-1.18-3.61,13.51,13.51,0,0,1,8-2.6h2.71a2,2,0,0,1,0,4h-2.71a9.48,9.48,0,0,0-5.64,1.83A2,2,0,0,1,626.74,282.47Zm149.53-2.21h-10a2,2,0,0,1,0-4h10a2,2,0,0,1,0,4Zm-20,0h-10a2,2,0,0,1,0-4h10a2,2,0,0,1,0,4Zm-20,0h-10a2,2,0,0,1,0-4h10a2,2,0,0,1,0,4Zm-20,0h-10a2,2,0,0,1,0-4h10a2,2,0,0,1,0,4Zm-20,0h-10a2,2,0,0,1,0-4h10a2,2,0,0,1,0,4Zm-20,0h-10a2,2,0,0,1,0-4h10a2,2,0,0,1,0,4Zm-20,0h-10a2,2,0,0,1,0-4h10a2,2,0,0,1,0,4Z"/></g><path class="cls-20" d="M444.8,652.35c-66-32.78-116.95-84.33-122.63-192.21C322.17,460.14,494,517.51,444.8,652.35Z"/><path class="cls-21" d="M438.13,649.68c-46.4,4.28-90.92-6.55-129.79-62.71C308.34,587,419.85,560.8,438.13,649.68Z"/><path class="cls-22" d="M646.63,658.68c-30.94-66.9-38.34-139,24.8-226.64C671.43,432,769.44,584.39,646.63,658.68Z"/><path class="cls-23" d="M662.37,661.55h-243c-6.6,0-11.56-4.7-10.29-9.75l3.12-12.33c.94-3.71,5-6.43,9.87-6.58l234.31-7.31c5.06-.16,9.54,2.53,10.65,6.38l5.62,19.65C674.06,656.71,669.08,661.55,662.37,661.55Z"/><path class="cls-3" d="M550.16,636.44a1,1,0,0,1-1-1,1,1,0,0,1,1-1l10-.15h0a1,1,0,0,1,0,2l-10,.15Z"/><path class="cls-3" d="M418,655h-.16a1,1,0,0,1-.83-1.14l1.44-9a10.2,10.2,0,0,1,9.95-8.61l106.49-1.56a1,1,0,0,1,1,1,1,1,0,0,1-1,1l-106.49,1.56a8.2,8.2,0,0,0-8,6.93l-1.43,9A1,1,0,0,1,418,655Z"/><path class="cls-3" d="M434.13,628.27a1,1,0,0,1-.95-.67c-30-85.51-88.15-135-88.73-135.47a1,1,0,1,1,1.28-1.54c.59.5,59.16,50.3,89.34,136.35a1,1,0,0,1-.61,1.27A1,1,0,0,1,434.13,628.27Z"/><path class="cls-3" d="M654.77,618.29a1.06,1.06,0,0,1-.31,0,1,1,0,0,1-.65-1.26C677,544.37,670.43,459.35,670.36,458.5a1,1,0,1,1,2-.16c.07.86,6.67,86.26-16.63,159.26A1,1,0,0,1,654.77,618.29Z"/><path class="cls-3" d="M411.81,635a1,1,0,0,1-.77-.35c-26.15-30.83-84.7-40.79-85.29-40.89a1,1,0,0,1,.33-2c.59.1,59.86,10.18,86.49,41.57a1,1,0,0,1-.12,1.41A1,1,0,0,1,411.81,635Z"/><ellipse class="cls-24" cx="955.28" cy="475.73" rx="67.51" ry="68.75" transform="translate(-76.44 748.53) rotate(-41.28)"/><path class="cls-25" d="M1011.73,426.17c-27.88-31.75-75.75-35.3-106.92-7.93s-33.85,75.3-6,107,75.75,35.29,106.92,7.92S1039.6,457.91,1011.73,426.17ZM907.12,518c-23.78-27.08-21.49-68,5.1-91.32s67.43-20.33,91.21,6.76,21.5,68-5.09,91.32S930.91,545.09,907.12,518Z"/><path class="cls-3" d="M1024.87,466a.49.49,0,0,1-.49-.42,71.53,71.53,0,0,0-16.91-35.71c-19.12-21.77-48.91-29.88-75.9-20.65h0a68.31,68.31,0,0,0-13.14,6.13.5.5,0,0,1-.52-.86,69.65,69.65,0,0,1,13.33-6.21h0c27.38-9.37,57.59-1.15,77,20.93a72.44,72.44,0,0,1,17.14,36.21.5.5,0,0,1-.41.58ZM902,428.92a.51.51,0,0,1-.38-.84c1.19-1.34,2.45-2.66,3.74-3.91a.49.49,0,0,1,.7,0,.48.48,0,0,1,0,.7c-1.27,1.23-2.5,2.53-3.68,3.86A.5.5,0,0,1,902,428.92Z"/><path class="cls-26" d="M954.07,546l-7.14,148a10.68,10.68,0,0,0,11,11.18l1,0a9.9,9.9,0,0,0,9.61-10.26L963.16,546Z"/><path class="cls-3" d="M957.69,702.52a6.85,6.85,0,0,1-2.41-.45A8.24,8.24,0,0,1,950,694l.45-17.94a.48.48,0,0,1,.51-.49.5.5,0,0,1,.49.51L951,694a7.27,7.27,0,0,0,4.6,7.1c2.81,1,5.63,0,8.41-3.12a.5.5,0,0,1,.71,0,.51.51,0,0,1,0,.71C962.14,701.63,959.69,702.52,957.69,702.52Z"/><path class="cls-3" d="M951.11,671.06h0a.51.51,0,0,1-.49-.51l.06-2.33a.51.51,0,0,1,.51-.48.49.49,0,0,1,.49.51l-.06,2.32A.49.49,0,0,1,951.11,671.06Z"/><path class="cls-27" d="M145.05,720.14l71.88-48A30.2,30.2,0,0,1,233.35,667c65.27-.8,467.6-5.28,560.68,4.6a22.42,22.42,0,0,1,12.23,5.29l50.41,43.21Z"/><path class="cls-28" d="M146.87,726.26l-1.82-6.12H856.67l-3,5.74A12,12,0,0,1,843,732.31H155A8.45,8.45,0,0,1,146.87,726.26Z"/><path class="cls-29" d="M189.7,704.78l37.91-26.51a20.06,20.06,0,0,1,11.58-3.62l536.27,2.21A29.85,29.85,0,0,1,795,684.24l19.82,17.35a4,4,0,0,1-2.62,7L192,712.08A4,4,0,0,1,189.7,704.78Z"/><path class="cls-30" d="M793.23,684.44a8.26,8.26,0,0,0,1.86-.1c-.06-.05.93-.48,0-1l-17.7-6.07a26.83,26.83,0,0,0-3.9-.38l-9.07-1.05c-1.09,0-1.15,1.69-.46,2.53L767.8,683a4.74,4.74,0,0,0,3.22,1.52Z"/><path class="cls-31" d="M760.82,690a4.68,4.68,0,0,0-3.22-1.51l-33-.94c-1.08,0-1.13,1.75-.53,2.65l2.91,4.43a4.11,4.11,0,0,0,3,1.64l33.92-.07c1.09,0,1.5-1.6.81-2.44Z"/><path class="cls-32" d="M754.35,684.52c1.09,0,1.53-1.56.84-2.4l-4-3.85a4.78,4.78,0,0,0-3.22-1.52l-31.12-1.14c-1.08,0-1.18,1.74-.58,2.65l3.08,4.69a4.07,4.07,0,0,0,3,1.63Z"/><path class="cls-33" d="M669.54,690.37a3.53,3.53,0,0,0-2.87-1.74l-28.12-.72c-1.09,0-1.21,1.61-.84,2.63l1.46,4a3,3,0,0,0,2.63,1.85l28.87-.06c1.08,0,1.65-1.61,1.15-2.57Z"/><path class="cls-34" d="M712.32,690.18a4.07,4.07,0,0,0-3-1.64l-28.07-.91c-1.09,0-1.1,1.76-.6,2.72l2.18,4.22a3.57,3.57,0,0,0,2.87,1.75l28.69-.06c1.08,0,1.48-1.78.89-2.68Z"/><path class="cls-35" d="M581.77,684.87c1.08,0,1.82-1.53,1.58-2.59l-1.14-4.3a2.59,2.59,0,0,0-2.39-1.93l-28.6-.11a1.84,1.84,0,0,0-1.87,1.95l.25,5.08a2.08,2.08,0,0,0,2.06,2Z"/><path class="cls-36" d="M623.2,684.79c1.09,0,1.76-1.53,1.39-2.55l-1.85-4.16a3,3,0,0,0-2.63-1.86l-26.9-.64c-1.08,0-1.15,1.39-.92,2.44l1.08,4.91a2.56,2.56,0,0,0,2.4,1.91Z"/><path class="cls-37" d="M664.64,684.7c1.08,0,1.63-1.64,1.14-2.6l-2.57-4a3.57,3.57,0,0,0-2.87-1.75l-26.26-.81c-1.08,0-1.23,1.52-.86,2.54l1.73,4.79a3,3,0,0,0,2.64,1.85Z"/><path class="cls-38" d="M706.69,684.62c1.08,0,1.48-1.78.89-2.69l-3.13-3.72a4.09,4.09,0,0,0-3.05-1.65l-26.43-1c-1.08,0-1.16,1.64-.66,2.6l2.45,4.74a3.56,3.56,0,0,0,2.87,1.74Z"/><path class="cls-39" d="M585,690.72a2.57,2.57,0,0,0-2.4-1.92l-30.78.07a1.86,1.86,0,0,0-1.87,2l.19,3.8a2.09,2.09,0,0,0,2.06,2l32.11-.07c1.08,0,1.81-1.38,1.58-2.44Z"/><path class="cls-40" d="M251.23,690.9c.75-.78.66-2.44-.42-2.44l-37.38,1.1a7.3,7.3,0,0,0-3.58,1.13L202,695.15c-.88.62-.72,2.16.36,2.15l40.87-.08a5.27,5.27,0,0,0,3.32-1.42Z"/><path class="cls-41" d="M298.13,690.93c.67-.85.51-2.57-.57-2.57l-29.36,1.09a5.32,5.32,0,0,0-3.33,1.42l-4.69,3.86c-.75.79-.47,2.46.61,2.45l30.47-.06a4.65,4.65,0,0,0,3.19-1.54Z"/><path class="cls-42" d="M537.88,685a1.87,1.87,0,0,0,1.88-2l-.25-5.14a2.11,2.11,0,0,0-2.07-2L511,675.77a2.22,2.22,0,0,0-2.16,2l-.54,5.35a1.75,1.75,0,0,0,1.78,1.95Z"/><path class="cls-43" d="M777.41,694.61a4.73,4.73,0,0,0,3.22,1.51l25.89,0a1.16,1.16,0,0,0,.76-2l-6.12-4.37a6,6,0,0,0-3.45-1.3l-23.81-.84c-1.08,0-1,1.58-.35,2.41Z"/><path class="cls-44" d="M444.67,691c.29-1,.13-2.62-1-2.62l-35.94.8A3.31,3.31,0,0,0,405,691l-2,3.57a1.67,1.67,0,0,0,1.3,2.36l36.86-.07a2.72,2.72,0,0,0,2.48-1.91Z"/><path class="cls-45" d="M497.62,690.93a1.75,1.75,0,0,0-1.78-1.95l-38.5.08a2.74,2.74,0,0,0-2.48,1.9l-1.11,3.43c-.28,1,.43,2.4,1.51,2.4l39.81-.08a2.24,2.24,0,0,0,2.16-2Z"/><path class="cls-46" d="M540.14,690.85a2.09,2.09,0,0,0-2.06-2l-28.42.06a2.23,2.23,0,0,0-2.16,2l-.38,3.82a1.74,1.74,0,0,0,1.77,1.95l29.56-.06a1.87,1.87,0,0,0,1.87-2Z"/><path class="cls-47" d="M394.18,691c.45-1,.34-2.62-.74-2.62l-30.14.89a3.87,3.87,0,0,0-3,1.69l-2.72,3.73c-.56.93-.05,2.32,1,2.32l30.9-.07a3.35,3.35,0,0,0,2.78-1.79Z"/><path class="cls-48" d="M627.26,690.56a3,3,0,0,0-2.63-1.84L596,688.24c-1.09,0-1.18,1.4-.95,2.46l.86,3.88a2.57,2.57,0,0,0,2.39,1.92l29.08-.06c1.08,0,1.75-1.54,1.38-2.55Z"/><path class="cls-49" d="M348.82,691c.56-.92.38-2.6-.7-2.6l-34.25,1a4.62,4.62,0,0,0-3.19,1.55L307,694.52c-.68.84-.34,2.57.74,2.57L343.2,697a3.93,3.93,0,0,0,3-1.69Z"/><path class="cls-50" d="M552.42,700.52a1.87,1.87,0,0,0-1.87,2l.27,5.63a2.08,2.08,0,0,0,2.07,2l34.4-.19c1.08,0,1.82-1.44,1.59-2.49l-1.28-5a2.55,2.55,0,0,0-2.39-1.91Z"/><path class="cls-51" d="M508.5,700.61a2.24,2.24,0,0,0-2.17,2l-.58,5.81a1.74,1.74,0,0,0,1.78,1.94l31.58-.17a1.88,1.88,0,0,0,1.87-2l-.28-5.66a2.09,2.09,0,0,0-2.06-2Z"/><path class="cls-52" d="M598.65,699.7c-1.08,0-1.22,1.6-1,2.65l1.22,5.54a2.54,2.54,0,0,0,2.39,1.91l30.91-.17c1.08,0,1.76-1.51,1.39-2.53l-2.1-4.89a3,3,0,0,0-2.64-1.84Z"/><path class="cls-53" d="M496.24,685.05a2.24,2.24,0,0,0,2.16-2l.54-5.41a1.76,1.76,0,0,0-1.77-2L461,675.56a2.72,2.72,0,0,0-2.48,1.89l-1.62,5.26c-.29,1,.43,2.42,1.51,2.41Z"/><path class="cls-54" d="M687.31,699.51c-1.09,0-1.17,1.53-.67,2.49l2.88,5.56a3.51,3.51,0,0,0,2.87,1.73l30.42-.17c1.08,0,1.59-1.59,1-2.49l-3.82-4.8a4,4,0,0,0-3.05-1.64Z"/><path class="cls-55" d="M732.27,699.15c-1.08,0-1.13,1.75-.53,2.65l3.68,5.6a4.08,4.08,0,0,0,3.05,1.64l36-.2c1.08,0,1.51-1.59.82-2.43l-4.82-4.81a4.74,4.74,0,0,0-3.22-1.52Z"/><path class="cls-56" d="M815.1,702.5c-.63.22-3-2.51-4.1-2.51l-27.43-.94c-1.08,0-1.1,1.69-.41,2.52l4.68,5.67a4.72,4.72,0,0,0,3.22,1.5l19.15-.1a6.47,6.47,0,0,0,2.84-.86,2,2,0,0,0,.85-1l1.2-3.21C814.93,702.46,815.18,702.47,815.1,702.5Z"/><path class="cls-57" d="M642.93,699.33c-1.08,0-1.37,1.84-1,2.86l2,5.52a3,3,0,0,0,2.63,1.84l30.85-.17c1.08,0,1.65-1.64,1.15-2.6l-3-4.76a3.51,3.51,0,0,0-2.87-1.74Z"/><path class="cls-58" d="M394.81,685.25a3.35,3.35,0,0,0,2.78-1.79l2.87-6.35c.45-1,.29-2.77-.79-2.77l-27.88.86a3.82,3.82,0,0,0-3,1.67l-4.24,6.07a1.56,1.56,0,0,0,1.11,2.37Z"/><path class="cls-59" d="M350.25,685.34a3.89,3.89,0,0,0,3-1.68l4.12-6.84c.56-.92.54-2.48-.54-2.48l-31.59.66a4.59,4.59,0,0,0-3.18,1.54L316.1,683c-.67.85-.2,2.37.88,2.37Z"/><path class="cls-60" d="M300.49,685.45a4.64,4.64,0,0,0,3.19-1.55l5.86-7.41c.67-.85.7-2.52-.39-2.52l-26.95.86a5.2,5.2,0,0,0-3.32,1.41l-7.68,7c-.74.79-.31,2.27.77,2.26Z"/><path class="cls-61" d="M356.25,700.92a3.9,3.9,0,0,0-3,1.69l-4.18,6.92c-.55.93-.13,1.68,1,1.67l163.45-.85a3.34,3.34,0,0,0,2.78-1.8l3-6.57a1.16,1.16,0,0,0-1.15-1.78Z"/><path class="cls-62" d="M444.28,685.15a2.73,2.73,0,0,0,2.48-1.9l1.57-5.84c.29-1,.11-2.56-1-2.57l-33.34.53a3.31,3.31,0,0,0-2.78,1.78l-3,5.57c-.44,1,.19,2.51,1.27,2.5Z"/><path class="cls-63" d="M254.4,685.54a5.27,5.27,0,0,0,3.32-1.42l7.6-7.94c.75-.78.75-2.38-.34-2.39l-23.82.87a30.11,30.11,0,0,0-3.91.28l-7.88,2.47a29.22,29.22,0,0,0-3.37,2l-7.55,4.26a1.06,1.06,0,0,0,.62,2Z"/><path class="cls-64" d="M304.64,701a4.62,4.62,0,0,0-3.19,1.55L295.6,710c-.67.85-.33,1.54.75,1.53l38.24-.21a3.91,3.91,0,0,0,3-1.7l4.2-7c.56-.92.51-2.43-.57-2.43Z"/><path class="cls-65" d="M257,701.13a5.29,5.29,0,0,0-3.33,1.42l-7.48,7.82c-.75.78-.48,1.41.6,1.41l33-.19A4.6,4.6,0,0,0,283,710l5.88-7.44c.67-.85.34-1.54-.74-1.54Z"/><path class="cls-66" d="M196.7,701.25a7.3,7.3,0,0,0-3.57,1.13l-3.21,2.25c-.75.52-.53.88-.58,1.61a2.68,2.68,0,0,0,.12,1l.61,1.93a4.05,4.05,0,0,0,2.73,2.71,4.81,4.81,0,0,0,1.19.17l35.21-.19a5.31,5.31,0,0,0,3.32-1.44l7.53-7.86c.75-.78.74-2.44-.34-2.43Z"/><path class="cls-67" d="M793.23,683.41a7.85,7.85,0,0,0,1.86-.11c-.06,0-.87-.54-1.8-1.1l-15.9-6a25.49,25.49,0,0,0-3.9-.37l-8.81,0c-1.08,0-1.41.68-.72,1.51l3.84,4.65a4.77,4.77,0,0,0,3.22,1.51Z"/><path class="cls-68" d="M760.82,688.92a4.77,4.77,0,0,0-3.22-1.51l-32.64.07c-1.08,0-1.48.74-.88,1.65l2.91,4.42a4.08,4.08,0,0,0,3,1.64l33.92-.07c1.09,0,1.41-.68.72-1.52Z"/><path class="cls-69" d="M754.35,683.48c1.09,0,1.41-.68.72-1.52l-3.9-4.72a4.79,4.79,0,0,0-3.22-1.53l-30.82-.12c-1.08,0-1.48.73-.88,1.63l3.08,4.69a4.11,4.11,0,0,0,3,1.64Z"/><path class="cls-70" d="M669.54,689.34a3.51,3.51,0,0,0-2.87-1.74l-27.66,0a1.3,1.3,0,0,0-1.3,1.86l1.46,4a3,3,0,0,0,2.63,1.84l28.87-.06a1.1,1.1,0,0,0,1.06-1.75Z"/><path class="cls-71" d="M712.32,689.15a4.07,4.07,0,0,0-3-1.64l-27.61.06a1.1,1.1,0,0,0-1.06,1.75l2.18,4.22a3.56,3.56,0,0,0,2.87,1.74l28.69-.06c1.08,0,1.48-.74.89-1.64Z"/><path class="cls-72" d="M581.77,683.84a1.53,1.53,0,0,0,1.54-1.93l-1.1-5a2.57,2.57,0,0,0-2.39-1.93l-28.6-.12a1.86,1.86,0,0,0-1.87,2l.25,5.08a2.09,2.09,0,0,0,2.06,2Z"/><path class="cls-73" d="M623.2,683.75a1.29,1.29,0,0,0,1.3-1.85L622.74,677a3,3,0,0,0-2.63-1.85l-26.28-.11a1.5,1.5,0,0,0-1.54,1.91l1.08,4.9a2.57,2.57,0,0,0,2.4,1.92Z"/><path class="cls-74" d="M664.64,683.67a1.1,1.1,0,0,0,1.06-1.75l-2.49-4.81a3.6,3.6,0,0,0-2.87-1.76l-25.83-.1a1.28,1.28,0,0,0-1.29,1.84l1.73,4.79a3,3,0,0,0,2.64,1.84Z"/><path class="cls-75" d="M706.69,683.58c1.08,0,1.48-.74.89-1.65l-3.13-4.76a4.15,4.15,0,0,0-3.05-1.65l-26-.11a1.1,1.1,0,0,0-1.06,1.74l2.45,4.74a3.54,3.54,0,0,0,2.87,1.75Z"/><path class="cls-76" d="M585,689.69a2.57,2.57,0,0,0-2.4-1.92l-30.78.06a1.87,1.87,0,0,0-1.87,2l.19,3.79a2.09,2.09,0,0,0,2.06,2l32.11-.07a1.52,1.52,0,0,0,1.54-1.93Z"/><path class="cls-77" d="M251.23,689.86c.75-.78.48-1.41-.61-1.41l-37.19.07a7.41,7.41,0,0,0-3.58,1.13l-7.86,5.5c-.88.62-.72,1.12.36,1.12l40.87-.08a5.33,5.33,0,0,0,3.32-1.43Z"/><path class="cls-78" d="M298.13,689.89c.67-.85.33-1.54-.75-1.54l-29.18.06a5.27,5.27,0,0,0-3.33,1.43l-4.69,4.89c-.75.79-.47,1.42.61,1.42l30.47-.06a4.62,4.62,0,0,0,3.19-1.55Z"/><path class="cls-79" d="M537.88,683.93a1.87,1.87,0,0,0,1.88-2l-.25-5.14a2.13,2.13,0,0,0-2.07-2l-26.46-.1a2.21,2.21,0,0,0-2.16,1.94l-.54,5.35a1.74,1.74,0,0,0,1.78,2Z"/><path class="cls-80" d="M777.41,693.58a4.77,4.77,0,0,0,3.22,1.51l25.89-.05c1.08,0,1.3-.59.49-1.3l-5.85-5.12a6.07,6.07,0,0,0-3.45-1.29l-23.45,0c-1.08,0-1.4.68-.71,1.52Z"/><path class="cls-81" d="M444.67,690a1.43,1.43,0,0,0-1.45-1.9l-35.45.08a3.32,3.32,0,0,0-2.78,1.79l-1.88,4.15a1.17,1.17,0,0,0,1.16,1.79l36.86-.08a2.72,2.72,0,0,0,2.48-1.9Z"/><path class="cls-82" d="M497.62,689.9a1.74,1.74,0,0,0-1.78-1.95l-38.5.08a2.72,2.72,0,0,0-2.48,1.9l-1.06,3.93a1.43,1.43,0,0,0,1.46,1.89l39.81-.08a2.22,2.22,0,0,0,2.16-2Z"/><path class="cls-83" d="M540.14,689.82a2.09,2.09,0,0,0-2.06-2l-28.42.06a2.23,2.23,0,0,0-2.16,2l-.38,3.81a1.74,1.74,0,0,0,1.77,1.95l29.56-.06a1.86,1.86,0,0,0,1.87-2Z"/><path class="cls-84" d="M394.18,689.94a1.16,1.16,0,0,0-1.15-1.78l-29.73.06a3.89,3.89,0,0,0-3,1.68l-2.64,4.37c-.56.93-.13,1.68.95,1.68l30.9-.06a3.34,3.34,0,0,0,2.78-1.8Z"/><path class="cls-85" d="M627.26,689.53a3,3,0,0,0-2.63-1.85l-28,.06a1.52,1.52,0,0,0-1.54,1.92l.86,3.88a2.56,2.56,0,0,0,2.39,1.92l29.08-.06a1.29,1.29,0,0,0,1.3-1.85Z"/><path class="cls-86" d="M348.82,689.93c.56-.93.13-1.68-.95-1.68l-34,.07a4.65,4.65,0,0,0-3.19,1.54L307,694.52c-.68.84-.34,1.54.74,1.53L343.2,696a3.87,3.87,0,0,0,3-1.69Z"/><path class="cls-87" d="M552.42,699.49a1.87,1.87,0,0,0-1.87,2l.27,5.62a2.09,2.09,0,0,0,2.07,2l34.4-.19a1.53,1.53,0,0,0,1.54-1.94l-1.23-5.57a2.56,2.56,0,0,0-2.39-1.92Z"/><path class="cls-88" d="M599.21,699.39a1.52,1.52,0,0,0-1.54,1.93l1.22,5.54a2.56,2.56,0,0,0,2.39,1.91l30.91-.17a1.31,1.31,0,0,0,1.3-1.87l-2-5.55a3,3,0,0,0-2.64-1.85Z"/><path class="cls-89" d="M496.24,684a2.23,2.23,0,0,0,2.16-2l.54-5.41a1.75,1.75,0,0,0-1.77-2L461,674.53a2.7,2.7,0,0,0-2.48,1.89L457,682.19a1.43,1.43,0,0,0,1.45,1.9Z"/><path class="cls-90" d="M687.7,699.21a1.1,1.1,0,0,0-1.06,1.75l2.88,5.56a3.52,3.52,0,0,0,2.87,1.74l30.42-.17c1.08,0,1.48-.75.89-1.65L720,700.79a4.08,4.08,0,0,0-3.05-1.64Z"/><path class="cls-91" d="M732.62,699.12c-1.08,0-1.48.74-.88,1.65l3.68,5.6a4.07,4.07,0,0,0,3.05,1.63l36-.2c1.08,0,1.4-.69.71-1.53l-4.71-5.71a4.77,4.77,0,0,0-3.22-1.51Z"/><path class="cls-92" d="M813.88,699.75A5.25,5.25,0,0,0,811,699l-27.13.06c-1.08,0-1.4.68-.71,1.52l4.68,5.66a4.68,4.68,0,0,0,3.22,1.51l19.15-.11a6.26,6.26,0,0,0,2.6-.72,2.39,2.39,0,0,0,1.14-1.3l1.15-3.08A5.37,5.37,0,0,0,813.88,699.75Z"/><path class="cls-93" d="M402.48,699.79a3.33,3.33,0,0,0-2.77,1.8l-3,6.53a1.16,1.16,0,0,0,1.15,1.78l39.49-.22a2.73,2.73,0,0,0,2.48-1.91l1.66-6.16a1.43,1.43,0,0,0-1.46-1.89Z"/><path class="cls-94" d="M643.23,699.3a1.3,1.3,0,0,0-1.3,1.86l2,5.52a3,3,0,0,0,2.63,1.84l30.85-.18a1.1,1.1,0,0,0,1.06-1.75l-2.9-5.61a3.53,3.53,0,0,0-2.87-1.74Z"/><path class="cls-95" d="M394.81,684.22a3.34,3.34,0,0,0,2.78-1.8l2.87-6.35a1.18,1.18,0,0,0-1.15-1.8l-27.52-.11a3.86,3.86,0,0,0-3,1.68l-4.08,6.76c-.56.93-.13,1.68.95,1.68Z"/><path class="cls-96" d="M350.25,684.31a3.87,3.87,0,0,0,3-1.69l4.12-6.83c.56-.93.14-1.69-1-1.69L325.22,674A4.54,4.54,0,0,0,322,675.5l-5.8,7.34c-.67.85-.34,1.54.74,1.54Z"/><path class="cls-97" d="M300.49,684.41a4.63,4.63,0,0,0,3.19-1.54l5.86-7.42c.67-.85.34-1.54-.75-1.55l-26.59-.11a5.26,5.26,0,0,0-3.32,1.41l-7.52,7.85c-.75.78-.47,1.42.61,1.42Z"/><path class="cls-98" d="M541,707.14l-.28-5.66a2.08,2.08,0,0,0-2.06-2l-30.14.06a2.09,2.09,0,0,0-.51.07l-151.74.24a3.87,3.87,0,0,0-3,1.69l-4.18,6.92c-.55.92-.13,1.67,1,1.67l188.34-.8a4.07,4.07,0,0,0,1-.28A1.87,1.87,0,0,0,541,707.14Z"/><path class="cls-99" d="M444.28,684.12a2.73,2.73,0,0,0,2.48-1.9l1.57-5.84a1.44,1.44,0,0,0-1.45-1.91L414,674.34a3.27,3.27,0,0,0-2.78,1.78l-2.85,6.28a1.18,1.18,0,0,0,1.16,1.79Z"/><path class="cls-100" d="M254.4,684.51a5.33,5.33,0,0,0,3.32-1.43l7.6-7.93c.75-.78.47-1.43-.61-1.43l-23.55-.1a32,32,0,0,0-3.91.29l-7.88,2.46a30.73,30.73,0,0,0-3.37,2l-7.29,5.1c-.88.62-.72,1.12.36,1.12Z"/><path class="cls-101" d="M304.64,700a4.66,4.66,0,0,0-3.19,1.55l-5.85,7.4c-.67.84-.33,1.53.75,1.53l38.24-.22a3.87,3.87,0,0,0,3-1.69l4.2-7c.56-.93.13-1.68-.95-1.68Z"/><path class="cls-102" d="M257,700.09a5.3,5.3,0,0,0-3.33,1.43l-7.48,7.81c-.75.79-.48,1.42.6,1.41l33-.18A4.68,4.68,0,0,0,283,709l5.88-7.44c.67-.85.34-1.54-.74-1.54Z"/><path class="cls-103" d="M196.71,700.22a7.3,7.3,0,0,0-3.58,1.13l-1.82,1.27a5.89,5.89,0,0,0-1.8,2.35,1.79,1.79,0,0,0,0,1.29L190,708a4.17,4.17,0,0,0,4,3l35.21-.2a5.3,5.3,0,0,0,3.32-1.43l7.53-7.87c.75-.78.48-1.41-.61-1.41Z"/><circle class="cls-3" cx="499.25" cy="300.36" r="11.52"/><circle class="cls-3" cx="503.66" cy="93.18" r="11.52" transform="translate(81.63 383.43) rotate(-45)"/><path class="cls-104" d="M732.57,498.5c4.56.39,12.47,1,18.71,1.31,3.75.16,5.91-.2,7.15-.7,0,.14,0,.27,0,.39a1.28,1.28,0,0,1-1.22,1.22,219.88,219.88,0,0,1-24.5,0,.92.92,0,0,1-.75-1.38A6.3,6.3,0,0,1,732.57,498.5Z"/><path class="cls-105" d="M751.28,499.81c-6.24-.28-14.15-.92-18.71-1.31,4.48-5.5,18.71-9.21,18.71-9.21h4a16.89,16.89,0,0,1,3.13,9.82C757.19,499.61,755,500,751.28,499.81Z"/><path class="cls-106" d="M756,482.73l-.38,7.44a1.69,1.69,0,0,1-1.45,1.6,6.54,6.54,0,0,1-3-.25,2,2,0,0,1-1.35-1.54l-1.3-7.25Z"/><path class="cls-107" d="M808.17,499.75a3.61,3.61,0,0,0,3.25-2.4v0a2.56,2.56,0,0,1-1.73,2.93,11.25,11.25,0,0,1-4.79.75,4.74,4.74,0,0,1-3.6-1.66h0C802.78,500.13,804.87,500.21,808.17,499.75Z"/><path class="cls-108" d="M798.85,482.68h3.31c5.05-.1,8.22,10.55,9.26,14.67a3.61,3.61,0,0,1-3.25,2.4c-3.3.46-5.39.38-6.88-.36-2.73-3.59-4.08-8.85-4.73-11.91A4.19,4.19,0,0,1,798.85,482.68Z"/><path class="cls-109" d="M801.74,475.78l1.84,7.32a2,2,0,0,1-1,2.25,7,7,0,0,1-3.81.92,1.65,1.65,0,0,1-1.35-1.11l-2.7-7.7Z"/><path class="cls-110" d="M803.93,477.89c-2.29,2-9.74,2.3-9.74,2.3-26.82-64.38-37.79-73.53-37.79-73.53,3.87,24.3.62,78.1.62,78.1-4.43,2-10.13,0-10.13,0a414.87,414.87,0,0,0-13.7-101.83c18.13-.41,27.77-6.61,30.92-9.1C779.22,398.19,803.93,477.89,803.93,477.89Z"/><path class="cls-111" d="M759.5,299.79c3.44,17.12,2.21,47.75,1.4,61.73-.23,3.93,2.51,9.37,4.73,13.09a1.16,1.16,0,0,1-.47,1.63c-3.71,1.91-16.28,7.82-30.85,8.56a2.08,2.08,0,0,1-2.09-1.55c-10.81-40.35-23.36-66.14-23.36-66.14C722.72,295,759.5,299.79,759.5,299.79Z"/><path class="cls-112" d="M754.57,405.14A.8.8,0,0,0,755,405a.85.85,0,0,0,.29-1.18,27.13,27.13,0,0,0-10.64-9.23.86.86,0,0,0-.74,1.55,25.64,25.64,0,0,1,9.91,8.58A.88.88,0,0,0,754.57,405.14Z"/><path class="cls-113" d="M781,348.92c-1.1,8-4.36,16.67-10.87,25.91l-2.48-2A76.41,76.41,0,0,0,768.91,348C772.93,347.26,777.68,348.07,781,348.92Z"/><path class="cls-114" d="M755.67,320.91l3.83-21.12s25.61,19.58,21.53,49.13c-3.35-.85-8.1-1.66-12.12-.88C767.74,338.56,764.24,328.27,755.67,320.91Z"/><path class="cls-115" d="M708.86,317.11l9.89,21.29c-1.6,12.85-8.51,18.41-16,20.54a45.48,45.48,0,0,0-3.32-13.86C709,335.26,708.86,317.11,708.86,317.11Z"/><path class="cls-116" d="M699.48,345.08a45.48,45.48,0,0,1,3.32,13.86c-19.86,7.71-25.12-7.24-25.12-7.24l3.67-.64C689.64,351.93,695.43,349.26,699.48,345.08Z"/><path class="cls-117" d="M718,290.83l4.77,17.54a3.42,3.42,0,0,0,4.57,2.27,69,69,0,0,0,6.87-3.14,4.6,4.6,0,0,0,1.63-6.61l-9.93-14.79Z"/><path class="cls-118" d="M707.53,277.5c0,.3,4,20,4,20L722.72,295l-1-19.25S708.26,272.45,707.53,277.5Z"/><path class="cls-119" d="M719.16,280l1.34,10.09a1.28,1.28,0,0,1,0,.39c-.11.79-.7,3.48-3.42,2.71-2.47-.7-4.73-1.3-6.29-.82a1.41,1.41,0,0,0-1,1.64,59.67,59.67,0,0,0,2.58,9.19,1.41,1.41,0,0,0,1.72.84,45.8,45.8,0,0,0,9.88-4,1.43,1.43,0,0,0,.7-1.28c-.11-2.55-.41-10.3-.16-12.47s2.74-3.26,3.82-3.69a1.41,1.41,0,0,0,.78-.79c.51-1.26,1.2-4.18-2.48-5.37a1.42,1.42,0,0,1-.9-1.84c.54-1.52.77-3.83-2.07-5.11a5.23,5.23,0,0,0-6.22,1.5,1.41,1.41,0,0,1-1.81.21,1.11,1.11,0,0,0-1.28.05,1.41,1.41,0,0,1-2-.6,4.23,4.23,0,0,0-4.93-2.46c-5,.86-5.59,6.42-4.27,9.69s6.72,2,9.43.37c2-1.25,4.72.06,5.88.76A1.41,1.41,0,0,1,719.16,280Z"/><path class="cls-120" d="M725,290s-2.06-5.78.06-7.2,5.26-.68,4.57,3.51C728.75,291.47,725,290,725,290Z"/><path class="cls-121" d="M679.15,354.44c-1,.78-4.42-.85-6.52-2a2.41,2.41,0,0,1-1.16-2.85c.5-1.59,1.34-3.64,2.38-3.9C675.57,345.28,683.27,351.22,679.15,354.44Z"/><path class="cls-122" d="M847.81,402.75l-261.56-93-13.84,38.44,261.47,95.63a12.21,12.21,0,0,0,14.73-5.34c3-5.25,6-13.45,6.15-25.73A10.43,10.43,0,0,0,847.81,402.75Z"/><path class="cls-123" d="M505.33,299.79l36.13,4.43c0,5-1.67,11.41-7.18,18.79L504.11,303.1A1.81,1.81,0,0,1,505.33,299.79Z"/><path class="cls-124" d="M586.25,309.72a50.36,50.36,0,0,1-13.84,38.44L534.28,323c5.51-7.38,7.14-13.82,7.18-18.79Z"/><path class="cls-125" d="M844.56,414.53a.77.77,0,0,0,.26-1.49L594.57,324.6a.77.77,0,0,0-.51,1.45l250.25,88.44A.73.73,0,0,0,844.56,414.53Z"/><path class="cls-126" d="M840.25,429.62a.77.77,0,0,0,.25-1.5L590.26,339.68a.77.77,0,0,0-1,.47.76.76,0,0,0,.47,1L840,429.57A.8.8,0,0,0,840.25,429.62Z"/><path class="cls-127" d="M768.7,372.46l-11.56-.95-5,4.62s1.19,1.64,4.89.7a52.39,52.39,0,0,1,8.78-1.18s5.11,2.31,5.17-2Z"/><path class="cls-3" d="M501.21,304.25h-9.43a2,2,0,0,1,0-4h5.51v-.56a2,2,0,0,1,2-2h0a2,2,0,0,1,2,2Zm-19.43,0h-10a2,2,0,0,1,0-4h10a2,2,0,0,1,0,4Zm-20,0h-10a2,2,0,0,1,0-4h10a2,2,0,0,1,0,4Zm-20,0h-10a2,2,0,0,1,0-4h10a2,2,0,0,1,0,4Zm-20,0h-10a2,2,0,0,1,0-4h10a2,2,0,0,1,0,4Zm-20,0h-10a2,2,0,0,1,0-4h10a2,2,0,0,1,0,4Zm-20,0h-10a2,2,0,0,1,0-4h10a2,2,0,0,1,0,4Zm-20,0h-10a2,2,0,0,1,0-4h10a2,2,0,0,1,0,4Zm-20,0h-10a2,2,0,0,1,0-4h10a2,2,0,0,1,0,4Zm-20,0h-10a2,2,0,0,1,0-4h10a2,2,0,0,1,0,4Zm-20,0h-10a2,2,0,0,1,0-4h10a2,2,0,0,1,0,4Zm197.71-12.52h0a2,2,0,0,1-2-2l.19-10a2,2,0,0,1,2-2h0a2,2,0,0,1,2,2l-.19,10A2,2,0,0,1,499.49,291.73Zm.39-20h0a2,2,0,0,1-2-2l.19-10a2,2,0,1,1,4,.08l-.2,10A2,2,0,0,1,499.88,271.73Zm423.34-8a2,2,0,0,1-2-2l0-5.86a2,2,0,0,1,2-2h0a2,2,0,0,1,2,2l0,5.86a2,2,0,0,1-2,2Zm-423-12h0a2,2,0,0,1-2-2l.19-10a2,2,0,0,1,2-2h0a2,2,0,0,1,2,2l-.19,10A2,2,0,0,1,500.26,251.73Zm422.84-3.82a2,2,0,0,1-2-2l-.07-10a2,2,0,0,1,2-2h0a2,2,0,0,1,2,2l.07,10a2,2,0,0,1-2,2ZM500.64,231.74h0a2,2,0,0,1-2-2l.19-10a2,2,0,0,1,2-2h0a2,2,0,0,1,2,2l-.19,10A2,2,0,0,1,500.64,231.74ZM923,227.91a2,2,0,0,1-2-2l-.07-10a2,2,0,0,1,2-2h0a2,2,0,0,1,2,2l.07,10a2,2,0,0,1-2,2ZM501,211.74h0a2,2,0,0,1-2-2l.19-10a2,2,0,0,1,2-2h0a2,2,0,0,1,2,2l-.19,10A2,2,0,0,1,501,211.74Zm421.77-3.83a2,2,0,0,1-2-2l-.08-10a2,2,0,0,1,2-2h0a2,2,0,0,1,2,2l.08,10a2,2,0,0,1-2,2ZM501.41,191.74h0a2,2,0,0,1-2-2l.19-10a2,2,0,0,1,2-2,2,2,0,0,1,2,2l-.19,10A2,2,0,0,1,501.41,191.74Zm421.24-3.83a2,2,0,0,1-2-2l-.08-10a2,2,0,0,1,2-2h0a2,2,0,0,1,2,2l.08,10a2,2,0,0,1-2,2ZM501.79,171.75h0a2,2,0,0,1-2-2l.2-10a2,2,0,0,1,4,.08l-.2,10A2,2,0,0,1,501.79,171.75Zm420.71-3.84a2,2,0,0,1-2-2l-.08-10a2,2,0,0,1,2-2,2,2,0,0,1,2,2l.08,10a2,2,0,0,1-2,2ZM502.18,151.75h0a2,2,0,0,1-2-2l.19-10a2,2,0,0,1,2-2h0a2,2,0,0,1,2,2l-.19,10A2,2,0,0,1,502.18,151.75Zm420.17-3.84a2,2,0,0,1-2-2l-.08-10a2,2,0,0,1,2-2h0a2,2,0,0,1,2,2l.08,10a2,2,0,0,1-2,2ZM502.56,131.75h0a2,2,0,0,1-2-2l.19-10a2,2,0,0,1,4,.07l-.19,10A2,2,0,0,1,502.56,131.75Zm419.64-3.84a2,2,0,0,1-2-2l-.08-10a2,2,0,0,1,2-2h0a2,2,0,0,1,2,2l.08,10a2,2,0,0,1-2,2ZM503,111.76h0a2,2,0,0,1-2-2l.19-10a2,2,0,0,1,2-2h0a2,2,0,0,1,2,2l-.19,10A2,2,0,0,1,503,111.76Zm419.1-3.85a2,2,0,0,1-2-2l-.08-10a2,2,0,0,1,2-2h0a2,2,0,0,1,2,2l.08,10a2,2,0,0,1-2,2Zm-6.36-13.74h-10a2,2,0,0,1,0-4h10a2,2,0,0,1,0,4Zm-20,0h-10a2,2,0,0,1,0-4h10a2,2,0,0,1,0,4Zm-20,0h-10a2,2,0,0,1,0-4h10a2,2,0,0,1,0,4Zm-20,0h-10a2,2,0,0,1,0-4h10a2,2,0,0,1,0,4Zm-20,0h-10a2,2,0,0,1,0-4h10a2,2,0,0,1,0,4Zm-20,0h-10a2,2,0,0,1,0-4h10a2,2,0,0,1,0,4Zm-20,0h-10a2,2,0,0,1,0-4h10a2,2,0,0,1,0,4Zm-20,0h-10a2,2,0,0,1,0-4h10a2,2,0,0,1,0,4Zm-20,0h-10a2,2,0,0,1,0-4h10a2,2,0,0,1,0,4Zm-20,0h-10a2,2,0,0,1,0-4h10a2,2,0,0,1,0,4Zm-20,0h-10a2,2,0,0,1,0-4h10a2,2,0,0,1,0,4Zm-20,0h-10a2,2,0,0,1,0-4h10a2,2,0,0,1,0,4Zm-20,0h-10a2,2,0,0,1,0-4h10a2,2,0,0,1,0,4Zm-20,0h-10a2,2,0,0,1,0-4h10a2,2,0,0,1,0,4Zm-20,0h-10a2,2,0,0,1,0-4h10a2,2,0,0,1,0,4Zm-20,0h-10a2,2,0,0,1,0-4h10a2,2,0,0,1,0,4Zm-20,0h-10a2,2,0,0,1,0-4h10a2,2,0,0,1,0,4Zm-20,0h-10a2,2,0,0,1,0-4h10a2,2,0,0,1,0,4Zm-20,0h-10a2,2,0,0,1,0-4h10a2,2,0,0,1,0,4Zm-20,0h-10a2,2,0,0,1,0-4h10a2,2,0,0,1,0,4Zm-20,0h-10a2,2,0,0,1,0-4h10a2,2,0,0,1,0,4Z"/><path class="cls-3" d="M285.44,285.67H229.82a5.88,5.88,0,0,1-5.88-5.76l-5-244.08a5.88,5.88,0,0,1,6.3-6l60.64,4.38a5.88,5.88,0,0,1,5.45,5.87v239.7A5.88,5.88,0,0,1,285.44,285.67Z"/><g class="cls-128"><path class="cls-129" d="M232.6,129.33l1.2,28.91a5.13,5.13,0,0,0,5.06,4.92l38.85.54a5.13,5.13,0,0,0,5.2-5.13V129.68a5.13,5.13,0,0,0-5.06-5.13L237.79,124A5.12,5.12,0,0,0,232.6,129.33Z"/><path class="cls-130" d="M277.85,168.1l-38.24-.53a5.14,5.14,0,0,0-5.2,5.34l1.21,28.91a5.13,5.13,0,0,0,5,4.92l37,.52a5.13,5.13,0,0,0,5.2-5.13v-28.9A5.13,5.13,0,0,0,277.85,168.1Z"/><path class="cls-131" d="M282.91,71.47V49.71a5.13,5.13,0,0,0-4.47-5.09L234.84,39a5.13,5.13,0,0,0-5.79,5.3l1.12,26.83A5.12,5.12,0,0,0,235.22,76l42.49.6A5.13,5.13,0,0,0,282.91,71.47Z"/><path class="cls-132" d="M230.78,85.75l1.2,28.91a5.15,5.15,0,0,0,5.06,4.92l40.67.57a5.13,5.13,0,0,0,5.2-5.13V86.13A5.13,5.13,0,0,0,277.85,81L236,80.41A5.13,5.13,0,0,0,230.78,85.75Z"/><path class="cls-133" d="M236.23,216.49l.88,21a5.12,5.12,0,0,0,5.12,4.91h35.55a5.13,5.13,0,0,0,5.13-5.13V216.79a5.13,5.13,0,0,0-5.06-5.14l-36.42-.5A5.12,5.12,0,0,0,236.23,216.49Z"/></g><path class="cls-3" d="M289.52,282.45,237.64,302.5a5.87,5.87,0,0,1-7.56-3.25L137.44,73.38a5.88,5.88,0,0,1,3.72-7.86L199.3,47.75a5.88,5.88,0,0,1,7.2,3.5l86.39,223.6A5.88,5.88,0,0,1,289.52,282.45Z"/><g class="cls-134"><path class="cls-135" d="M183.88,155.67l11.55,26.53a5.12,5.12,0,0,0,6.49,2.76l36.43-13.49a5.14,5.14,0,0,0,3-6.66l-10.42-26.95a5.14,5.14,0,0,0-6.57-3l-37.56,13.92A5.13,5.13,0,0,0,183.88,155.67Z"/><path class="cls-136" d="M240.07,175.52,204.21,188.8a5.13,5.13,0,0,0-2.92,6.86l11.54,26.54a5.13,5.13,0,0,0,6.49,2.76l34.73-12.86a5.13,5.13,0,0,0,3-6.66l-10.41-27A5.14,5.14,0,0,0,240.07,175.52Z"/><path class="cls-137" d="M210,83.56l-7.84-20.3a5.13,5.13,0,0,0-6-3.14L153.4,70.55a5.14,5.14,0,0,0-3.49,7l10.72,24.63a5.11,5.11,0,0,0,6.48,2.76L207,90.22A5.13,5.13,0,0,0,210,83.56Z"/><path class="cls-138" d="M166.48,115.67,178,142.2a5.13,5.13,0,0,0,6.49,2.77l38.13-14.13a5.13,5.13,0,0,0,3-6.66L215.25,97.23a5.13,5.13,0,0,0-6.57-3l-39.27,14.54A5.14,5.14,0,0,0,166.48,115.67Z"/><path class="cls-139" d="M218.69,235.66l8.4,19.3a5.11,5.11,0,0,0,6.55,2.74l33.16-12.81a5.13,5.13,0,0,0,2.93-6.63l-7.39-19.15a5.13,5.13,0,0,0-6.57-3L221.61,228.8A5.13,5.13,0,0,0,218.69,235.66Z"/></g><path class="cls-3" d="M292.76,276.69l-35.54,42.78a5.88,5.88,0,0,1-8.19.85L58.08,168.21a5.88,5.88,0,0,1-.58-8.67l42.11-43.85a5.88,5.88,0,0,1,8-.45L292,268.4A5.89,5.89,0,0,1,292.76,276.69Z"/><g class="cls-134"><path class="cls-140" d="M138.74,217.44l23,17.55a5.14,5.14,0,0,0,7-.75L194,204.7a5.13,5.13,0,0,0-.62-7.28L171.15,179a5.14,5.14,0,0,0-7.18.61L138,210A5.12,5.12,0,0,0,138.74,217.44Z"/><path class="cls-141" d="M197.47,207.4l-24.84,29.07a5.14,5.14,0,0,0,.79,7.42l23,17.54a5.12,5.12,0,0,0,7-.74l24.06-28.16a5.13,5.13,0,0,0-.62-7.28l-22.23-18.46A5.14,5.14,0,0,0,197.47,207.4Z"/><path class="cls-142" d="M126.37,141.76l-16.73-13.9a5.13,5.13,0,0,0-6.78.19L70.64,158a5.13,5.13,0,0,0,.38,7.84l21.36,16.28a5.13,5.13,0,0,0,7-.75L127,149A5.13,5.13,0,0,0,126.37,141.76Z"/><path class="cls-143" d="M104.05,191l23,17.55a5.13,5.13,0,0,0,7-.75l26.43-30.92a5.12,5.12,0,0,0-.63-7.28l-22.22-18.46a5.14,5.14,0,0,0-7.18.61l-27.21,31.84A5.13,5.13,0,0,0,104.05,191Z"/><path class="cls-144" d="M208.1,270.34l16.74,12.76a5.13,5.13,0,0,0,7.06-.8L254.61,255a5.11,5.11,0,0,0-.66-7.22l-15.79-13.12a5.14,5.14,0,0,0-7.18.61l-23.67,27.69A5.14,5.14,0,0,0,208.1,270.34Z"/></g><path class="cls-145" d="M156.8,296.34l138.08-1.24a4.85,4.85,0,0,1,4.9,4.88l-.6,106a4.86,4.86,0,0,1-5,4.82c-25-.74-135.81-4-140.7-3.82S151.27,322,152,301A4.85,4.85,0,0,1,156.8,296.34Z"/><path class="cls-3" d="M294.33,407h0c-19.85-.59-119.79-3.56-138.11-3.82h-.42l-.07-.41c-1.73-9.78-1.7-49.65.09-101.59a1.06,1.06,0,0,1,1.05-1l138.08-1.24A1.08,1.08,0,0,1,296,300l-.61,106A1,1,0,0,1,294.33,407Zm-137.71-4.81c19.37.29,118,3.22,137.71,3.81h0L295,300l-138.15,1.18C155,352.36,155,391.78,156.62,402.16Z"/><path class="cls-146" d="M143,668.58c7.18.33,14.13.12,18.76-.11-4.22-3-14-9.55-22.09-12.15l-5.59-.34s-1.89,2.88-2.56,9.47C132.42,666.61,135.13,668.22,143,668.58Z"/><path class="cls-147" d="M161.8,668.51l-.06,0c-4.63.23-11.58.44-18.76.11-7.85-.36-10.56-2-11.48-3.13,0,.31-.07.61-.09.93a2.61,2.61,0,0,0,2.4,2.82c5.88.45,20.45,1.45,27.48,1.09A1,1,0,0,0,161.8,668.51Z"/><path class="cls-148" d="M91.66,666.66c-.53-3.37-1.37-8.24-2-9.48-1-2-4.52,0-4.52,0a9.25,9.25,0,0,0-3.58,3.05c-.72,1.22-2.72,4.68-4.07,7a1.58,1.58,0,0,0-.21.83l14,.49A2.76,2.76,0,0,0,91.66,666.66Z"/><path class="cls-149" d="M77.26,668.09a1.6,1.6,0,0,0,1.55,1.55l10,.28a2.8,2.8,0,0,0,2.47-1.34Z"/><path class="cls-150" d="M92.73,646c-.12.4-1.93,9.17-2.72,13a2.21,2.21,0,0,1-2.27,1.76c-.59,0-1.28-.08-2-.18a2.65,2.65,0,0,1-2.31-2.53c-.13-3.37-.19-9.84,1-12.35C86.18,642.24,92.73,646,92.73,646Z"/><path class="cls-151" d="M133,648.49c.77,0-.31,4,.86,8a2.06,2.06,0,0,0,1.87,1.61c.6,0,1.32,0,2-.07a2.24,2.24,0,0,0,2.07-2l1-10.28Z"/><path class="cls-152" d="M154.67,539.24c-.35,1.69-12.57,73-13.31,109.89a1.27,1.27,0,0,1-1.08,1.23,25,25,0,0,1-7.51-.05.9.9,0,0,1-.73-.81c-.42-6.88-3.86-65,.35-92.38,0,0-34.76,73.15-40,93.33a1.06,1.06,0,0,1-1.09.79,26.55,26.55,0,0,1-7-1.25,1.84,1.84,0,0,1-1.16-2.16c2.94-12.08,23.58-95.25,37.58-113.58Z"/><path class="cls-153" d="M132.39,557.57a.44.44,0,0,1-.32-.13.46.46,0,0,1,0-.64l4.66-4.76a.46.46,0,1,1,.65.64l-4.66,4.76A.42.42,0,0,1,132.39,557.57Z"/><path class="cls-154" d="M197.71,449.93a44.12,44.12,0,0,1-23.12.05c-10.17-2.66-30.22-7.08-43.88-4.62l-1.13,35.73,46.68,5.33.41-9.48s28.38-4.1,43.73-22.76a75.59,75.59,0,0,1-8.57-11.62A36.78,36.78,0,0,1,197.71,449.93Z"/><path class="cls-155" d="M228.65,414.72l-3.6-1.58s.17,18-13.22,29.42a75.59,75.59,0,0,0,8.57,11.62C228,445,232.37,432.25,228.65,414.72Z"/><path class="cls-156" d="M153.06,425.51s-2.71,16.17-3.07,21.25c0,0,13.09,3.61,16.5,1.68l-.42-19.56Z"/><path class="cls-157" d="M85,474l94.56-.77a4.74,4.74,0,0,1,4.77,4.77l-.49,63.7a4.73,4.73,0,0,1-4.87,4.69l-93.32-3.42A4.74,4.74,0,0,1,81,538.26l-.76-59.5A4.73,4.73,0,0,1,85,474Z"/><path class="cls-3" d="M179.09,542.57l-93.35-3.43a.94.94,0,0,1-.91-.92l-.76-59.5a.92.92,0,0,1,.27-.67.93.93,0,0,1,.66-.29l94.57-.77a.94.94,0,0,1,.94.95l-.48,63.7A1,1,0,0,1,179.09,542.57Zm-93.26-4.42,93.2,3.42.48-63.64-94.5.83Z"/><path class="cls-3" d="M153.66,537.4a2.37,2.37,0,0,1-1.84-.86l-2.46-2.92a23.37,23.37,0,0,1-5.35-.14l-2.61,2.8a2.39,2.39,0,0,1-2.73.56l-5.37-2.38a2.4,2.4,0,0,1-1.42-2.4l.33-3.82a23.3,23.3,0,0,1-3.69-3.87l-3.82.14a2.43,2.43,0,0,1-2.33-1.55l-2.11-5.48a2.39,2.39,0,0,1,.69-2.69l2.93-2.47A23.27,23.27,0,0,1,124,507l-2.81-2.61a2.4,2.4,0,0,1-.55-2.74l2.38-5.37a2.41,2.41,0,0,1,2.4-1.42l3.82.33a22.92,22.92,0,0,1,3.87-3.69l-.14-3.82a2.41,2.41,0,0,1,1.54-2.33l5.48-2.11a2.4,2.4,0,0,1,2.7.69l2.47,2.93a23.27,23.27,0,0,1,5.34.14l2.61-2.8a2.41,2.41,0,0,1,2.73-.57l5.38,2.39a2.42,2.42,0,0,1,1.42,2.4l-.33,3.82a23.24,23.24,0,0,1,3.68,3.87l3.83-.14a2.36,2.36,0,0,1,2.32,1.54l2.12,5.49a2.42,2.42,0,0,1-.7,2.7l-2.92,2.46a23.27,23.27,0,0,1-.14,5.34l2.8,2.61a2.41,2.41,0,0,1,.56,2.73l-2.38,5.38a2.43,2.43,0,0,1-2.41,1.42l-3.81-.33a23.22,23.22,0,0,1-3.87,3.68l.13,3.83a2.39,2.39,0,0,1-1.52,2.32l-5.5,2.12A2.34,2.34,0,0,1,153.66,537.4Zm-2.64-8,3.13,3.72,3.36-1.3-.18-4.86.92-.62a19.59,19.59,0,0,0,4.54-4.32l.66-.88,4.85.41,1.46-3.29-3.56-3.31.21-1.09a19.63,19.63,0,0,0,.16-6.26l-.15-1.1,3.71-3.13L168.84,500l-4.86.17-.62-.91a19.4,19.4,0,0,0-4.32-4.54l-.88-.67.41-4.84-3.29-1.46L152,491.3l-1.09-.21a19.4,19.4,0,0,0-6.27-.16l-1.09.15-3.13-3.72-3.36,1.3.17,4.86-.91.62a19.21,19.21,0,0,0-4.54,4.32l-.67.88-4.85-.42-1.46,3.3,3.56,3.31-.2,1.09a19.07,19.07,0,0,0-.16,6.26l.15,1.1-3.72,3.13,1.3,3.36,4.85-.17.63.91a19,19,0,0,0,4.32,4.54l.88.66-.42,4.85,3.29,1.46,3.32-3.56,1.08.21a19.42,19.42,0,0,0,6.27.16Zm-3.85-3A16.2,16.2,0,0,1,132.05,516a16.18,16.18,0,1,1,30.2-11.64,16.25,16.25,0,0,1,.9,3.33,2,2,0,0,1-4,.62,12.25,12.25,0,0,0-.67-2.51,12.18,12.18,0,1,0-7,15.75,12.23,12.23,0,0,0,5.22-3.86,2,2,0,0,1,3.15,2.46,16.18,16.18,0,0,1-12.73,6.21Z"/><path class="cls-3" d="M147.28,517.45a7.22,7.22,0,1,1,5.89-11.39h0a7.25,7.25,0,0,1-1.74,10.07A7.17,7.17,0,0,1,147.28,517.45Zm0-10.44a3.18,3.18,0,0,0-1.85.59,3.22,3.22,0,1,0,4.49.77h0a3.19,3.19,0,0,0-2.09-1.31A2.56,2.56,0,0,0,147.26,507Z"/><path class="cls-3" d="M103.83,510.65h-.21l-2.81-.35A1.69,1.69,0,0,1,99.36,509L99,507.43a11.37,11.37,0,0,1-1.86-1.05l-1.48.51a1.68,1.68,0,0,1-1.88-.56l-1.74-2.23a1.68,1.68,0,0,1-.08-2l.85-1.31a12.34,12.34,0,0,1-.57-2.06l-1.4-.69a1.69,1.69,0,0,1-.94-1.73l.35-2.8a1.69,1.69,0,0,1,1.34-1.45l1.52-.32a11.37,11.37,0,0,1,1-1.86l-.51-1.48a1.69,1.69,0,0,1,.56-1.88l2.23-1.74a1.68,1.68,0,0,1,2-.09l1.31.85a11.42,11.42,0,0,1,2.06-.56l.69-1.41a1.68,1.68,0,0,1,1.72-.93L107,483a1.7,1.7,0,0,1,1.45,1.33l.33,1.53a12.43,12.43,0,0,1,1.85,1.05l1.48-.5A1.7,1.7,0,0,1,114,487l1.73,2.23a1.68,1.68,0,0,1,.08,2l-.84,1.3a11.2,11.2,0,0,1,.56,2.06l1.41.68a1.7,1.7,0,0,1,.93,1.74l-.34,2.8a1.71,1.71,0,0,1-1.33,1.45l-1.53.32a13.07,13.07,0,0,1-1,1.86l.5,1.48a1.69,1.69,0,0,1-.55,1.88l-2.23,1.74a1.72,1.72,0,0,1-2,.09l-1.31-.86a12.08,12.08,0,0,1-2.06.57l-.68,1.4A1.69,1.69,0,0,1,103.83,510.65Zm-1.73-3.22,1,.12,1-2,.82-.09a8.86,8.86,0,0,0,2.74-.76l.76-.35,1.88,1.23L111,505l-.73-2.13.52-.65a8.62,8.62,0,0,0,1.4-2.47l.29-.78,2.2-.46.12-1-2-1-.09-.83a8.61,8.61,0,0,0-.76-2.73l-.34-.75,1.22-1.89-.59-.76-2.13.73-.64-.52a8.81,8.81,0,0,0-2.48-1.4l-.77-.29-.47-2.2-1-.12-1,2-.82.09a8.74,8.74,0,0,0-2.74.76l-.75.34-1.89-1.22-.76.59.73,2.13-.52.64a8.81,8.81,0,0,0-1.4,2.48l-.29.77-2.2.47-.12,1,2,1,.08.82a8.94,8.94,0,0,0,.76,2.74l.35.75L95,503l.59.76,2.13-.73.65.52a8.62,8.62,0,0,0,2.47,1.4l.78.29Zm1.77-2.45a8.32,8.32,0,1,1,1-16.58,8.2,8.2,0,0,1,5.54,3.14,8.37,8.37,0,0,1,.94,1.5,1.5,1.5,0,0,1-2.7,1.31,5.4,5.4,0,0,0-.6-1,5.31,5.31,0,0,0-7.47-.92,5.31,5.31,0,0,0-.92,7.47,5.33,5.33,0,0,0,9.16-1.35,1.5,1.5,0,0,1,1.94-.86,1.51,1.51,0,0,1,.86,1.94,8.42,8.42,0,0,1-2.65,3.56A8.31,8.31,0,0,1,103.87,505Z"/><path class="cls-158" d="M142.17,464.64l-11.46-19.28s-24,20.52-31.19,49.06l12.7,8C117.43,493.09,126.51,480.7,142.17,464.64Z"/><path class="cls-159" d="M117.37,544.1c-1.45,0-2.58-.22-3.19-1.54-1.18-2.54-3.16-6.69-4.49-8.8a.67.67,0,0,1,.46-1,7.74,7.74,0,0,1,3.09.16c2.12.49,4-.13,4.64-1.16a.69.69,0,0,0-.32-1l-11.32-4.85a.69.69,0,0,1-.39-.43c-.52-1.84-1.54-8.7,6.05-22.48a.69.69,0,0,0-.23-.92l-11.35-7.13a.68.68,0,0,0-1,.42,60.56,60.56,0,0,0,1.23,33.79.29.29,0,0,1,0,.09c.15.81,2.54,14,7.24,16.72s12.36-1.75,12.36-1.75Z"/><path class="cls-160" d="M167.77,410.61s4.35,10,4.64,15.23,1.42,8.65-4.64,9.71-11.17-2-13.94-7.19c0,0-4.34-8.05-3.37-11.35S167.77,410.61,167.77,410.61Z"/><path class="cls-161" d="M155.9,424.6h.77s-3.16-6.48-.39-7.61,13.77-3.38,16.15-7.29c2.28-3.76.24-8.62-2.81-10a.4.4,0,0,0-.52.19l-.25.48a.42.42,0,0,1-.76-.08h0a.41.41,0,0,0-.74-.12c-.72,1.17-2.69,3.07-8,4-7.49,1.38-12.43,4.41-12.56,9.58a.41.41,0,0,1-.63.34c-.56-.34-1.44-.49-2.62.5-2.06,1.73-1.22,6.21,3.29,9.89a.41.41,0,0,1,0,.66c-.82.54-2,1.8,1.12,3.49s5.14,1.53,5.86,1.35a.42.42,0,0,0,.31-.43l-.28-4.58a.41.41,0,0,1,.41-.44Z"/><path class="cls-162" d="M156.09,425.56s-1.66-6.38-4.52-4.59,1.48,7.15,3.78,7.39Z"/><path class="cls-163" d="M215.11,399.73V407s5.88,7.48,13.54,7.77c0,0,6.74-.44,6.51-5.43l-10.78-2.06a51.47,51.47,0,0,1-5.79-2S217.66,400,215.11,399.73Z"/><path class="cls-3" d="M173.47,393.15H264a3.65,3.65,0,0,0,3.14-5.5l-35.83-60.91a3.65,3.65,0,0,0-6.46.33L207.53,365a3.64,3.64,0,0,1-5.78,1.18l-7-6.42a3.64,3.64,0,0,0-5.45.61l-18.83,27.07A3.65,3.65,0,0,0,173.47,393.15Z"/><circle class="cls-3" cx="262.75" cy="324.9" r="13.01"/><g class="cls-164"><path class="cls-165" d="M687.57,142.56a27.11,27.11,0,0,1,16.6,5.64l9.73-13.77a43.38,43.38,0,0,0-25.41-8.18c-1.25,0-2.51.07-3.76.18l2.49,16.14Z"/><path class="cls-166" d="M687.57,197.14c-15.07,0-30.38-11.23-30.38-26.3s15.08-28.07,30-28.27l-2.49-16.14c-22.8,2-44.78,22.18-44.78,45,0,24.08,24.46,42,48.54,42a43.46,43.46,0,0,0,17.72-3.77l-9.8-14A27.24,27.24,0,0,1,687.57,197.14Z"/><path class="cls-167" d="M732.09,169.85a43.54,43.54,0,0,0-18.19-35.42l-9.73,13.77a27.27,27.27,0,0,1-7.76,47.46l9.8,14A43.59,43.59,0,0,0,732.09,169.85Z"/></g><g class="cls-164"><path class="cls-168" d="M812,142.56a27.29,27.29,0,0,1,24.43,15.14l11.24-14.17a43.51,43.51,0,0,0-34.75-17.28c-11.14,0-22.35,4.52-31.19,11.75l10,12.58A31.67,31.67,0,0,1,812,142.56Z"/><path class="cls-169" d="M781.61,170.84c0-7.77,4.07-15,10.07-20.26l-10-12.58c-10.27,8.41-17.35,20.49-17.35,33.43,0,23.77,23.85,41.55,47.63,42l-.77-16.3C796.41,196.75,781.61,185.66,781.61,170.84Z"/><path class="cls-170" d="M812,197.14l-.76,0,.77,16.3c.3,0,.6,0,.91,0a43.59,43.59,0,0,0,38.79-23.71c-4.17-1.89-10.36-4.58-15.71-6.89A27.29,27.29,0,0,1,812,197.14Z"/><path class="cls-171" d="M847.66,143.53,836.42,157.7a27.36,27.36,0,0,1-.43,25.15c5.35,2.31,11.54,5,15.71,6.89a43.55,43.55,0,0,0-4-46.21Z"/></g><g class="cls-164"><path class="cls-172" d="M936.4,142.56a27.13,27.13,0,0,1,15.65,4.94l8.79-14.35a43.33,43.33,0,0,0-23.51-6.9c-11.52,0-23.12,4.84-32.09,12.51L915.68,151A31.71,31.71,0,0,1,936.4,142.56Z"/><path class="cls-173" d="M963.64,168.28l17-3.43a43.56,43.56,0,0,0-19.79-31.7l-8.79,14.35A27.2,27.2,0,0,1,963.64,168.28Z"/><path class="cls-174" d="M906,170.84c0-7.59,3.88-14.7,9.66-19.89l-10.44-12.19c-9.79,8.37-16.45,20.11-16.45,32.67,0,15.6,10.27,28.62,24.05,35.85l8.52-13.85C912.59,188.94,906,180.71,906,170.84Z"/><path class="cls-175" d="M963.64,168.28c0,.52.05,1,.05,1.57a27.29,27.29,0,0,1-27.29,27.29,33.27,33.27,0,0,1-15-3.71l-8.52,13.85a53.22,53.22,0,0,0,24.49,6.17,43.58,43.58,0,0,0,43.3-48.6Z"/></g><g class="cls-176"><path class="cls-177" d="M725,22.79l-162.9-.91a8.56,8.56,0,0,0-7.38,13l.82,1.36a8.57,8.57,0,0,0,7.33,4.15H724.94a8.55,8.55,0,0,0,8.55-8.55v-.46A8.56,8.56,0,0,0,725,22.79Z"/><path class="cls-178" d="M747.74,31.53v.27a8.55,8.55,0,0,0,8.55,8.55h36.16A8.55,8.55,0,0,0,800.71,34h0a8.54,8.54,0,0,0-8.2-10.75L756.35,23A8.56,8.56,0,0,0,747.74,31.53Z"/></g><g class="cls-176"><path class="cls-179" d="M685.8,53.49l-123.72-.91a8.55,8.55,0,0,0-7.38,13l.82,1.36A8.55,8.55,0,0,0,562.85,71h122.9a8.55,8.55,0,0,0,8.55-8.55V62A8.54,8.54,0,0,0,685.8,53.49Z"/><path class="cls-180" d="M708.55,62.23v.26A8.55,8.55,0,0,0,717.1,71h36.17a8.55,8.55,0,0,0,8.26-6.34h0a8.56,8.56,0,0,0-8.2-10.76l-36.16-.26A8.55,8.55,0,0,0,708.55,62.23Z"/></g><g class="cls-181"><path class="cls-3" d="M485.08,104.6a2.62,2.62,0,0,0-1.82.73l-36,34.07a16.74,16.74,0,0,1-11.53,4.6H313.32a2.65,2.65,0,1,0,0,5.29H435.76a22,22,0,0,0,15.17-6l36-34.08a2.64,2.64,0,0,0,.11-3.74A2.68,2.68,0,0,0,485.08,104.6Z"/><path class="cls-3" d="M417,160.43H313.32a2.65,2.65,0,1,0,0,5.29H417a2.65,2.65,0,1,0,0-5.29Z"/><path class="cls-3" d="M400.09,176.86H313.32a2.65,2.65,0,1,0,0,5.3h86.77a2.65,2.65,0,1,0,0-5.3Z"/></g></svg>