<svg id="illustration" xmlns="http://www.w3.org/2000/svg" xmlns:xlink="http://www.w3.org/1999/xlink" viewBox="0 0 994.61 583.34"><defs><style>.cls-1{opacity:0.7;}.cls-2{opacity:0.3;fill:url(#linear-gradient);}.cls-13,.cls-3{opacity:0.2;}.cls-3{fill:url(#linear-gradient-2);}.cls-4{fill:url(#linear-gradient-3);}.cls-5{fill:#6030dc;}.cls-6{fill:url(#linear-gradient-4);}.cls-13,.cls-14,.cls-15,.cls-17,.cls-7{fill:#fff;}.cls-7{opacity:0.5;}.cls-8{fill:url(#linear-gradient-5);}.cls-9{fill:url(#linear-gradient-6);}.cls-10{fill:#1f5aa9;}.cls-11{fill:url(#linear-gradient-7);}.cls-12{fill:#4838da;}.cls-14{opacity:0.53;}.cls-15{opacity:0.57;}.cls-16{fill:url(#linear-gradient-8);}.cls-18{fill:url(#linear-gradient-9);}.cls-19{fill:url(#linear-gradient-10);}.cls-20{fill:url(#linear-gradient-11);}.cls-21{fill:url(#linear-gradient-12);}.cls-22{fill:url(#linear-gradient-13);}.cls-23{fill:url(#linear-gradient-14);}.cls-24{fill:url(#linear-gradient-15);}.cls-25{fill:url(#linear-gradient-16);}.cls-26{fill:url(#linear-gradient-17);}.cls-27{fill:url(#linear-gradient-18);}.cls-28{fill:url(#linear-gradient-19);}.cls-29{fill:#eda150;}.cls-30{fill:url(#linear-gradient-20);}.cls-31{fill:url(#linear-gradient-21);}.cls-32{fill:url(#linear-gradient-22);}.cls-33{fill:url(#linear-gradient-23);}.cls-34{fill:url(#linear-gradient-24);}.cls-35{fill:url(#linear-gradient-25);}.cls-36{fill:url(#linear-gradient-26);}.cls-37{fill:url(#linear-gradient-27);}.cls-38{fill:url(#linear-gradient-28);}.cls-39{fill:url(#linear-gradient-29);}.cls-40{fill:url(#linear-gradient-30);}.cls-41{fill:url(#linear-gradient-31);}.cls-42{fill:url(#linear-gradient-32);}.cls-43{fill:url(#linear-gradient-33);}.cls-44{fill:url(#linear-gradient-34);}</style><linearGradient id="linear-gradient" x1="345.91" y1="655.74" x2="700.93" y2="-25.96" gradientUnits="userSpaceOnUse"><stop offset="0" stop-color="#a737d5"/><stop offset="1" stop-color="#ef497a"/></linearGradient><linearGradient id="linear-gradient-2" x1="348.63" y1="647.15" x2="694" y2="-16.02" xlink:href="#linear-gradient"/><linearGradient id="linear-gradient-3" x1="634.16" y1="366.8" x2="883.36" y2="112.65" gradientTransform="translate(151.29 -69.69) rotate(6.71)" xlink:href="#linear-gradient"/><linearGradient id="linear-gradient-4" x1="931.03" y1="404.18" x2="747.03" y2="555.19" gradientUnits="userSpaceOnUse"><stop offset="0" stop-color="#53d8ff"/><stop offset="1" stop-color="#3840f7"/></linearGradient><linearGradient id="linear-gradient-5" x1="1168.48" y1="417.16" x2="999.68" y2="555.68" gradientTransform="matrix(-1, 0.07, 0.07, 1, 1229.08, -73.73)" xlink:href="#linear-gradient-4"/><linearGradient id="linear-gradient-6" x1="207.48" y1="370.13" x2="385.41" y2="370.13" gradientTransform="translate(-150.83 24.83) rotate(-7.87)" xlink:href="#linear-gradient-4"/><linearGradient id="linear-gradient-7" x1="38.88" y1="422.39" x2="257.45" y2="422.39" xlink:href="#linear-gradient"/><linearGradient id="linear-gradient-8" x1="659.36" y1="89.96" x2="278.92" y2="595.06" xlink:href="#linear-gradient-4"/><linearGradient id="linear-gradient-9" x1="659.36" y1="89.96" x2="278.93" y2="595.06" gradientTransform="translate(351.81 -278.57) rotate(45)" xlink:href="#linear-gradient-4"/><linearGradient id="linear-gradient-10" x1="659.36" y1="89.96" x2="278.93" y2="595.06" gradientTransform="translate(670.76 -279.07) rotate(76.57)" xlink:href="#linear-gradient-4"/><linearGradient id="linear-gradient-11" x1="-1535.84" y1="2543.24" x2="-1603.7" y2="2818.92" gradientTransform="translate(2304.35 -2626.76)" gradientUnits="userSpaceOnUse"><stop offset="0" stop-color="#2b3582"/><stop offset="1" stop-color="#150e42"/></linearGradient><linearGradient id="linear-gradient-12" x1="-1593.7" y1="2601.19" x2="-1614.44" y2="2823.63" gradientTransform="matrix(-0.51, -0.86, 0.86, -0.51, -2514.18, 229.84)" gradientUnits="userSpaceOnUse"><stop offset="0" stop-color="#fdf53f"/><stop offset="1" stop-color="#d93c65"/></linearGradient><linearGradient id="linear-gradient-13" x1="-1611.6" y1="2906.61" x2="-1639.88" y2="3209.88" xlink:href="#linear-gradient-12"/><linearGradient id="linear-gradient-14" x1="-437.37" y1="2906.61" x2="-465.64" y2="3209.88" gradientTransform="matrix(0.51, 0.86, 0.86, -0.51, -1478.21, 1966.4)" xlink:href="#linear-gradient-12"/><linearGradient id="linear-gradient-15" x1="470.14" y1="428.38" x2="589.06" y2="428.38" gradientUnits="userSpaceOnUse"><stop offset="0" stop-color="#f9b776"/><stop offset="1" stop-color="#f47960"/></linearGradient><linearGradient id="linear-gradient-16" x1="630.48" y1="335.02" x2="637.47" y2="513.62" xlink:href="#linear-gradient-4"/><linearGradient id="linear-gradient-17" x1="398.39" y1="276.47" x2="66.62" y2="714.06" gradientTransform="matrix(1, 0, 0, 1, 0, 0)" xlink:href="#linear-gradient-12"/><linearGradient id="linear-gradient-18" x1="303.02" y1="343.44" x2="327.81" y2="275.74" xlink:href="#linear-gradient-15"/><linearGradient id="linear-gradient-19" x1="422.74" y1="431.04" x2="336.3" y2="494.6" xlink:href="#linear-gradient-15"/><linearGradient id="linear-gradient-20" x1="358.1" y1="247.23" x2="285.41" y2="302.85" xlink:href="#linear-gradient-15"/><linearGradient id="linear-gradient-21" x1="306.93" y1="203.2" x2="374.63" y2="290.35" gradientTransform="matrix(1, 0, 0, 1, 0, 0)" xlink:href="#linear-gradient-11"/><linearGradient id="linear-gradient-22" x1="349.08" y1="235.45" x2="276.4" y2="291.07" xlink:href="#linear-gradient-15"/><linearGradient id="linear-gradient-23" x1="467.99" y1="458.45" x2="497.3" y2="458.45" xlink:href="#linear-gradient-15"/><linearGradient id="linear-gradient-24" x1="685.31" y1="399.53" x2="948.96" y2="539.89" xlink:href="#linear-gradient-4"/><linearGradient id="linear-gradient-25" x1="736.21" y1="309.45" x2="717.14" y2="252.24" xlink:href="#linear-gradient-15"/><linearGradient id="linear-gradient-26" x1="732.11" y1="476.32" x2="932.64" y2="476.32" gradientUnits="userSpaceOnUse"><stop offset="0" stop-color="#9cfffb"/><stop offset="1" stop-color="#9bfffa"/></linearGradient><linearGradient id="linear-gradient-27" x1="741.47" y1="474.78" x2="932.83" y2="474.78" xlink:href="#linear-gradient-26"/><linearGradient id="linear-gradient-28" x1="840.16" y1="455.77" x2="880.84" y2="638.18" gradientTransform="matrix(1, 0, 0, 1, 0, 0)" xlink:href="#linear-gradient-12"/><linearGradient id="linear-gradient-29" x1="719.41" y1="335.93" x2="984.45" y2="477.04" xlink:href="#linear-gradient-4"/><linearGradient id="linear-gradient-30" x1="765.8" y1="393.85" x2="847.23" y2="437.21" xlink:href="#linear-gradient-4"/><linearGradient id="linear-gradient-31" x1="851.98" y1="476.07" x2="790.01" y2="595.25" xlink:href="#linear-gradient-15"/><linearGradient id="linear-gradient-32" x1="2691.64" y1="3430.88" x2="2623.1" y2="3521.55" gradientTransform="matrix(-0.69, -0.73, -0.73, 0.69, 5064.07, -164.46)" xlink:href="#linear-gradient-15"/><linearGradient id="linear-gradient-33" x1="2639.3" y1="3452.65" x2="2721.17" y2="3452.65" gradientTransform="matrix(-0.69, -0.73, -0.73, 0.69, 5064.07, -164.46)" xlink:href="#linear-gradient-11"/><linearGradient id="linear-gradient-34" x1="2591.26" y1="3502.68" x2="2646.23" y2="3446.28" gradientTransform="matrix(-0.69, -0.73, -0.73, 0.69, 5064.07, -164.46)" xlink:href="#linear-gradient-15"/></defs><title>partner-with-merge-creative-2</title><g class="cls-1"><path class="cls-2" d="M974.8,383.76c-16-17.44-39.85-27.69-57.21-44.06-28.05-26.44-35.87-65.54-34.74-102.06s9.81-72.7,9.17-109.23S879.51,53,847.89,30c-34-24.69-83.55-25.14-124.83-12.2s-76.7,37.26-112.78,59.45c-18.89,11.62-41.38,23.25-63.41,17.64-21.71-5.53-34-25.43-46-42.59-14.06-20-32.47-39.12-57.47-46.6C394.05-9,387.86,7.86,385.5,21.27c-3.53,20.09-8.82,34.62-26.72,41s-38.38,3.58-56.42-2.51S267.75,44.54,250,37.91c-28.47-10.58-60.86-14.39-90.33-6.34s-55.27,29.14-62.56,56c-12.2,45,27.12,93.56,8.78,136.83C93.19,254.29,57.71,270.19,33.9,293.9-12,339.59-9,414.18,29.2,465.26S133.63,546,200.83,557.94s136.43,8.14,204.84,5.24c107.51-4.57,215.2-6.89,322.78-4,44.48,1.21,89.45,3.28,133.12-4.46s86.74-26.57,112.33-59.31S1003.14,414.6,974.8,383.76Z"/><path class="cls-3" d="M960.41,382.56c-15.59-17-38.76-26.94-55.65-42.86C877.47,314,869.87,275.94,871,240.41s9.55-70.72,8.93-106.26S867.72,60.77,837,38.44c-33.09-24-81.28-24.46-121.44-11.87S640.91,62.82,605.8,84.41c-18.37,11.3-40.25,22.61-61.67,17.16C523,96.19,511.08,76.82,499.36,60.13c-13.68-19.48-31.59-38.05-55.91-45.32-48-14.36-54,2.08-56.31,15.12-3.43,19.54-8.57,33.67-26,39.92s-37.34,3.49-54.88-2.44-33.67-14.85-51-21.29c-27.69-10.3-59.19-14-87.87-6.17s-53.76,28.34-60.86,54.52c-11.86,43.77,26.39,91,8.55,133.11-12.31,29-46.82,44.5-70,67.57-44.65,44.45-41.75,117-4.56,166.7s101.58,78.57,167,90.15,132.72,7.92,199.28,5.1c104.58-4.44,209.34-6.7,314-3.86,43.28,1.17,87,3.19,129.5-4.34s84.39-25.85,109.28-57.69S988,412.56,960.41,382.56Z"/></g><path class="cls-4" d="M789,433.18a1.33,1.33,0,0,1-2.57-.69c7.86-32.09,5.91-18.14,12.49-45.47,16.46-68.35-.77-101-2-137.22s26.54-78.51,85.1-56.88c47.82,17.67,85.54,30.32,104,29.83a4.37,4.37,0,0,1,3.74,6.79C976.79,249,943,292.46,898.07,291c-57.85-1.95-56.8-17.73-70.66-3.94s-15,28.79-17.35,56.89C808,368.1,807.88,369.92,789,433.18Z"/><path class="cls-5" d="M807.67,320.47A114.26,114.26,0,0,1,805,307a120.75,120.75,0,0,1-1.18-13.7,86.66,86.66,0,0,1,3.31-27.4,57.87,57.87,0,0,1,5.65-12.79,47.54,47.54,0,0,1,8.9-10.89,52.6,52.6,0,0,1,11.66-7.78c2.07-1,4.12-2,6.25-2.85s4.24-1.73,6.39-2.54a102.75,102.75,0,0,1,13.26-3.75,84.12,84.12,0,0,1,13.7-1.62,88.83,88.83,0,0,1,13.75.62c4.55.54,9,1.39,13.47,2.34,8.87,1.94,17.57,4.23,26.4,5.74A116.42,116.42,0,0,0,953.28,234h0a.78.78,0,0,1,.81.73.77.77,0,0,1-.71.8,118,118,0,0,1-27.21-.95c-9-1.29-17.81-3.48-26.62-5.2s-17.67-2.9-26.51-2.46a81.66,81.66,0,0,0-13.13,1.72,99.31,99.31,0,0,0-12.72,3.79c-2.07.81-4.14,1.6-6.16,2.53s-4,1.88-6,2.86a49,49,0,0,0-10.75,7.25A48.25,48.25,0,0,0,811,267a83,83,0,0,0-3.2,26.12,128.57,128.57,0,0,0,1,13.28,109.87,109.87,0,0,0,2.44,13v.07a1.84,1.84,0,0,1-3.56.93Z"/><path class="cls-6" d="M759.74,531.93s62.78,37.76,97.4-2.1c32.18-37.06,29.42-74.78,65.11-85.32a5.68,5.68,0,0,0,2.38-9.46c-12-12.09-41.13-32.57-88.08-13.6C772.85,447.19,759.74,531.93,759.74,531.93Z"/><path class="cls-7" d="M764.25,528.52a28.59,28.59,0,0,0,5.14-1.38,45.05,45.05,0,0,0,5-2.07,75,75,0,0,0,9.36-5.4,120.93,120.93,0,0,0,16.73-13.76c10.38-10.12,19.31-21.66,27.79-33.58,4.27-5.94,8.47-12,13-17.8s9.63-11.42,15.84-15.75a41.4,41.4,0,0,1,10.06-5.15,40,40,0,0,1,11.06-2.11,67.64,67.64,0,0,1,22,3,.47.47,0,0,1,.33.6.48.48,0,0,1-.56.34h0c-7.12-1.54-14.4-2.6-21.57-1.9a41.79,41.79,0,0,0-10.4,2.37,38.32,38.32,0,0,0-9.31,5.09c-5.76,4.22-10.46,9.78-14.85,15.54s-8.48,11.86-12.72,17.86-8.59,12-13.21,17.73c-1.17,1.42-2.39,2.82-3.59,4.23s-2.38,2.83-3.67,4.16l-3.8,4.06-4,3.86A106.85,106.85,0,0,1,785.19,522a63.78,63.78,0,0,1-10,5,36.6,36.6,0,0,1-10.89,2.78.62.62,0,0,1-.14-1.24Z"/><path class="cls-8" d="M254.6,525.22s-55.23,38.32-89.29,3.89c-31.67-32-31.4-66.69-64.7-74.21a5.23,5.23,0,0,1-2.74-8.53c10.31-11.78,35.72-32.26,79.83-17.7C237.55,448.44,254.6,525.22,254.6,525.22Z"/><path class="cls-7" d="M250.28,523.57a33.34,33.34,0,0,1-10.17-1.86,59.49,59.49,0,0,1-9.46-4,97.88,97.88,0,0,1-17-11.37l-3.91-3.29L206,499.59c-1.27-1.14-2.44-2.38-3.62-3.59s-2.38-2.43-3.54-3.67c-4.58-5-8.93-10.19-13.15-15.45s-8.33-10.57-12.7-15.59-9-9.82-14.48-13.34a35.45,35.45,0,0,0-8.8-4.1,38,38,0,0,0-9.63-1.56c-6.59-.22-13.19,1.17-19.62,3h0a.48.48,0,0,1-.59-.34.47.47,0,0,1,.3-.58,61.89,61.89,0,0,1,19.94-4.07,37,37,0,0,1,10.28,1.26,38,38,0,0,1,9.55,4.12c6,3.59,10.94,8.45,15.48,13.48s8.75,10.33,13,15.51c8.48,10.4,17.33,20.42,27.42,29.07A113.46,113.46,0,0,0,232,515.34a70.35,70.35,0,0,0,8.87,4.4,43.65,43.65,0,0,0,4.67,1.61,26.4,26.4,0,0,0,4.77,1h.07a.62.62,0,0,1-.05,1.24Z"/><path class="cls-9" d="M306.28,519.94c5.18,3-46.29-70.94-56.8-182.54-5-52.59-.92-117.83-29-144.85-23.36-22.49-108.19-14.61-136-11.34a4.13,4.13,0,0,0-2.37,7.09c12.48,11.91,39,39.81,44.69,66.58,7.48,35.3,39.05,59.45,68.19,67.3s45.19,14.68,56.58,62.8S291.57,511.53,306.28,519.94Z"/><path class="cls-10" d="M122.22,198.4a133.87,133.87,0,0,1,50.51,16.16,104.8,104.8,0,0,1,21.6,15.89,90.73,90.73,0,0,1,16.47,21.29l1.62,3c.53,1,1,2,1.45,3s1,2,1.4,3.06l1.28,3.05c1.71,4.07,3.41,8.15,5.06,12.24q5,12.27,9.57,24.69c6.12,16.57,11.71,33.32,16.26,50.41a.84.84,0,0,1-1.61.49v0q-4.14-12.5-8.75-24.88t-9.38-24.66l-4.87-12.26-5-12.21q-2.49-6.11-5.08-12.17l-1.29-3c-.43-1-.9-2-1.35-2.95s-.87-2-1.38-2.91l-1.52-2.85a90.35,90.35,0,0,0-15.59-20.5,100.33,100.33,0,0,0-9.81-8.47l-1.28-1-1.33-.94c-.88-.62-1.75-1.27-2.65-1.88-1.82-1.18-3.62-2.39-5.5-3.48a133.64,133.64,0,0,0-23.64-11.06,139.7,139.7,0,0,0-25.32-6.67h0a.68.68,0,0,1,.18-1.34Z"/><path class="cls-11" d="M257.12,528.45c3.18,1.68-17.9-34.6-19.52-66.57s-8.82-86.52-36.39-119.16-57.75-35.61-95.79-5.94C73.72,361.5,54,374,42.36,376.3a4.38,4.38,0,0,0-2.94,6.39c7.43,13.69,28.46,45.15,63.77,42.94,45-2.83,99.61-32.1,116.24-7.68s14.5,38.09,15,49.66S236.09,517.36,257.12,528.45Z"/><path class="cls-12" d="M118.26,376a90.94,90.94,0,0,1,7.84-6.6,102,102,0,0,1,8.44-5.83,84.28,84.28,0,0,1,18.67-8.83,59.71,59.71,0,0,1,10.23-2.31,44,44,0,0,1,10.63,0c.88.14,1.77.23,2.65.42s1.77.38,2.61.62l5,1.54,4.87,1.9,4.72,2.26A59.65,59.65,0,0,1,210.34,372a73.64,73.64,0,0,1,11.36,17.33l1.13,2.32c.39.76.67,1.58,1,2.36.64,1.6,1.33,3.17,1.92,4.77l1.67,4.85c.59,1.61,1,3.28,1.44,4.92a177.61,177.61,0,0,1,4.26,19.93.76.76,0,0,1-.62.87.77.77,0,0,1-.85-.56v0c-1.61-6.54-3.15-13.1-5.34-19.44-1-3.2-2.26-6.3-3.43-9.42-.63-1.54-1.34-3.05-2-4.57-.35-.76-.65-1.54-1-2.26l-1.16-2.21a75.51,75.51,0,0,0-11.25-16.18,57.7,57.7,0,0,0-15.49-11.81l-4.43-2.1-4.59-1.75-4.72-1.44c-.78-.22-1.54-.36-2.32-.55s-1.56-.26-2.34-.4a39.53,39.53,0,0,0-9.6,0,54.55,54.55,0,0,0-9.56,1.93,92.31,92.31,0,0,0-18.25,7.73c-2.92,1.62-5.81,3.3-8.62,5.12s-5.57,3.76-8.2,5.78l0,0a.79.79,0,0,1-1-1.19Z"/><path class="cls-13" d="M875.57,109.61H711.06a6.37,6.37,0,0,1-6.37-6.37h0a6.37,6.37,0,0,1,6.37-6.36H875.57a6.36,6.36,0,0,1,6.36,6.36h0A6.37,6.37,0,0,1,875.57,109.61Z"/><path class="cls-14" d="M895.34,134.54H730.82a6.36,6.36,0,0,1-6.36-6.36h0a6.37,6.37,0,0,1,6.36-6.37H895.34a6.37,6.37,0,0,1,6.36,6.37h0A6.36,6.36,0,0,1,895.34,134.54Z"/><path class="cls-14" d="M848.55,184.41H730.82a6.36,6.36,0,0,1-6.36-6.36h0a6.37,6.37,0,0,1,6.36-6.37H848.55a6.37,6.37,0,0,1,6.37,6.37h0A6.37,6.37,0,0,1,848.55,184.41Z"/><path class="cls-13" d="M913.78,159.48H749.27a6.37,6.37,0,0,1-6.36-6.37h0a6.36,6.36,0,0,1,6.36-6.36H913.78a6.37,6.37,0,0,1,6.37,6.36h0A6.37,6.37,0,0,1,913.78,159.48Z"/><circle class="cls-15" cx="512.17" cy="285.39" r="197.97" transform="translate(-51.79 445.75) rotate(-45)"/><circle class="cls-16" cx="512.17" cy="285.39" r="168.96"/><path class="cls-17" d="M512.17,462.82c-97.84,0-177.43-79.6-177.43-177.43S414.33,108,512.17,108s177.42,79.59,177.42,177.42S610,462.82,512.17,462.82Zm0-337.93c-88.5,0-160.5,72-160.5,160.5s72,160.5,160.5,160.5,160.5-72,160.5-160.5S600.67,124.89,512.17,124.89Z"/><circle class="cls-18" cx="512.17" cy="285.39" r="103.01" transform="translate(-51.79 445.75) rotate(-45)"/><path class="cls-17" d="M512.17,396.86A111.47,111.47,0,1,1,623.64,285.39,111.59,111.59,0,0,1,512.17,396.86Zm0-206a94.55,94.55,0,1,0,94.54,94.54A94.65,94.65,0,0,0,512.17,190.85Z"/><circle class="cls-19" cx="512.17" cy="285.39" r="39.91" transform="translate(115.59 717.24) rotate(-76.57)"/><path class="cls-17" d="M512.17,333.76a48.37,48.37,0,1,1,48.37-48.37A48.42,48.42,0,0,1,512.17,333.76Zm0-79.81a31.45,31.45,0,1,0,31.44,31.44A31.48,31.48,0,0,0,512.17,254Z"/><rect class="cls-20" x="701.91" y="9.05" width="8.48" height="321.21" transform="matrix(-0.51, -0.86, 0.86, -0.51, 922.24, 863)"/><path class="cls-21" d="M573.72,235.3c4.18-2.49,15.93,17.21,11.75,19.7l-69.92,31.12a2.39,2.39,0,0,1-2.43-4.07Z"/><path class="cls-22" d="M846.09,91.11,875,101.54,824,131.93a64.85,64.85,0,0,1-55.25,5.3h0Z"/><path class="cls-23" d="M841.75,83.82l4.54-30.37-50.95,30.4A64.81,64.81,0,0,0,764.43,130h0Z"/><path class="cls-24" d="M510.14,432.22S504,416,496.78,417.48s-15.07,7-15.07,7l-11.57,15.64s32.47,12.79,43.88,5.46c0,0,33.16,5.73,75-1.14a163.62,163.62,0,0,1-11.8-35.56C556.05,420.91,533.21,429.87,510.14,432.22Z"/><path class="cls-25" d="M685.79,314.55s-47.48,59.79-108.53,94.35a163.62,163.62,0,0,0,11.8,35.56c31.67-5.2,68.32-17.6,99.4-45.16Z"/><path class="cls-26" d="M180.63,583.34S165.91,373.2,273.22,307.85c0,0,30-19.81,67.38,18.55s25.34,78.2-6,115.55S271.25,546,278.85,583.34Z"/><path class="cls-27" d="M327.3,250.61c0,2.5-35.76,53.26-35.76,53.26s6.41,12.63,37,22.89L355,272.41Z"/><path class="cls-28" d="M313.25,424.87s67.79,56.77,141,32a17.4,17.4,0,0,1,13.74,1L489,469a18.79,18.79,0,0,0,24.9-7c2.92-4.89,5.42-10.48,5.91-15.83l-41.18-16.67,3-5.05s-20.11-1.71-25.37,12.7c0,0-38.3,15.93-102.89-55.11C353.45,382.09,324.15,407,313.25,424.87Z"/><path class="cls-29" d="M309.6,424.62a1.54,1.54,0,0,1-.84-.26c-28.63-19.34-42.1-50.57-42.23-50.88a1.5,1.5,0,0,1,2.76-1.17c.13.31,13.28,30.73,41.15,49.57a1.5,1.5,0,0,1-.84,2.74Z"/><path class="cls-29" d="M352.12,381.47a1.5,1.5,0,0,1-1.27-.69c-.08-.13-8.81-13.72-25.42-43.47-5.06-9.06-11.71-14.79-19.74-17.05-13.34-3.73-26.19,3.43-26.32,3.5a1.5,1.5,0,0,1-1.49-2.61c.57-.32,14-7.84,28.59-3.78,8.85,2.47,16.11,8.68,21.58,18.48,16.56,29.65,25.24,43.18,25.33,43.31a1.5,1.5,0,0,1-.45,2.07A1.52,1.52,0,0,1,352.12,381.47Z"/><path class="cls-30" d="M355.43,221.52s12.72,29.21,13.57,44.54,4.16,25.28-13.57,28.37-32.65-5.75-40.74-21c0,0-12.68-23.53-9.84-33.16S355.43,221.52,355.43,221.52Z"/><path class="cls-31" d="M320.74,262.43l1-.44a2.43,2.43,0,0,0,1.19-3.34c-2.5-4.83-7.37-15.9-1.08-18.48,8.12-3.33,40.25-9.88,47.18-21.28,6.67-11,.76-25.11-8.11-29.13a1.22,1.22,0,0,0-1.6.52l-.74,1.4a1.2,1.2,0,0,1-2.22-.23h0a1.2,1.2,0,0,0-2.17-.31c-2.13,3.41-7.88,8.94-23.27,11.78-21.87,4-36.33,12.89-36.69,28a1.2,1.2,0,0,1-1.86,1c-1.61-1-4.2-1.45-7.65,1.46-6,5-3.55,18.15,9.62,28.92a1.2,1.2,0,0,1-.06,1.93c-2.39,1.55-6,5.25,3.27,10.18,9.54,5.1,16.66,4.68,19.4,4.23a1.21,1.21,0,0,0,1-1.45L315,263.9a1.2,1.2,0,0,1,1.17-1.47Z"/><path class="cls-32" d="M321.29,265.24s-4.85-18.66-13.21-13.43,4.34,20.9,11.06,21.6Z"/><path class="cls-33" d="M468,457.91s17.23,16.85,20.56,14.39a61,61,0,0,0,7.06-7.57,7.4,7.4,0,0,0,.5-8.71l-4.06-6.27a11.74,11.74,0,0,0-17.53-2.56A21.31,21.31,0,0,0,468,457.91Z"/><path class="cls-34" d="M741.47,583.34s-2.11-78.8-46.13-157A125.32,125.32,0,0,1,681,345.7l4.83-31.15s60.41-20.44,127.38-.86c0,0,92.85,73.63,30.79,269.65Z"/><path class="cls-35" d="M696.07,274.79l15.67,37.64a7.47,7.47,0,0,0,5.66,4.5c9,1.55,30.88,4,45.22-5.46a3.65,3.65,0,0,0,1-5.13l-28.94-41.55Z"/><path class="cls-36" d="M734.71,451.66a3.48,3.48,0,0,0-2.2,5l45.32,86.9a3.48,3.48,0,0,0,4,1.74l148.25-42.81a3.47,3.47,0,0,0,2.37-4.3L907,409.75a3.48,3.48,0,0,0-4.23-2.39Z"/><path class="cls-37" d="M744.27,441.45a3.63,3.63,0,0,0-2.57,4.8L778,544.79A3.64,3.64,0,0,0,782.4,547l147.8-42.67a3.64,3.64,0,0,0,2.55-4.27l-20.48-94.84a3.63,3.63,0,0,0-4.41-2.77Z"/><path class="cls-38" d="M757.14,431.5a4.51,4.51,0,0,0-3.71,5.47l24.64,106.38a4.52,4.52,0,0,0,5.64,3.31l145.56-42a4.51,4.51,0,0,0,3.11-5.45L910,412.35a4.5,4.5,0,0,0-5-3.33Z"/><path class="cls-39" d="M875,472.07c11.3-85.34-54.47-151-54.47-151l-39.13,45.62c29.71,37,43.83,71,50.28,97.61C840.21,461.85,860.81,457.91,875,472.07Z"/><path class="cls-40" d="M831.65,465.34a1,1,0,0,1-1-.77c-8-33.05-24.85-65.76-50.09-97.22a1,1,0,0,1,.16-1.4,1,1,0,0,1,1.4.15c25.42,31.68,42.4,64.66,50.48,98a1,1,0,0,1-.74,1.21Z"/><path class="cls-41" d="M831.65,464.34c6,24.77,5.37,43.25,4.46,52.07a6.88,6.88,0,0,1-6.36,6.16c-3.79.26-8.94.61-13.55.88-5.07.29-10.69-2.91-14.45-5.59a2.26,2.26,0,0,0-3.33,2.86c2.8,5.49,9.93,10.38,14.83,13.25a2.34,2.34,0,0,1-.54,4.28l-21,6c34.5,32.5,57.27-3.86,57.27-3.86,15.23-23.53,23.11-46.54,26-68.27C860.81,457.91,840.21,461.85,831.65,464.34Z"/><path class="cls-42" d="M712.27,217.21c-.66.62-27.77,53.86-27.77,53.86l30.73,14.83,33.19-46.64S723.29,206.84,712.27,217.21Z"/><path class="cls-43" d="M734.46,244.86,719.13,270.4a4.73,4.73,0,0,1-.84,1.05c-1.82,1.7-8.06,6.63-12.89-.09-4.11-5.73-8-10.94-12.1-13.09a4.91,4.91,0,0,0-6.62,2.18,183.13,183.13,0,0,0-10.48,24.87,4.89,4.89,0,0,0,2.83,6c6.23,2.52,18.52,7.08,29.43,8.58a4.9,4.9,0,0,0,4.64-2c4.69-6.43,17.92-24.4,22.44-28.9,4.19-4.18,11.94-2.6,15.43-1.6a4.88,4.88,0,0,0,3.91-.52c3.54-2.13,9.72-7.44,4.07-16.43a4.9,4.9,0,0,1,1.51-6.66c4-2.6,8.25-7.48,4.16-15.38s-11.52-8.72-16.55-8.11a5.07,5.07,0,0,1-5.34-3,3.25,3.25,0,0,0-2.53-2,4.74,4.74,0,0,1-3.85-5.58c.88-4.53.22-10.41-7-14.39-13.26-7.28-24.87,4.59-27.82,14.62s11.87,17.11,21.19,18.29c6.85.87,10.6,8.34,12.11,12.25A4.92,4.92,0,0,1,734.46,244.86Z"/><path class="cls-44" d="M729.78,278.4s5.9-17.25,13.44-16.62,13.49,8.16,4.14,16.61C735.72,288.9,729.78,278.4,729.78,278.4Z"/><path class="cls-13" d="M238.73,446.86H74.22a6.36,6.36,0,0,1-6.36-6.36h0a6.37,6.37,0,0,1,6.36-6.37H238.73a6.37,6.37,0,0,1,6.37,6.37h0A6.37,6.37,0,0,1,238.73,446.86Z"/><path class="cls-14" d="M258.5,471.8H94a6.37,6.37,0,0,1-6.37-6.37h0A6.37,6.37,0,0,1,94,459.07H258.5a6.37,6.37,0,0,1,6.37,6.36h0A6.37,6.37,0,0,1,258.5,471.8Z"/><path class="cls-14" d="M211.72,521.67H94a6.37,6.37,0,0,1-6.37-6.36h0A6.37,6.37,0,0,1,94,508.94H211.72a6.37,6.37,0,0,1,6.37,6.37h0A6.37,6.37,0,0,1,211.72,521.67Z"/><path class="cls-13" d="M277,496.74H112.44a6.37,6.37,0,0,1-6.37-6.37h0a6.37,6.37,0,0,1,6.37-6.37H277a6.37,6.37,0,0,1,6.37,6.37h0A6.37,6.37,0,0,1,277,496.74Z"/></svg>