<svg id="Illustration" xmlns="http://www.w3.org/2000/svg" xmlns:xlink="http://www.w3.org/1999/xlink" viewBox="0 0 997.71 666.81"><defs><style>.cls-1,.cls-54{opacity:0.6;}.cls-19,.cls-2,.cls-20,.cls-3{opacity:0.5;}.cls-2{fill:url(#linear-gradient);}.cls-3{fill:url(#linear-gradient-2);}.cls-4,.cls-54,.cls-59,.cls-6{fill:#fff;}.cls-4{opacity:0.57;}.cls-5{fill:url(#linear-gradient-3);}.cls-7{fill:url(#linear-gradient-4);}.cls-8{fill:url(#linear-gradient-5);}.cls-9{fill:url(#linear-gradient-6);}.cls-10{fill:url(#linear-gradient-7);}.cls-11{fill:url(#linear-gradient-8);}.cls-12{fill:url(#linear-gradient-9);}.cls-13{fill:url(#linear-gradient-10);}.cls-14{fill:url(#linear-gradient-11);}.cls-15{fill:url(#linear-gradient-12);}.cls-16{fill:url(#linear-gradient-13);}.cls-17{fill:url(#linear-gradient-14);}.cls-18{fill:url(#linear-gradient-15);}.cls-19{fill:url(#linear-gradient-16);}.cls-20{fill:url(#linear-gradient-17);}.cls-21{fill:url(#linear-gradient-18);}.cls-22{fill:url(#linear-gradient-19);}.cls-23{fill:url(#linear-gradient-20);}.cls-24{fill:url(#linear-gradient-21);}.cls-25{fill:url(#linear-gradient-22);}.cls-26{fill:url(#linear-gradient-23);}.cls-27{fill:url(#linear-gradient-24);}.cls-28{fill:url(#linear-gradient-25);}.cls-29{fill:url(#linear-gradient-26);}.cls-30{fill:url(#linear-gradient-27);}.cls-31{fill:url(#linear-gradient-28);}.cls-32{fill:url(#linear-gradient-29);}.cls-33{fill:url(#linear-gradient-30);}.cls-34{fill:url(#linear-gradient-31);}.cls-35{fill:url(#linear-gradient-32);}.cls-36{fill:url(#linear-gradient-33);}.cls-37{fill:url(#linear-gradient-34);}.cls-38{fill:url(#linear-gradient-35);}.cls-39{fill:url(#linear-gradient-36);}.cls-40{fill:url(#linear-gradient-37);}.cls-41{fill:url(#linear-gradient-38);}.cls-42{fill:url(#linear-gradient-39);}.cls-43{fill:url(#linear-gradient-40);}.cls-44{fill:url(#linear-gradient-41);}.cls-45{fill:url(#linear-gradient-42);}.cls-46{fill:url(#linear-gradient-43);}.cls-47{fill:url(#linear-gradient-44);}.cls-48{fill:url(#linear-gradient-45);}.cls-49{fill:#eac4f9;}.cls-50{fill:url(#linear-gradient-46);}.cls-51{fill:url(#linear-gradient-47);}.cls-52{fill:url(#linear-gradient-48);}.cls-53{fill:url(#linear-gradient-49);}.cls-55{fill:url(#linear-gradient-50);}.cls-56{fill:url(#linear-gradient-51);}.cls-57{fill:url(#linear-gradient-52);}.cls-58{fill:url(#linear-gradient-53);}.cls-59{opacity:0.72;}.cls-60{fill:url(#linear-gradient-54);}.cls-61{fill:url(#linear-gradient-55);}.cls-62{fill:url(#linear-gradient-56);}.cls-63{fill:#e992ec;}.cls-64{fill:url(#linear-gradient-57);}.cls-65{fill:url(#linear-gradient-58);}.cls-66{fill:url(#linear-gradient-59);}.cls-67{fill:url(#linear-gradient-60);}.cls-68{fill:url(#linear-gradient-61);}.cls-69{fill:url(#linear-gradient-62);}.cls-70{fill:url(#linear-gradient-63);}.cls-71{fill:url(#linear-gradient-64);}.cls-72{fill:url(#linear-gradient-65);}.cls-73{fill:url(#linear-gradient-66);}.cls-74{fill:url(#linear-gradient-67);}.cls-75{fill:url(#linear-gradient-68);}.cls-76{fill:url(#linear-gradient-69);}.cls-77{fill:url(#linear-gradient-70);}.cls-78{fill:url(#linear-gradient-71);}.cls-79{fill:url(#linear-gradient-72);}.cls-80{fill:url(#linear-gradient-73);}.cls-81{fill:url(#linear-gradient-74);}.cls-82{fill:url(#linear-gradient-75);}.cls-83{fill:url(#linear-gradient-76);}.cls-84{fill:url(#linear-gradient-77);}.cls-85{fill:url(#linear-gradient-78);}.cls-86{fill:url(#linear-gradient-79);}.cls-87{fill:url(#linear-gradient-80);}.cls-88{fill:url(#linear-gradient-81);}</style><linearGradient id="linear-gradient" y1="365.32" x2="885.06" y2="365.32" gradientUnits="userSpaceOnUse"><stop offset="0" stop-color="#b37cff"/><stop offset="1" stop-color="#f895e7"/></linearGradient><linearGradient id="linear-gradient-2" x1="41.4" y1="368.42" x2="843.66" y2="368.42" xlink:href="#linear-gradient"/><linearGradient id="linear-gradient-3" x1="307.42" y1="100.88" x2="60.16" y2="429.15" gradientUnits="userSpaceOnUse"><stop offset="0" stop-color="#53d8ff"/><stop offset="1" stop-color="#3840f7"/></linearGradient><linearGradient id="linear-gradient-4" x1="307.42" y1="100.88" x2="60.16" y2="429.15" gradientTransform="translate(383.1 -31.75) rotate(76.32)" xlink:href="#linear-gradient-3"/><linearGradient id="linear-gradient-5" x1="307.42" y1="100.88" x2="60.16" y2="429.15" gradientTransform="translate(384.21 -31.01) rotate(76.57)" xlink:href="#linear-gradient-3"/><linearGradient id="linear-gradient-6" x1="-1312.01" y1="2536.71" x2="-1351.25" y2="2696.1" gradientTransform="translate(1651.89 -2544.17)" gradientUnits="userSpaceOnUse"><stop offset="0" stop-color="#2b3582"/><stop offset="1" stop-color="#150e42"/></linearGradient><linearGradient id="linear-gradient-7" x1="-1345.47" y1="2570.21" x2="-1357.46" y2="2698.82" gradientTransform="translate(-2546.63 1082.92) rotate(-135)" gradientUnits="userSpaceOnUse"><stop offset="0" stop-color="#fdf53f"/><stop offset="1" stop-color="#d93c65"/></linearGradient><linearGradient id="linear-gradient-8" x1="-1355.82" y1="2746.79" x2="-1372.16" y2="2922.13" xlink:href="#linear-gradient-7"/><linearGradient id="linear-gradient-9" x1="-791.9" y1="2746.79" x2="-808.24" y2="2922.13" gradientTransform="matrix(0.71, 0.71, 0.71, -0.71, -1038.96, 2590.58)" xlink:href="#linear-gradient-7"/><linearGradient id="linear-gradient-10" x1="3766.08" y1="1851.24" x2="3740.13" y2="1990.94" gradientTransform="translate(-4035.97 475.34) rotate(-26.61)" gradientUnits="userSpaceOnUse"><stop offset="0" stop-color="#9f5699"/><stop offset="1" stop-color="#202278"/></linearGradient><linearGradient id="linear-gradient-11" x1="2702.76" y1="2841.22" x2="2697.44" y2="3101.49" gradientTransform="translate(-3918.86 391.16) rotate(-46.47)" xlink:href="#linear-gradient-10"/><linearGradient id="linear-gradient-12" x1="832.97" y1="152.93" x2="518.54" y2="662.15" gradientTransform="matrix(1, 0, 0, 1, 0, 0)" xlink:href="#linear-gradient-7"/><linearGradient id="linear-gradient-13" x1="619.79" y1="509.38" x2="367.5" y2="524.22" gradientTransform="matrix(1, 0, 0, 1, 0, 0)" xlink:href="#linear-gradient-7"/><linearGradient id="linear-gradient-14" x1="508.4" y1="498.1" x2="218.08" y2="503.67" gradientTransform="matrix(1, 0, 0, 1, 0, 0)" xlink:href="#linear-gradient-7"/><linearGradient id="linear-gradient-15" x1="279.76" y1="654.59" x2="174.03" y2="508.51" gradientUnits="userSpaceOnUse"><stop offset="0" stop-color="#fdf53f"/><stop offset="0.28" stop-color="#f3c14a"/><stop offset="1" stop-color="#d93c65"/></linearGradient><linearGradient id="linear-gradient-16" x1="89.64" y1="280.93" x2="264.22" y2="316.54" gradientTransform="matrix(0.94, 0.01, -0.01, 0.81, 43.89, -151.21)" xlink:href="#linear-gradient"/><linearGradient id="linear-gradient-17" x1="278.33" y1="344.14" x2="374.82" y2="363.82" gradientTransform="matrix(0.94, 0.01, -0.01, 0.81, 43.89, -151.21)" xlink:href="#linear-gradient"/><linearGradient id="linear-gradient-18" x1="10677.22" y1="639.04" x2="10697.84" y2="509.35" gradientTransform="matrix(1, 0, 0, -1, -10518.65, 1184.4)" gradientUnits="userSpaceOnUse"><stop offset="0" stop-color="#cb236d"/><stop offset="1" stop-color="#4c246d"/></linearGradient><linearGradient id="linear-gradient-19" x1="10685.32" y1="640.07" x2="10706.37" y2="507.67" gradientTransform="matrix(1, 0, 0, -1, -10518.65, 1285.32)" xlink:href="#linear-gradient-18"/><linearGradient id="linear-gradient-20" x1="10668.61" y1="643.92" x2="10690.52" y2="506.09" gradientTransform="matrix(-1, 0, 0, 1, 10850.69, 0)" xlink:href="#linear-gradient-18"/><linearGradient id="linear-gradient-21" x1="242.37" y1="605.71" x2="225.53" y2="638.83" gradientTransform="matrix(1, 0, 0, 1, 0, 0)" xlink:href="#linear-gradient-6"/><linearGradient id="linear-gradient-22" x1="210.35" y1="618.89" x2="227.12" y2="618.89" gradientUnits="userSpaceOnUse"><stop offset="0" stop-color="#f9b776"/><stop offset="1" stop-color="#f47960"/></linearGradient><linearGradient id="linear-gradient-23" x1="187.13" y1="574.51" x2="258.42" y2="474.59" gradientUnits="userSpaceOnUse"><stop offset="0" stop-color="#2b3582"/><stop offset="0.23" stop-color="#252a70"/><stop offset="0.73" stop-color="#19164f"/><stop offset="1" stop-color="#150e42"/></linearGradient><linearGradient id="linear-gradient-24" x1="232.6" y1="639.2" x2="174.22" y2="715.53" gradientTransform="matrix(1, 0, 0, 1, 0, 0)" xlink:href="#linear-gradient-6"/><linearGradient id="linear-gradient-25" x1="203.38" y1="655.73" x2="248.49" y2="655.73" xlink:href="#linear-gradient-3"/><linearGradient id="linear-gradient-26" x1="198.22" y1="634.37" x2="213.96" y2="634.37" xlink:href="#linear-gradient-22"/><linearGradient id="linear-gradient-27" x1="161.44" y1="624.29" x2="165.37" y2="490.7" gradientTransform="matrix(1, 0, 0, 1, 0, 0)" xlink:href="#linear-gradient-6"/><linearGradient id="linear-gradient-28" x1="258.83" y1="494.37" x2="220.1" y2="433.75" gradientTransform="matrix(1, 0, 0, 1, 0, 0)" xlink:href="#linear-gradient-7"/><linearGradient id="linear-gradient-29" x1="246.32" y1="452.82" x2="301.24" y2="452.82" xlink:href="#linear-gradient-22"/><linearGradient id="linear-gradient-30" x1="220.99" y1="387.05" x2="97.51" y2="476.86" xlink:href="#linear-gradient-3"/><linearGradient id="linear-gradient-31" x1="193.92" y1="371.77" x2="230.36" y2="371.77" xlink:href="#linear-gradient-22"/><linearGradient id="linear-gradient-32" x1="203.28" y1="362.7" x2="79.8" y2="452.51" xlink:href="#linear-gradient-3"/><linearGradient id="linear-gradient-33" x1="114.72" y1="418.58" x2="222.49" y2="412.4" xlink:href="#linear-gradient-3"/><linearGradient id="linear-gradient-34" x1="169.07" y1="453.48" x2="29.57" y2="695.9" xlink:href="#linear-gradient-22"/><linearGradient id="linear-gradient-35" x1="540.01" y1="-985.48" x2="494.45" y2="-925.22" gradientTransform="translate(-42.52 1419.84) rotate(-14.47)" xlink:href="#linear-gradient-22"/><linearGradient id="linear-gradient-36" x1="505.22" y1="-970.94" x2="559.63" y2="-970.94" gradientTransform="translate(-42.52 1419.84) rotate(-14.47)" xlink:href="#linear-gradient-6"/><linearGradient id="linear-gradient-37" x1="473.29" y1="-937.76" x2="509.83" y2="-975.24" gradientTransform="translate(-42.52 1419.84) rotate(-14.47)" xlink:href="#linear-gradient-22"/><linearGradient id="linear-gradient-38" x1="10590.88" y1="1101.71" x2="10519.44" y2="1121.28" gradientTransform="matrix(-1, -0.05, -0.05, 1, 10820.02, -126.6)" xlink:href="#linear-gradient-6"/><linearGradient id="linear-gradient-39" x1="10566.58" y1="404.45" x2="10515.9" y2="458.02" gradientTransform="matrix(-1, 0, 0, 1, 10850.69, 0)" xlink:href="#linear-gradient-6"/><linearGradient id="linear-gradient-40" x1="10535.94" y1="417.78" x2="10512.94" y2="452.42" gradientTransform="matrix(-1, 0, 0, 1, 10850.69, 0)" xlink:href="#linear-gradient-3"/><linearGradient id="linear-gradient-41" x1="10487.91" y1="572.77" x2="10573.49" y2="572.77" gradientTransform="matrix(-1, 0, 0, 1, 10850.69, 0)" gradientUnits="userSpaceOnUse"><stop offset="0" stop-color="#9cfffb"/><stop offset="1" stop-color="#9bfffa"/></linearGradient><linearGradient id="linear-gradient-42" x1="10497.79" y1="572.77" x2="10583.38" y2="572.77" xlink:href="#linear-gradient-41"/><linearGradient id="linear-gradient-43" x1="10729.77" y1="572.77" x2="10815.36" y2="572.77" xlink:href="#linear-gradient-41"/><linearGradient id="linear-gradient-44" x1="10739.65" y1="572.77" x2="10825.24" y2="572.77" xlink:href="#linear-gradient-41"/><linearGradient id="linear-gradient-45" x1="10467.72" y1="482.94" x2="10830.75" y2="482.94" xlink:href="#linear-gradient-41"/><linearGradient id="linear-gradient-46" x1="1605.81" y1="2705.02" x2="1712.98" y2="2705.02" gradientTransform="matrix(0.11, 0.99, -0.99, 0.11, 2942.72, -1362.35)" xlink:href="#linear-gradient"/><linearGradient id="linear-gradient-47" x1="1584.21" y1="2615.93" x2="1644.85" y2="2615.93" gradientTransform="matrix(0.11, 0.99, -0.99, 0.11, 2942.72, -1362.35)" xlink:href="#linear-gradient"/><linearGradient id="linear-gradient-48" x1="-4749.14" y1="4491.72" x2="-4947.05" y2="4751.68" gradientTransform="matrix(-0.22, -0.98, 0.98, -0.22, -5014.76, -3577.42)" xlink:href="#linear-gradient-6"/><linearGradient id="linear-gradient-49" x1="-4922.33" y1="4729.29" x2="-4776.71" y2="4514.46" gradientTransform="matrix(-0.22, -0.98, 0.98, -0.22, -5014.76, -3577.42)" gradientUnits="userSpaceOnUse"><stop offset="0" stop-color="#a737d5"/><stop offset="1" stop-color="#ef497a"/></linearGradient><linearGradient id="linear-gradient-50" x1="188.94" y1="798.91" x2="151.48" y2="871.58" gradientTransform="matrix(0.98, -0.22, 0.22, 0.98, 76.31, -688.96)" xlink:href="#linear-gradient-7"/><linearGradient id="linear-gradient-51" x1="223.09" y1="797.09" x2="185.63" y2="869.76" gradientTransform="matrix(0.98, -0.22, 0.22, 0.98, 76.31, -688.96)" xlink:href="#linear-gradient-7"/><linearGradient id="linear-gradient-52" x1="268.61" y1="797.09" x2="231.15" y2="869.76" gradientTransform="matrix(0.98, -0.22, 0.22, 0.98, 76.31, -688.96)" xlink:href="#linear-gradient-7"/><linearGradient id="linear-gradient-53" x1="314.14" y1="794.62" x2="276.68" y2="867.3" gradientTransform="matrix(0.98, -0.22, 0.22, 0.98, 76.31, -688.96)" xlink:href="#linear-gradient-7"/><linearGradient id="linear-gradient-54" x1="252.02" y1="925.4" x2="269.72" y2="925.4" gradientTransform="matrix(0.98, -0.22, 0.22, 0.98, 76.31, -688.96)" xlink:href="#linear-gradient-49"/><linearGradient id="linear-gradient-55" x1="233.97" y1="935.28" x2="285.94" y2="935.28" gradientTransform="matrix(0.98, -0.22, 0.22, 0.98, 76.31, -688.96)" xlink:href="#linear-gradient-49"/><linearGradient id="linear-gradient-56" x1="168.37" y1="908.05" x2="240.49" y2="908.05" gradientTransform="matrix(0.98, -0.22, 0.22, 0.98, 76.31, -688.96)" xlink:href="#linear-gradient-49"/><linearGradient id="linear-gradient-57" x1="11773.63" y1="-4068.77" x2="11702.45" y2="-4111.91" gradientTransform="matrix(1, 0.07, -0.25, 0.89, -11736.79, 3021.8)" xlink:href="#linear-gradient-3"/><linearGradient id="linear-gradient-58" x1="11734.13" y1="-4084.72" x2="11652.67" y2="-4170.85" gradientTransform="matrix(1, 0.07, -0.25, 0.89, -11736.79, 3021.8)" xlink:href="#linear-gradient-3"/><linearGradient id="linear-gradient-59" x1="11768.44" y1="-4069.49" x2="11701.94" y2="-4109.79" gradientTransform="matrix(1, 0.07, -0.25, 0.89, -11736.79, 3021.8)" xlink:href="#linear-gradient-3"/><linearGradient id="linear-gradient-60" x1="-15146.27" y1="-3642.35" x2="-15115.89" y2="-3651.15" gradientTransform="matrix(-1, -0.07, -0.07, 1, -14402.45, 2740.12)" xlink:href="#linear-gradient-3"/><linearGradient id="linear-gradient-61" x1="874.65" y1="-42.7" x2="567.49" y2="432.98" xlink:href="#linear-gradient-3"/><linearGradient id="linear-gradient-62" x1="1500.13" y1="626.56" x2="1345.39" y2="794.87" gradientTransform="matrix(-1, 0, 0, 1, 2150.34, 0)" xlink:href="#linear-gradient-6"/><linearGradient id="linear-gradient-63" x1="1449.91" y1="639.06" x2="1463.65" y2="639.06" gradientTransform="matrix(-1, 0, 0, 1, 2150.34, 0)" xlink:href="#linear-gradient-22"/><linearGradient id="linear-gradient-64" x1="1512.32" y1="436.22" x2="1380.65" y2="614.67" gradientTransform="matrix(-1, 0, 0, 1, 2150.34, 0)" xlink:href="#linear-gradient-6"/><linearGradient id="linear-gradient-65" x1="1465.42" y1="594.64" x2="1310.68" y2="762.96" gradientTransform="matrix(-1, 0, 0, 1, 2150.34, 0)" xlink:href="#linear-gradient-6"/><linearGradient id="linear-gradient-66" x1="1400.37" y1="638.35" x2="1412.24" y2="638.35" gradientTransform="matrix(-1, 0, 0, 1, 2150.34, 0)" xlink:href="#linear-gradient-22"/><linearGradient id="linear-gradient-67" x1="1488.85" y1="418.9" x2="1357.18" y2="597.36" gradientTransform="matrix(-1, 0, 0, 1, 2150.34, 0)" xlink:href="#linear-gradient-6"/><linearGradient id="linear-gradient-68" x1="688.42" y1="289.29" x2="756.07" y2="654.41" gradientTransform="matrix(1, 0, 0, 1, 0, 0)" xlink:href="#linear-gradient-10"/><linearGradient id="linear-gradient-69" x1="565.56" y1="256.58" x2="775.29" y2="384.81" xlink:href="#linear-gradient-22"/><linearGradient id="linear-gradient-70" x1="563.76" y1="205.92" x2="588.01" y2="275.21" xlink:href="#linear-gradient-22"/><linearGradient id="linear-gradient-71" x1="582.39" y1="250.19" x2="564.12" y2="213.34" xlink:href="#linear-gradient-22"/><linearGradient id="linear-gradient-72" x1="756.7" y1="276.64" x2="824.34" y2="641.76" gradientTransform="matrix(1, 0, 0, 1, 0, 0)" xlink:href="#linear-gradient-10"/><linearGradient id="linear-gradient-73" x1="1352.81" y1="379.94" x2="1441.67" y2="379.94" gradientTransform="matrix(-1, 0, 0, 1, 2150.34, 0)" xlink:href="#linear-gradient-22"/><linearGradient id="linear-gradient-74" x1="1468.56" y1="316.77" x2="1517.42" y2="520.36" gradientTransform="matrix(-1, 0, 0, 1, 2150.34, 0)" xlink:href="#linear-gradient-3"/><linearGradient id="linear-gradient-75" x1="1499.15" y1="284.67" x2="1488.74" y2="330.37" gradientTransform="matrix(-1, 0, 0, 1, 2150.34, 0)" xlink:href="#linear-gradient-3"/><linearGradient id="linear-gradient-76" x1="1493.7" y1="303.84" x2="1488.73" y2="333.7" gradientTransform="matrix(-1, 0, 0, 1, 2150.34, 0)" xlink:href="#linear-gradient-3"/><linearGradient id="linear-gradient-77" x1="1435.08" y1="370.63" x2="1462.76" y2="370.63" gradientTransform="matrix(-1, 0, 0, 1, 2150.34, 0)" xlink:href="#linear-gradient-22"/><linearGradient id="linear-gradient-78" x1="1421.05" y1="284.94" x2="1456.18" y2="284.94" gradientTransform="matrix(-1, 0, 0, 1, 2150.34, 0)" xlink:href="#linear-gradient-22"/><linearGradient id="linear-gradient-79" x1="-4795.65" y1="-1082.38" x2="-4808.78" y2="-1125.68" gradientTransform="matrix(-0.75, -0.67, -0.67, 0.75, -3612.51, -2123.37)" xlink:href="#linear-gradient-22"/><linearGradient id="linear-gradient-80" x1="-4807.5" y1="-1157.83" x2="-4796.51" y2="-1095.19" gradientTransform="matrix(-0.75, -0.67, -0.67, 0.75, -3612.51, -2123.37)" xlink:href="#linear-gradient-6"/><linearGradient id="linear-gradient-81" x1="-4809.07" y1="-1082.58" x2="-4820.88" y2="-1121.54" gradientTransform="matrix(-0.75, -0.67, -0.67, 0.75, -3612.51, -2123.37)" xlink:href="#linear-gradient-22"/></defs><title>website-maintenance-and-support-for-associations-B</title><g class="cls-1"><path class="cls-2" d="M180.44,118.62c-50.75,31.46-86.62,7.17-117.29,40.48C-32.53,263,88.72,302.44,32.4,318.38c-61.17,17.31-23.12,93.71,11.3,115.79s60,35.36,11.11,57.93-57.44,47.53-36.94,88.14,59.35,53.41,220.79,55.82,474.08-2.69,559.37-25.8,23.11-82.58,59-127,42.91-70.49-12-113.58S821.36,282,837.85,250.55s29.17-88.48-37-104.75-143.13,48.65-176.41,15.67-18.63-76.71-91.32-65.7S436,192,372.59,187.31,288,51.94,180.44,118.62Z"/><path class="cls-3" d="M205,144.8c-46,28.51-78.51,6.5-106.32,36.7-86.73,94.21,23.18,129.92-27.88,144.37-55.44,15.69-21,84.94,10.25,105s54.4,32.05,10.07,52.51S39,526.42,57.6,563.24s53.8,48.41,200.13,50.6,429.73-2.45,507-23.4,21-74.85,53.45-115.11,38.9-63.9-10.88-103-21.42-79.47-6.47-108,26.44-80.21-33.55-94.95-129.74,44.09-159.91,14.2-16.89-69.53-82.78-59.55-88,87.23-145.5,83S302.47,84.35,205,144.8Z"/></g><circle class="cls-4" cx="211.75" cy="227.89" r="128.67" transform="translate(-99.12 216.48) rotate(-45)"/><circle class="cls-5" cx="211.75" cy="227.89" r="109.81"/><path class="cls-6" d="M211.75,343.2A115.31,115.31,0,1,1,327.06,227.89,115.44,115.44,0,0,1,211.75,343.2Zm0-219.62A104.31,104.31,0,1,0,316.06,227.89,104.42,104.42,0,0,0,211.75,123.58Z"/><circle class="cls-7" cx="211.75" cy="227.89" r="66.95" transform="translate(-59.76 379.74) rotate(-76.32)"/><path class="cls-6" d="M211.75,300.34a72.45,72.45,0,1,1,72.45-72.45A72.53,72.53,0,0,1,211.75,300.34Zm0-133.89a61.45,61.45,0,1,0,61.45,61.44A61.52,61.52,0,0,0,211.75,166.45Z"/><circle class="cls-8" cx="211.75" cy="227.89" r="25.94" transform="translate(-59.1 380.9) rotate(-76.57)"/><path class="cls-6" d="M211.75,259.33a31.44,31.44,0,1,1,31.44-31.44A31.48,31.48,0,0,1,211.75,259.33Zm0-51.87a20.44,20.44,0,1,0,20.44,20.43A20.46,20.46,0,0,0,211.75,207.46Z"/><rect class="cls-9" x="301.36" y="46.04" width="4.9" height="185.71" transform="translate(420.42 451.94) rotate(-135)"/><path class="cls-10" d="M238.87,194.45c2-2,11.37,7.39,9.38,9.38l-34.78,27.35a1.38,1.38,0,0,1-1.94-1.94Z"/><path class="cls-11" d="M371.13,75.05l17.66,1.75-24.25,24.26a37.49,37.49,0,0,1-30.22,10.79h0Z"/><path class="cls-12" d="M367.66,71.58,365.9,53.92,341.65,78.17a37.47,37.47,0,0,0-10.8,30.22h0Z"/><path class="cls-13" d="M100.34,270c-4.33-3.62-9.35-5-13.57-3.64s-7.18,5.17-8,10.4c-29.87,192,104.16,315.42,155.65,355.08,4.6,3.55,9.81,4.55,14,2.7s6.83-6.32,7.1-12C264.74,426.89,146.29,308.36,100.34,270Z"/><path class="cls-6" d="M91.94,290c9.19,28.65,19.5,57,30.39,85s22.53,55.85,35,83.28l9.48,20.49c3.2,6.81,6.58,13.53,9.86,20.3l5,10.13,5.19,10,5.2,10c1.76,3.32,3.41,6.71,5.28,10l11,19.72,2.73,4.93,2.9,4.84,5.79,9.67,5.78,9.67,1.45,2.42,1.53,2.37,3.07,4.72,12.29,18.88.05.08a2.37,2.37,0,1,1-4,2.59v0L227.64,600l-3-4.79-1.51-2.39-1.43-2.44L216,580.63l-5.72-9.78L207.38,566l-2.7-5L193.9,541.07c-1.84-3.29-3.46-6.7-5.19-10.06l-5.11-10.09-5.11-10.1-4.87-10.21c-3.22-6.82-6.54-13.59-9.67-20.45l-9.28-20.63c-12.12-27.62-23.67-55.48-34.41-83.65-5.36-14.09-10.59-28.23-15.59-42.45l-3.76-10.66-3.66-10.7q-3.63-10.71-7-21.49a.91.91,0,1,1,1.73-.55Z"/><path class="cls-6" d="M120.52,376.81a1,1,0,0,1-.65-1.76c12.42-10.54,18.37-48.66,18.43-49a1,1,0,0,1,1.14-.84,1,1,0,0,1,.84,1.14c-.25,1.6-6.13,39.25-19.12,50.27A1,1,0,0,1,120.52,376.81Z"/><path class="cls-6" d="M120.52,376.81a1.1,1.1,0,0,1-.31,0C120,376.69,96,369,81.26,355.64a1,1,0,0,1-.06-1.42,1,1,0,0,1,1.41-.06c14.38,13.09,38,20.63,38.21,20.7a1,1,0,0,1-.3,1.95Z"/><path class="cls-6" d="M152.43,452.09a1,1,0,0,1-.76-1.64c17.27-20.46,20.23-54.84,20.26-55.18a1,1,0,1,1,2,.16c0,.35-3,35.37-20.72,56.31A1,1,0,0,1,152.43,452.09Z"/><path class="cls-6" d="M151.49,452.7c-3.81,0-27.77-.89-52.72-21.8a1,1,0,0,1,1.29-1.54c26.48,22.21,51.62,21.34,51.87,21.33a1,1,0,0,1,.09,2Z"/><path class="cls-6" d="M201.45,552.13l-.17,0c-.31-.05-31.58-5.69-57-23.94a1,1,0,0,1,1.17-1.63c25.08,18,55.91,23.55,56.21,23.6a1,1,0,0,1-.17,2Z"/><path class="cls-6" d="M201.45,552.13a1,1,0,0,1-.56-.18,1,1,0,0,1-.26-1.39c.17-.25,17.7-26.2,19.17-60.74a1,1,0,1,1,2,.08c-1.49,35.14-19.34,61.53-19.52,61.8A1,1,0,0,1,201.45,552.13Z"/><path class="cls-14" d="M25.49,386.48c-4.39-1.6-8.67-1.23-11.58,1s-4.14,6-3.3,10.33C41.3,555.56,180.27,614,231.47,630.36c4.57,1.46,8.91.78,11.65-1.84s3.54-6.83,2.15-11.34C197.48,462.39,72,403.44,25.49,386.48Z"/><path class="cls-6" d="M24.59,404.47c15.2,19.7,31.19,38.84,47.56,57.6s33.24,37.1,50.61,54.93l13.14,13.27c4.4,4.4,8.92,8.68,13.38,13l6.71,6.48,6.86,6.33,6.86,6.32c2.31,2.09,4.54,4.26,6.91,6.27q27.84,24.85,57.92,46.91l.05,0a2.38,2.38,0,1,1-2.81,3.83l-.05,0-14.82-11.51-3.7-2.87-1.85-1.45-1.8-1.5-7.18-6-7.18-6-3.6-3-3.49-3.12-14-12.47c-2.36-2.05-4.58-4.25-6.86-6.38l-6.81-6.43-6.81-6.42L147,545.65c-4.42-4.41-8.9-8.75-13.27-13.21l-13-13.46c-17.17-18.1-34-36.54-50.24-55.46q-12.19-14.19-24-28.66t-23.29-29.3a.91.91,0,0,1,1.44-1.1Z"/><path class="cls-6" d="M70.79,464.27a1,1,0,0,1-.49-.13,1,1,0,0,1-.37-1.36c6.67-11.63.61-42.91.54-43.22a1,1,0,0,1,.79-1.18,1,1,0,0,1,1.18.79c.26,1.32,6.26,32.33-.78,44.6A1,1,0,0,1,70.79,464.27Z"/><path class="cls-6" d="M68,464.32c-6.22,0-21.42-.56-33.5-5.56a1,1,0,0,1,.77-1.85c14.83,6.14,35.26,5.37,35.46,5.36a1,1,0,0,1,.09,2C70.66,464.28,69.65,464.32,68,464.32Z"/><path class="cls-6" d="M116.78,513.88a1,1,0,0,1-.35-.06,1,1,0,0,1-.59-1.29c7.67-20.71.33-48.24.26-48.52a1,1,0,1,1,1.93-.52c.31,1.15,7.58,28.43-.32,49.74A1,1,0,0,1,116.78,513.88Z"/><path class="cls-6" d="M97.18,517.56a80.88,80.88,0,0,1-27.89-5.16,1,1,0,0,1,.69-1.87c26.73,9.79,46,2.1,46.23,2a1,1,0,0,1,1.3.54,1,1,0,0,1-.54,1.31C116.48,514.6,109.1,517.56,97.18,517.56Z"/><path class="cls-6" d="M163.51,579.33a117.71,117.71,0,0,1-31.5-4,1,1,0,0,1,.54-1.92c24.52,6.93,50,2.61,50.3,2.56a1,1,0,0,1,1.16.82,1,1,0,0,1-.82,1.15A127.44,127.44,0,0,1,163.51,579.33Z"/><path class="cls-6" d="M183,578a.73.73,0,0,1-.25,0,1,1,0,0,1-.72-1.21c.07-.25,6.41-25.32-2.14-52.56a1,1,0,1,1,1.91-.6c8.72,27.81,2.23,53.4,2.17,53.66A1,1,0,0,1,183,578Z"/><path class="cls-15" d="M537,597.51l135-258.6H644.32a6,6,0,0,1-4.67-9.87L783.52,153.7a10.14,10.14,0,0,1,18,7L791.38,332.19a17.13,17.13,0,0,1-19,16L753.05,346l-133.93,290a21.33,21.33,0,0,1-19.36,12.38H553.34Z"/><path class="cls-16" d="M425.39,416.14l95.3,211.69a34.94,34.94,0,0,0,31.87,20.6h49.12a17.93,17.93,0,0,0,15.69-9.23l1.75-3.15h0a14,14,0,0,1-12.51-7.66l-127-248.78Z"/><path class="cls-17" d="M492.46,404.74h0a20.83,20.83,0,0,0-30.26,4.8L322.08,620.05a60.52,60.52,0,0,1-50.38,27H252l-16-46.22S366.19,401.1,399.77,370.89c0,0,33.43-30.14,66.39-7.35a54.86,54.86,0,0,1,19.36,24.39Z"/><path class="cls-18" d="M83.55,476.51s23.45-29.31,68.9-33.87c0,0,21.58,7.35,64.59,84.41s71.55,112.19,105,93l-2.77,4.61A50.52,50.52,0,0,1,276,649.11H257.51a63.37,63.37,0,0,1-51.45-26.37C172.59,576.22,104.11,483.73,83.55,476.51Z"/><path class="cls-6" d="M785.26,215.11h-.17a1.5,1.5,0,0,1-1.32-1.66l1-8.37a1.5,1.5,0,0,1,3,.34l-1,8.37A1.51,1.51,0,0,1,785.26,215.11Z"/><path class="cls-6" d="M665.17,320.79a1.49,1.49,0,0,1-1.19-2.41L782.78,164a5.15,5.15,0,0,1,9.19,3.72l-2.1,18.5a1.5,1.5,0,1,1-3-.34l2.1-18.5a2.15,2.15,0,0,0-3.84-1.55L666.36,320.21A1.51,1.51,0,0,1,665.17,320.79Z"/><path class="cls-6" d="M395.66,482.62a1.54,1.54,0,0,1-.84-.26,1.5,1.5,0,0,1-.4-2.08l61.44-91.07a11,11,0,0,1,19.05,1.44,1.51,1.51,0,0,1-2.72,1.29,8,8,0,0,0-13.85-1.06L396.91,482A1.53,1.53,0,0,1,395.66,482.62Z"/><path class="cls-6" d="M379.69,506.28a1.49,1.49,0,0,1-.83-.25,1.51,1.51,0,0,1-.41-2.09l3.94-5.84a1.5,1.5,0,0,1,2.49,1.68l-3.94,5.84A1.49,1.49,0,0,1,379.69,506.28Z"/><path class="cls-19" d="M141.62,86.55c-1.6-13.69,14-33,42.17-15.94.77-6.48,36.13-26.64,52.51,15.78,2.8-10.29,28.47-5.13,33.09,12.26,9.64-4.29,32.85,17.26,2.14,21-39.22,4.75-129.06,3.37-145.17-20.16S141.62,86.55,141.62,86.55Z"/><path class="cls-20" d="M310,135.57c-.89-7.56,7.72-18.24,23.3-8.81.43-3.58,20-14.72,29,8.72,1.55-5.68,15.73-2.83,18.28,6.78,5.34-2.37,18.16,9.54,1.19,11.59-21.68,2.63-71.34,1.87-80.24-11.14S310,135.57,310,135.57Z"/><path class="cls-6" d="M592.71,227.69c2,.36,4,.77,5.92,1.23a1,1,0,1,1-.45,1.94c-1.93-.45-3.88-.85-5.83-1.2a1,1,0,0,1,.36-2Z"/><path class="cls-6" d="M610.08,232.42a46.6,46.6,0,0,1,10.63,5.7,1,1,0,0,1-1.19,1.61h0a44.38,44.38,0,0,0-10.17-5.45,1,1,0,0,1,.73-1.86Z"/><path class="cls-6" d="M628.54,247.49a17.86,17.86,0,0,1,1.45,6.06,20.31,20.31,0,0,1-.62,6.17,1,1,0,1,1-1.93-.49,18.33,18.33,0,0,0,.56-5.56,15.93,15.93,0,0,0-1.29-5.39,1,1,0,1,1,1.83-.79Z"/><path class="cls-6" d="M623.93,270.58a52.74,52.74,0,0,1-8.35,8.67,1,1,0,0,1-1.41-.13,1,1,0,0,1,.13-1.4h0a50.67,50.67,0,0,0,8-8.34,1,1,0,0,1,1.6,1.2Z"/><path class="cls-6" d="M605.75,286.11A82.17,82.17,0,0,1,595,291.38a1,1,0,0,1-1.3-.55,1,1,0,0,1,.55-1.3,80.19,80.19,0,0,0,10.49-5.14,1,1,0,0,1,1,1.72Z"/><path class="cls-6" d="M583.82,295.42q-5.66,1.83-11.41,3.33a1,1,0,1,1-.51-1.93q5.7-1.49,11.3-3.3a1,1,0,1,1,.62,1.9Z"/><path class="cls-6" d="M560.84,301.47c-3.87.82-7.76,1.54-11.66,2.2a1,1,0,1,1-.33-2c3.87-.65,7.74-1.37,11.58-2.18a1,1,0,0,1,.41,2Z"/><path class="cls-6" d="M537.45,305.44l-11.77,1.43a1,1,0,0,1-1.11-.87,1,1,0,0,1,.87-1.11h0l11.72-1.43h0a1,1,0,0,1,1.11.87,1,1,0,0,1-.86,1.11Z"/><path class="cls-6" d="M513.89,308.06l-11.8,1a1,1,0,0,1-.17-2h0l11.77-1h0a1,1,0,1,1,.18,2Z"/><path class="cls-6" d="M490.3,310.08c-3.93.3-7.83.73-11.75,1.09h0a1,1,0,1,1-.19-2c3.94-.36,7.88-.8,11.81-1.1h0a1,1,0,1,1,.15,2Z"/><path class="cls-6" d="M466.85,312.68q-5.84.85-11.62,1.95a1,1,0,1,1-.38-1.95q5.83-1.11,11.71-2a1,1,0,0,1,.29,2Z"/><path class="cls-6" d="M443.69,317.08q-5.73,1.35-11.4,3a1,1,0,0,1-.55-1.91q5.72-1.63,11.5-3a1,1,0,0,1,.45,1.94Z"/><path class="cls-6" d="M421.05,323.57q-5.58,1.9-11,4.11a1,1,0,1,1-.74-1.84q5.5-2.23,11.14-4.15a1,1,0,1,1,.64,1.88Z"/><path class="cls-6" d="M399.23,332.4c-3.54,1.68-7,3.47-10.47,5.36a1,1,0,1,1-1-1.74q5.2-2.86,10.58-5.41a1,1,0,1,1,.85,1.79Z"/><path class="cls-6" d="M378.64,343.77c-3.3,2.11-6.54,4.33-9.69,6.66a1,1,0,1,1-1.18-1.59q4.78-3.54,9.8-6.74a1,1,0,0,1,1.07,1.67Z"/><path class="cls-6" d="M359.73,357.74q-4.49,3.81-8.69,7.92a1,1,0,1,1-1.39-1.41q4.26-4.17,8.8-8a1,1,0,0,1,1.39.11,1,1,0,0,1-.11,1.4Z"/><path class="cls-6" d="M342.92,374.17q-3.92,4.4-7.52,9.05a1,1,0,1,1-1.56-1.22q3.65-4.69,7.6-9.15a1,1,0,0,1,1.48,1.32Z"/><path class="cls-6" d="M328.51,392.75q-3.3,4.88-6.27,10a1,1,0,1,1-1.71-1q3-5.13,6.34-10.06a1,1,0,0,1,1.37-.27,1,1,0,0,1,.27,1.38Z"/><path class="cls-6" d="M316.59,413q-2.67,5.25-5,10.64a1,1,0,1,1-1.81-.79q2.38-5.44,5.09-10.75a1,1,0,0,1,1.76.9Z"/><path class="cls-6" d="M307.09,434.58,305,440.1l-2.16,5.52a1,1,0,1,1-1.84-.71v0l2.15-5.5,2.13-5.5v0a1,1,0,0,1,1.84.72Z"/><path class="cls-6" d="M298.23,456.53a40.78,40.78,0,0,0-1.77,5.49,48.94,48.94,0,0,0-1,5.71,1,1,0,1,1-2-.22,51.27,51.27,0,0,1,1-5.95,42.87,42.87,0,0,1,1.86-5.75,1,1,0,0,1,1.84.72Z"/><path class="cls-6" d="M294.64,479.48l-.31,6a1,1,0,1,1-2-.1l.3-6a1,1,0,0,1,2,.1h0Z"/><rect class="cls-21" x="161.25" y="540.62" width="9.54" height="103.16" transform="translate(332.04 1184.4) rotate(180)"/><path class="cls-22" d="M124.25,639.56H207.8a0,0,0,0,1,0,0v2.65a3.56,3.56,0,0,1-3.56,3.56H127.55a3.3,3.3,0,0,1-3.3-3.3v-2.91A0,0,0,0,1,124.25,639.56Z" transform="translate(332.04 1285.32) rotate(180)"/><rect class="cls-23" x="108.45" y="516.05" width="111.64" height="31.66" rx="10.9" ry="10.9"/><path class="cls-24" d="M219.15,625.5s27.24,19.64,22.51,32.83c0,0-29.8-12.86-33.4-23s.61-14.6.61-14.6Z"/><path class="cls-25" d="M215.06,609.05l-4.46,12.87a4.48,4.48,0,0,0,1.74,5.26A11.49,11.49,0,0,0,216,628.6,5.22,5.22,0,0,0,221.8,626l5.32-10Z"/><path class="cls-26" d="M171.71,493.15s55.95,9.7,79.95,31.87-22,92.89-22,92.89-7.54,0-16.68-7.88c0,0,27.3-53.19,3.77-68.7C190.28,523.89,159.81,520,159.81,520l11.36-25.1Z"/><path class="cls-27" d="M236.93,651c-6-2.77-23-14.64-25.81-15.17s-7.82,2.84-7.82,2.84-1.21,2.17.08,5.95c4,4.82,12.82,14,24.71,17.42,8.74,2.52,14.85.18,18.66-2.57A25.25,25.25,0,0,0,236.93,651Z"/><path class="cls-28" d="M228.09,662.07c-11.89-3.42-20.73-12.6-24.71-17.42.87,2.56,2.88,5.85,7.18,9.71,10.66,9.58,31,13,35.34,12.37,3.47-.54,3.14-3.74.85-7.23C242.94,662.25,236.83,664.59,228.09,662.07Z"/><path class="cls-29" d="M198.22,630.32c.06,1.65,3.44,7.31,5.41,10.49a5.13,5.13,0,0,0,4.36,2.43,12.82,12.82,0,0,0,3.59-.43,3.33,3.33,0,0,0,2.24-4.15L210,625.5Z"/><path class="cls-30" d="M117.86,476.36s-12.43,33.22,0,43.32,42.06,21.48,48.69,41.61,17.85,59.23,32.89,73.08c0,0,10.57-1,14.52-5.23,0,0-8.56-58.39-14.21-73.37-4.89-13-12.1-31.7-25.91-42.16-4-3-3.27-7.75-1.43-12.36l3.33-8.39Z"/><path class="cls-31" d="M247.45,450.31c-20.84,1.26-14.35-32-14-33.35L201.86,439.3s1.67,17.8,28,27.13a32.57,32.57,0,0,0,18.11,1.31A28.73,28.73,0,0,1,247.45,450.31Z"/><path class="cls-32" d="M287.73,440.3c-7.76-5.4-16.56,0-16.56,0-10.38,6.79-18.06,9.67-23.72,10a28.73,28.73,0,0,0,.48,17.43c11.63-2.49,19.95-10.91,23.56-15.23a3.77,3.77,0,0,1,5.2-.57c1.62,1.28,3.19,3,2.9,4.87-.56,3.62,3.65,4.78,4,3.46s-1.44-9.11-1.44-9.11,8.42,8.46,11.7,11.72,7.42,0,7.42,0S295.49,445.7,287.73,440.3Z"/><path class="cls-33" d="M150.3,365.56S180.61,353.43,237,400c0,0,4.71,9.76-.43,18.44s-54.11,51-60.85,74.43c0,0-29.17,9.48-59.35-13C116.39,479.86,119.06,414.58,150.3,365.56Z"/><path class="cls-34" d="M210.22,354.73,195.3,372.82a5.92,5.92,0,0,0-.78,6.38c2.07,4.23,7,10.38,17.88,9.53a9.16,9.16,0,0,0,7.53-5.14L230.36,362Z"/><path class="cls-35" d="M126.84,443C123.32,428.7,159,396.75,159,396.75l-8.66-31.19S73.34,416.79,93,458a29.91,29.91,0,0,0,10.87,12.81C110,454.12,119.9,446.47,126.84,443Z"/><path class="cls-36" d="M126.81,440.94a.84.84,0,0,1-.82-.64c-3.59-14.65,30.91-45.78,32.38-47.1a.84.84,0,1,1,1.13,1.25c-.36.32-35.23,31.77-31.87,45.45a.85.85,0,0,1-.62,1A.65.65,0,0,1,126.81,440.94Z"/><path class="cls-37" d="M180.82,441.8s-42.26,16.4-52.57,4.06a6.87,6.87,0,0,1-1.41-2.83c-6.94,3.44-16.81,11.09-23,27.77,22.22,14.2,60.21-7.9,70.48-14.41a7.62,7.62,0,0,1,5.68-1c4,.82,10.8,2,14.5,1.46,5.4-.84,13.15,18.21,21.9,12.34C216.39,469.15,208.9,436,180.82,441.8Z"/><path class="cls-38" d="M242.69,328.16c.15.58-3.5,40.12-3.5,40.12l-22.53-2.56-2.11-38S240.17,318.43,242.69,328.16Z"/><path class="cls-39" d="M220.41,335.61,220,355.69a2.44,2.44,0,0,0,.09.76c.39,1.53,2.12,6.68,7.29,4.59,4.69-1.91,9-3.57,12.16-3a2.8,2.8,0,0,1,2.27,3,121,121,0,0,1-3.08,18.58,2.8,2.8,0,0,1-3.2,2c-4.3-.76-13.33-2.62-20.25-5.81a2.81,2.81,0,0,1-1.63-2.36c-.34-5-1.42-20.28-2.38-24.48-.9-3.95-6.07-5.8-8.3-6.43a2.73,2.73,0,0,1-1.69-1.36C200,338.87,198,333.3,205,330.16a2.81,2.81,0,0,0,1.37-3.8c-1.39-2.86-2.34-7.35,3-10.46s10-.61,12.52,1.6a2.81,2.81,0,0,0,3.6,0,2.2,2.2,0,0,1,2.52-.19,2.76,2.76,0,0,0,3.76-1.61c1.06-2.94,3.5-6.23,9.15-5.89,10,.61,12.35,11.41,10.46,18.09s-12.74,5.41-18.41,2.76c-4.3-2-9.25,1.14-11.38,2.76A2.81,2.81,0,0,0,220.41,335.61Z"/><path class="cls-40" d="M211.14,356.34s2.8-11.78-1.66-14.1S199,342,201.26,350.1C204.07,360.14,211.14,356.34,211.14,356.34Z"/><path class="cls-41" d="M202.47,474.15h.2l88.66-.09a4,4,0,0,0,0-7.94l-88.66.1a4,4,0,0,0-.19,7.93Z"/><path class="cls-42" d="M371,393.65H297.19a14.1,14.1,0,0,0-12.73,8.07L250.33,474.1h91.76a8.54,8.54,0,0,0,8-5.41l26.47-67A5.9,5.9,0,0,0,371,393.65Z"/><path class="cls-43" d="M319,430.76c-1.6,5-.42,9.8,2.64,10.79s6.83-2.25,8.43-7.22.42-9.8-2.64-10.79S320.61,425.79,319,430.76Z"/><path class="cls-44" d="M359.06,664.3a3.81,3.81,0,0,0,1.47-.29,3.57,3.57,0,0,0,2-4.74L284.34,483.42a3.76,3.76,0,0,0-4.89-1.89,3.56,3.56,0,0,0-1.95,4.74l78.13,175.85A3.74,3.74,0,0,0,359.06,664.3Z"/><path class="cls-45" d="M271,664.3a3.73,3.73,0,0,0,3.43-2.18l78.13-175.85a3.56,3.56,0,0,0-1.95-4.74,3.76,3.76,0,0,0-4.89,1.89L267.61,659.27a3.57,3.57,0,0,0,1.95,4.74A3.81,3.81,0,0,0,271,664.3Z"/><path class="cls-46" d="M117.19,664.3a3.81,3.81,0,0,0,1.47-.29,3.56,3.56,0,0,0,2-4.74L42.48,483.42a3.78,3.78,0,0,0-4.9-1.89,3.57,3.57,0,0,0-1.95,4.74l78.14,175.85A3.73,3.73,0,0,0,117.19,664.3Z"/><path class="cls-47" d="M29.17,664.3a3.71,3.71,0,0,0,3.42-2.18l78.14-175.85a3.57,3.57,0,0,0-2-4.74,3.76,3.76,0,0,0-4.89,1.89L25.75,659.27A3.57,3.57,0,0,0,27.7,664,3.81,3.81,0,0,0,29.17,664.3Z"/><path class="cls-48" d="M20,478a4.35,4.35,0,0,1,.74-3.25,3.39,3.39,0,0,1,2.72-1.43H378.92a4,4,0,0,1,3.41,2.08,5,5,0,0,1,.26,4.34l-3.85,9.34a5.38,5.38,0,0,1-4.9,3.5H25.9a4.23,4.23,0,0,1-4-3.7Z"/><path class="cls-49" d="M378.59,623.73a1,1,0,0,1-.85-.48c-.7-1.15-1.38-2.33-2-3.52a1,1,0,0,1,1.77-.94c.61,1.15,1.27,2.3,1.95,3.42a1,1,0,0,1-.34,1.38A1.07,1.07,0,0,1,378.59,623.73Z"/><path class="cls-49" d="M371.55,608.06a1,1,0,0,1-1-.71,70.7,70.7,0,0,1-1.8-7.23l-.15-.78a1,1,0,1,1,2-.36l.15.75a66.27,66.27,0,0,0,1.76,7,1,1,0,0,1-.67,1.25A.93.93,0,0,1,371.55,608.06ZM368.47,587h0a1,1,0,0,1-1-1,69,69,0,0,1,.56-8.24,1,1,0,0,1,2,.25,67.07,67.07,0,0,0-.54,8A1,1,0,0,1,368.47,587Zm3.46-21a1.12,1.12,0,0,1-.31,0,1,1,0,0,1-.64-1.26,70.44,70.44,0,0,1,3-7.68,1,1,0,1,1,1.81.85,69.07,69.07,0,0,0-2.95,7.45A1,1,0,0,1,371.93,566Zm9.68-19a1,1,0,0,1-.81-1.58,70.86,70.86,0,0,1,5.2-6.4,1,1,0,0,1,1.42-.06,1,1,0,0,1,.06,1.41,70.07,70.07,0,0,0-5.06,6.22A1,1,0,0,1,381.61,547Zm14.94-15.14a1,1,0,0,1-.6-1.8,70,70,0,0,1,6.9-4.52,1,1,0,1,1,1,1.74,69,69,0,0,0-6.71,4.38A.94.94,0,0,1,396.55,531.9ZM415.38,522a1,1,0,0,1-.32-1.95,71.88,71.88,0,0,1,7.95-2.2,1,1,0,1,1,.42,2A68.54,68.54,0,0,0,415.7,522,1.13,1.13,0,0,1,415.38,522Zm29.09-3.42h-.1a69,69,0,0,0-8-.29,1,1,0,0,1-.05-2,70.86,70.86,0,0,1,8.25.3,1,1,0,0,1-.09,2Z"/><path class="cls-49" d="M461.27,522.37a1,1,0,0,1-.34-.06c-1.22-.44-2.48-.86-3.74-1.23a1,1,0,0,1-.67-1.24,1,1,0,0,1,1.24-.68c1.29.39,2.59.81,3.85,1.27a1,1,0,0,1-.34,1.94Z"/><path class="cls-49" d="M501.57,560.31a1,1,0,0,1-.92-.61c-.51-1.2-1.07-2.4-1.65-3.58a1,1,0,0,1,.45-1.34,1,1,0,0,1,1.34.45c.6,1.21,1.17,2.45,1.7,3.69a1,1,0,0,1-.53,1.31A1.09,1.09,0,0,1,501.57,560.31Z"/><path class="cls-49" d="M435.75,657h0a68.45,68.45,0,0,1-8.09-.7,1,1,0,1,1,.29-2,68.89,68.89,0,0,0,7.86.69,1,1,0,0,1,0,2Zm13-.84a1,1,0,0,1-.16-2q1.18-.18,2.37-.42c1.79-.35,3.59-.77,5.34-1.26a1,1,0,0,1,.54,1.93c-1.8.5-3.65.94-5.5,1.3-.81.16-1.62.3-2.43.43Zm20-6.35a1,1,0,0,1-.45-1.9,66.06,66.06,0,0,0,6.85-3.9,1,1,0,0,1,1.39.29,1,1,0,0,1-.3,1.38,68.14,68.14,0,0,1-7,4A.87.87,0,0,1,468.66,649.77Zm17.12-12a1,1,0,0,1-.69-1.72,69.83,69.83,0,0,0,5.37-5.77,1,1,0,0,1,1.4-.14,1,1,0,0,1,.14,1.41,70.68,70.68,0,0,1-5.53,6A1,1,0,0,1,485.78,637.73Zm12.76-16.59a.91.91,0,0,1-.48-.13,1,1,0,0,1-.4-1.35,69.46,69.46,0,0,0,3.42-7.12,1,1,0,0,1,1.84.76,68.28,68.28,0,0,1-3.51,7.32A1,1,0,0,1,498.54,621.14Zm7.25-19.65a.65.65,0,0,1-.2,0,1,1,0,0,1-.78-1.18,68.13,68.13,0,0,0,1.12-7.8,1,1,0,0,1,2,.17,70.44,70.44,0,0,1-1.16,8A1,1,0,0,1,505.79,601.49Zm1-20.91a1,1,0,0,1-1-.89c-.21-2.05-.52-4.12-.92-6.15-.11-.55-.22-1.1-.34-1.64a1,1,0,0,1,1.95-.43c.13.56.24,1.12.35,1.69.41,2.09.73,4.21.95,6.32a1,1,0,0,1-.9,1.1Z"/><path class="cls-49" d="M415.11,653.17a1,1,0,0,1-.32-.06c-1.27-.44-2.55-.92-3.79-1.44a1,1,0,0,1-.55-1.3,1,1,0,0,1,1.31-.55c1.21.51,2.45,1,3.68,1.4a1,1,0,0,1,.62,1.28A1,1,0,0,1,415.11,653.17Z"/><path class="cls-50" d="M411.46,632.93a.83.83,0,0,0,1,0l8.28-5.83a44.42,44.42,0,0,0,13.91,3.29l4.79,8.91a.83.83,0,0,0,.87.43l12-2a.83.83,0,0,0,.69-.68l1.72-10a44.42,44.42,0,0,0,12.16-7.52l9.7,2.92a.84.84,0,0,0,.92-.31l7.1-9.86a.83.83,0,0,0,0-1l-5.83-8.27A44.19,44.19,0,0,0,482,589.2l8.92-4.79a.81.81,0,0,0,.43-.86l-1.95-12a.82.82,0,0,0-.68-.68l-10-1.73A44.22,44.22,0,0,0,471.24,557l2.92-9.7a.84.84,0,0,0-.31-.92l-9.86-7.1a.84.84,0,0,0-1,0l-8.27,5.84a44.2,44.2,0,0,0-13.92-3.29L436,532.89a.81.81,0,0,0-.86-.42l-12,1.94a.83.83,0,0,0-.68.68l-1.73,10a44,44,0,0,0-12.16,7.52l-9.69-2.92a.84.84,0,0,0-.92.31l-7.1,9.86a.83.83,0,0,0,0,1l5.84,8.28A44.21,44.21,0,0,0,393.44,583l-8.92,4.79a.83.83,0,0,0-.42.87l1.94,12a.84.84,0,0,0,.68.69l10,1.72a44,44,0,0,0,7.52,12.16l-2.92,9.7a.83.83,0,0,0,.31.92Z"/><path class="cls-6" d="M437.73,598.39a12.27,12.27,0,1,1,4.88-1h0A12.4,12.4,0,0,1,437.73,598.39Zm0-21.58a9.29,9.29,0,1,0,3.71,17.81h0a9.29,9.29,0,0,0,4.83-12.21A9.3,9.3,0,0,0,437.71,576.81Z"/><path class="cls-6" d="M437.82,616.7h-1.57l.15-3a28.66,28.66,0,0,0,5.92-.32,27.67,27.67,0,0,0,17.26-10.08c.29-.36.57-.74.85-1.12a27.64,27.64,0,0,0,5.26-16.21,28.78,28.78,0,0,0-.37-4.51,27.82,27.82,0,0,0-55.28,4.4,28.57,28.57,0,0,0,.36,4.51,27.83,27.83,0,0,0,6.18,13.47l-2.29,1.94a30.8,30.8,0,0,1-6.85-14.93,31.3,31.3,0,0,1-.4-5,30.82,30.82,0,0,1,61.24-4.87,31.32,31.32,0,0,1,.41,5A30.85,30.85,0,0,1,442.8,616.3h0l-.55.08A31.33,31.33,0,0,1,437.82,616.7Z"/><path class="cls-49" d="M487.85,553.38a1,1,0,0,1-.85-.48,38,38,0,0,1-1.95-3.61,1,1,0,1,1,1.8-.86,37.87,37.87,0,0,0,1.86,3.43,1,1,0,0,1-.34,1.37A1,1,0,0,1,487.85,553.38Z"/><path class="cls-49" d="M482.53,538.54a1,1,0,0,1-1-.86,39.65,39.65,0,0,1-.41-5.76q0-.87,0-1.71a1,1,0,0,1,1-1,1,1,0,0,1,1,1c0,.54,0,1.08,0,1.63a38.6,38.6,0,0,0,.39,5.47,1,1,0,0,1-.85,1.14Zm1.93-18.89a1.07,1.07,0,0,1-.35-.06,1,1,0,0,1-.6-1.29,40.49,40.49,0,0,1,3.19-6.76,1,1,0,0,1,1.37-.36,1,1,0,0,1,.35,1.37,38.54,38.54,0,0,0-3,6.44A1,1,0,0,1,484.46,519.65ZM495,503.87a1,1,0,0,1-.67-1.74,41.51,41.51,0,0,1,6-4.49,1,1,0,0,1,1.05,1.71,38.71,38.71,0,0,0-5.69,4.26A1,1,0,0,1,495,503.87Zm16.74-8.95a1,1,0,0,1-.24-2c.7-.18,1.41-.34,2.12-.48a42.65,42.65,0,0,1,5.27-.67,1,1,0,0,1,.12,2,36.76,36.76,0,0,0-5,.64c-.68.13-1.36.28-2,.45A1,1,0,0,1,511.77,494.92Z"/><path class="cls-49" d="M534.63,496a1,1,0,0,1-.34-.06c-1.22-.43-2.47-.82-3.73-1.13a1,1,0,1,1,.48-1.94c1.32.33,2.64.73,3.93,1.19a1,1,0,0,1-.34,1.94Z"/><path class="cls-49" d="M558.07,519.11a1,1,0,0,1-.93-.65,39,39,0,0,0-1.56-3.57,1,1,0,0,1,.45-1.34,1,1,0,0,1,1.34.45,39.21,39.21,0,0,1,1.64,3.76,1,1,0,0,1-.58,1.29A1.13,1.13,0,0,1,558.07,519.11Z"/><path class="cls-49" d="M521.72,572.2a1,1,0,0,1-1-1,1,1,0,0,1,1-1,39.67,39.67,0,0,0,6.95-.71,1,1,0,1,1,.38,2,40.92,40.92,0,0,1-7.31.75Zm18.1-4.61a1,1,0,0,1-.47-1.88,38.7,38.7,0,0,0,5.84-3.84,1,1,0,0,1,1.4.16,1,1,0,0,1-.16,1.4,39.67,39.67,0,0,1-6.14,4A1,1,0,0,1,539.82,567.59Zm13.9-12.46a1,1,0,0,1-.56-.17,1,1,0,0,1-.26-1.39,38.79,38.79,0,0,0,3.41-6.1,1,1,0,0,1,1.83.81,40.36,40.36,0,0,1-3.59,6.42A1,1,0,0,1,553.72,555.13Zm6.6-17.47h-.12a1,1,0,0,1-.87-1.11,38.15,38.15,0,0,0,.27-4.54c0-.81,0-1.64-.08-2.45a1,1,0,0,1,2-.13c.05.86.08,1.72.08,2.58a40.09,40.09,0,0,1-.29,4.78A1,1,0,0,1,560.32,537.66Z"/><path class="cls-49" d="M510.17,570.57a1.45,1.45,0,0,1-.29,0,38.58,38.58,0,0,1-3.86-1.38,1,1,0,0,1,.76-1.84c1.2.49,2.44.93,3.67,1.3a1,1,0,0,1-.28,2Z"/><path class="cls-51" d="M506.45,558.15a.47.47,0,0,0,.55,0l4.68-3.3a24.88,24.88,0,0,0,7.87,1.86l2.71,5a.49.49,0,0,0,.49.24l6.79-1.1a.48.48,0,0,0,.38-.39l1-5.64a24.89,24.89,0,0,0,6.88-4.26l5.49,1.66a.48.48,0,0,0,.51-.18l4-5.58a.47.47,0,0,0,0-.54l-3.31-4.69a24.88,24.88,0,0,0,1.86-7.87l5-2.71a.46.46,0,0,0,.24-.49l-1.1-6.78a.47.47,0,0,0-.39-.39l-5.64-1a25.25,25.25,0,0,0-4.25-6.88l1.65-5.48a.46.46,0,0,0-.18-.52l-5.57-4a.47.47,0,0,0-.55,0l-4.68,3.3a25,25,0,0,0-7.87-1.86l-2.72-5.05a.48.48,0,0,0-.49-.24l-6.78,1.1a.49.49,0,0,0-.39.39l-1,5.64a24.89,24.89,0,0,0-6.88,4.26L499.35,511a.5.5,0,0,0-.52.18l-4,5.58a.47.47,0,0,0,0,.54l3.3,4.69a24.88,24.88,0,0,0-1.86,7.87l-5,2.71a.45.45,0,0,0-.24.49l1.1,6.78a.46.46,0,0,0,.38.39l5.64,1a25,25,0,0,0,4.26,6.88l-1.65,5.48a.47.47,0,0,0,.17.52Z"/><path class="cls-6" d="M521.32,539.26a7.61,7.61,0,1,1,3-.63h0A7.5,7.5,0,0,1,521.32,539.26Zm2.41-2h0Zm-2.42-10.21a4.69,4.69,0,0,0-1.83.38,4.6,4.6,0,1,0,3.66,8.45h0a4.61,4.61,0,0,0,2.39-6,4.56,4.56,0,0,0-2.53-2.46A4.73,4.73,0,0,0,521.31,527.05Z"/><path class="cls-6" d="M521.36,549.62c-.31,0-.62,0-.92,0l.15-3a15.69,15.69,0,0,0,3.21-.18h0a15.12,15.12,0,0,0,12.61-16.28c0-.34-.08-.68-.13-1a15.09,15.09,0,0,0-30,2.41,16.82,16.82,0,0,0,.2,2.43,15.11,15.11,0,0,0,3.35,7.3l-2.29,1.94a18.09,18.09,0,1,1,31.69-14.56,18.11,18.11,0,0,1-15,20.75h0c-.6.1-1.2.16-1.8.2h-.28Z"/><path class="cls-52" d="M438.22,243.65a14.68,14.68,0,0,1-17.5-11.18L393.84,110.55A12.93,12.93,0,0,1,403,95.29l174.78-48a9.54,9.54,0,0,1,11.81,7L623,193.47a9.05,9.05,0,0,1-6.86,10.95Z"/><path class="cls-53" d="M424.4,236.22a4.27,4.27,0,0,1-5.2-3.8c-1.41-17.15-7.05-75.95-21.12-122.48a4,4,0,0,1,2.72-5L576.27,56.41a4.54,4.54,0,0,1,5.58,3.13c5.57,19.65,28.2,100.64,31.58,130.56a3.59,3.59,0,0,1-2.78,3.91Z"/><path class="cls-54" d="M428.42,233.28a4.1,4.1,0,0,1-5-3.66c-1.36-16.5-6.79-73.08-20.33-117.87A3.79,3.79,0,0,1,405.7,107L574.57,60.23a4.38,4.38,0,0,1,5.37,3c5.35,18.91,27.13,96.85,30.39,125.64a3.46,3.46,0,0,1-2.67,3.76Z"/><path class="cls-55" d="M424.94,110.71l-1.62.36a3.28,3.28,0,0,1-3.91-2.49l-5.23-23.76a3.26,3.26,0,0,1,1.31-3.38l3.09-2.18a3.27,3.27,0,0,1,5.13,2.2L427.48,107A3.27,3.27,0,0,1,424.94,110.71Z"/><path class="cls-56" d="M457.89,101.58l-1.62.36a3.27,3.27,0,0,1-3.9-2.49l-5.24-23.76a3.27,3.27,0,0,1,1.31-3.39l3.1-2.18a3.27,3.27,0,0,1,5.12,2.21l3.77,25.58A3.27,3.27,0,0,1,457.89,101.58Z"/><path class="cls-57" d="M502.35,91.78l-1.62.36a3.28,3.28,0,0,1-3.91-2.5l-5.24-23.75a3.3,3.3,0,0,1,1.32-3.39L496,60.32a3.28,3.28,0,0,1,5.13,2.2l3.77,25.58A3.28,3.28,0,0,1,502.35,91.78Z"/><path class="cls-58" d="M546.28,79.57l-1.62.36a3.28,3.28,0,0,1-3.91-2.49l-5.24-23.76a3.28,3.28,0,0,1,1.32-3.38l3.09-2.18a3.27,3.27,0,0,1,5.13,2.2l3.77,25.58A3.27,3.27,0,0,1,546.28,79.57Z"/><path class="cls-59" d="M509.79,112.25l2.72,12.32a3.45,3.45,0,0,0,4.16,2.62l12.59-3a3.43,3.43,0,0,0,2.57-4.09l-2.85-13a3.45,3.45,0,0,0-4.33-2.56L512.2,108.2A3.45,3.45,0,0,0,509.79,112.25Z"/><path class="cls-59" d="M469.62,138.5l12.59-3a3.45,3.45,0,0,0,2.57-4.1l-2.43-11a3.44,3.44,0,0,0-4.3-2.58l-12.47,3.51a3.43,3.43,0,0,0-2.43,4.06l2.31,10.49A3.44,3.44,0,0,0,469.62,138.5Z"/><path class="cls-59" d="M493.89,190.42l-12,2.79a3.76,3.76,0,0,0-2.82,4.48l2.48,11.25a3.76,3.76,0,0,0,4.4,2.88l12.08-2.39a3.76,3.76,0,0,0,2.94-4.5l-2.57-11.65A3.76,3.76,0,0,0,493.89,190.42Z"/><path class="cls-59" d="M477.27,209.7l-2.43-11a3.69,3.69,0,0,0-4.45-2.81l-12.11,2.82a3.7,3.7,0,0,0-2.77,4.4l2.34,10.61a3.7,3.7,0,0,0,4.33,2.83l12.2-2.42A3.7,3.7,0,0,0,477.27,209.7Z"/><path class="cls-59" d="M466.31,160l-2-9a4,4,0,0,0-4.83-3L448,150.79a4,4,0,0,0-2.95,4.73l1.91,8.63a4,4,0,0,0,4.7,3l11.62-2.42A4,4,0,0,0,466.31,160Z"/><path class="cls-59" d="M472.1,186.27l-3-13.82a3.7,3.7,0,0,0-4.37-2.82L452.8,172.1a4,4,0,0,0-3.08,4.76l3.07,13.94a3.7,3.7,0,0,0,4.49,2.79l12.08-2.93A3.69,3.69,0,0,0,472.1,186.27Z"/><path class="cls-59" d="M493.17,132.93l12.58-3a3.44,3.44,0,0,0,2.58-4.09l-2.65-12a3.44,3.44,0,0,0-4.3-2.58l-12.47,3.51a3.45,3.45,0,0,0-2.44,4.06L489,130.31A3.46,3.46,0,0,0,493.17,132.93Z"/><path class="cls-59" d="M495.6,180.5l-2.85-12.92a3.76,3.76,0,0,0-4.44-2.88l-12.05,2.51a3.77,3.77,0,0,0-2.9,4.5L476.29,185a3.77,3.77,0,0,0,4.57,2.85l12-2.9A3.76,3.76,0,0,0,495.6,180.5Z"/><path class="cls-59" d="M507.62,136.19l-13.73,3.36a2.85,2.85,0,0,0-2.1,3.39l2.74,12.42a2.85,2.85,0,0,0,3.37,2.18l13.82-2.88a2.86,2.86,0,0,0,2.21-3.41l-2.85-12.9A2.85,2.85,0,0,0,507.62,136.19Z"/><path class="cls-59" d="M515.44,137.88l2.61,11.84a3.6,3.6,0,0,0,4.24,2.74l12.39-2.58a3.59,3.59,0,0,0,2.77-4.29l-2.7-12.26a3.58,3.58,0,0,0-4.36-2.71l-12.3,3A3.58,3.58,0,0,0,515.44,137.88Z"/><path class="cls-59" d="M474.21,162.48,488,159.6a2.85,2.85,0,0,0,2.2-3.41l-2.66-12.09a2.86,2.86,0,0,0-3.47-2.16l-13.72,3.36a2.86,2.86,0,0,0-2.11,3.39l2.56,11.61A2.85,2.85,0,0,0,474.21,162.48Z"/><path class="cls-59" d="M512,159.76,500,162.28a3.76,3.76,0,0,0-2.91,4.49l2.77,12.55a3.75,3.75,0,0,0,4.56,2.84l12-2.9a3.77,3.77,0,0,0,2.79-4.47l-2.68-12.15A3.77,3.77,0,0,0,512,159.76Z"/><path class="cls-59" d="M536.1,154.74l-12.89,2.69a3.33,3.33,0,0,0-2.58,4L523.42,174a3.33,3.33,0,0,0,4,2.52l12.8-3.11a3.32,3.32,0,0,0,2.46-3.95L540,157.29A3.33,3.33,0,0,0,536.1,154.74Z"/><path class="cls-59" d="M447.8,143.5l9.55-2.26a4.78,4.78,0,0,0,3.57-5.69l-1.74-7.91a4.27,4.27,0,0,0-5.32-3.18l-10.52,3a4.68,4.68,0,0,0-3.31,5.51l1.46,6.61A5.23,5.23,0,0,0,447.8,143.5Z"/><path class="cls-59" d="M451.34,204.45a4,4,0,0,0-4.79-3l-4.16,1c-3.17.74-5.25,3.46-4.66,6.1l1.68,7.65c.58,2.62,3.56,4.21,6.73,3.58l4.5-.89a3.71,3.71,0,0,0,2.9-4.43Z"/><path class="cls-59" d="M584.36,169.38l-8.19,1.91a3.77,3.77,0,0,0-2.83,4.48l3.16,14.33a3.76,3.76,0,0,0,4.41,2.88l8.22-1.63c3.28-.65,5.49-3.43,4.89-6.14l-2.71-12.29C590.72,170.22,587.59,168.63,584.36,169.38Z"/><path class="cls-59" d="M441.52,197.42l4.06-1a4,4,0,0,0,2.95-4.72l-3.1-14.05a4,4,0,0,0-4.7-3l-4.11.86c-3.25.67-5.42,3.43-4.82,6.13l2.71,12.29C435.11,196.62,438.28,198.21,441.52,197.42Z"/><path class="cls-59" d="M435.37,170.58l5.15-1.08a3,3,0,0,0,2.32-3.59l-2.24-10.15a3,3,0,0,0-3.65-2.27l-5.16,1.26c-3.12.76-5.15,3.46-4.58,6.07l1.37,6.19C429.16,169.65,432.19,171.24,435.37,170.58Z"/><path class="cls-59" d="M567.1,92.62,559,94.9a3.6,3.6,0,0,0-2.54,4.23l3.13,14.15A3.59,3.59,0,0,0,563.9,116l8.45-2c3.15-.75,5.21-3.46,4.63-6.09l-2.61-11.84C573.75,93.27,570.41,91.68,567.1,92.62Z"/><path class="cls-59" d="M517.46,184.94l-12,2.79a3.77,3.77,0,0,0-2.82,4.48l2.65,12a3.76,3.76,0,0,0,4.41,2.88l12.07-2.39a3.75,3.75,0,0,0,2.94-4.5L522,187.8A3.77,3.77,0,0,0,517.46,184.94Z"/><path class="cls-59" d="M573.41,120.09l-8.31,2a3.59,3.59,0,0,0-2.65,4.26l3,13.46a3.58,3.58,0,0,0,4.24,2.74l8.41-1.75c3.24-.67,5.41-3.43,4.82-6.13l-2.45-11.1C579.84,120.88,576.66,119.29,573.41,120.09Z"/><path class="cls-59" d="M579.31,145.73l-8.74,1.82a3.34,3.34,0,0,0-2.57,4l2.44,11.09a3.33,3.33,0,0,0,4,2.52L583.2,163c3.13-.76,5.17-3.46,4.59-6.08l-1.68-7.65C585.52,146.66,582.5,145.07,579.31,145.73Z"/><path class="cls-59" d="M544.32,156.47l2.61,11.86a3.33,3.33,0,0,0,4,2.52l12.8-3.1a3.34,3.34,0,0,0,2.47-4l-2.52-11.44a3.35,3.35,0,0,0-3.94-2.55l-12.89,2.69A3.33,3.33,0,0,0,544.32,156.47Z"/><path class="cls-59" d="M564.58,174l-12,2.79a3.76,3.76,0,0,0-2.82,4.48l3,13.56a3.76,3.76,0,0,0,4.41,2.88l12.07-2.39a3.76,3.76,0,0,0,2.94-4.51l-3.07-13.95A3.78,3.78,0,0,0,564.58,174Z"/><path class="cls-59" d="M430.5,147.6l5-1.19a3,3,0,0,0,2.24-3.58l-2.18-9.92a3,3,0,0,0-3.76-2.25l-5.25,1.48c-3,.84-4.91,3.47-4.34,6l1.3,5.92C424.12,146.77,427.26,148.36,430.5,147.6Z"/><path class="cls-59" d="M541,179.46l-11.78,2.74a4,4,0,0,0-3,4.73L529,199.52a3.78,3.78,0,0,0,4.42,2.88L545.51,200a3.78,3.78,0,0,0,3-4.51l-2.91-13.18A3.77,3.77,0,0,0,541,179.46Z"/><path class="cls-59" d="M533.12,105.69l2.9,13.17a3.59,3.59,0,0,0,4.33,2.72l12.32-2.92a3.59,3.59,0,0,0,2.68-4.26l-3-13.69A3.59,3.59,0,0,0,547.85,98l-12.2,3.43A3.59,3.59,0,0,0,533.12,105.69Z"/><path class="cls-59" d="M539,132.13l2.79,12.65a3.58,3.58,0,0,0,4.23,2.74l12.4-2.58a3.6,3.6,0,0,0,2.77-4.29l-2.89-13.07a3.58,3.58,0,0,0-4.35-2.72l-12.3,3A3.6,3.6,0,0,0,539,132.13Z"/><path class="cls-6" d="M422.79,121.81l1.58,4a2.8,2.8,0,0,0,3.21,1.72l.2-.05a2.8,2.8,0,0,0,2.13-3.34l-.94-4.27a2.79,2.79,0,0,0-3.69-2l-.83.3A2.8,2.8,0,0,0,422.79,121.81Z"/><path class="cls-6" d="M441.8,116.06l1.57,4a2.81,2.81,0,0,0,3.22,1.72l.19,0a2.81,2.81,0,0,0,2.14-3.35l-.94-4.27a2.81,2.81,0,0,0-3.7-2l-.83.3A2.8,2.8,0,0,0,441.8,116.06Z"/><path class="cls-6" d="M465.58,110.63l1.57,4a2.81,2.81,0,0,0,3.22,1.71l.2,0A2.81,2.81,0,0,0,472.7,113l-.94-4.27a2.81,2.81,0,0,0-3.7-2l-.83.3A2.8,2.8,0,0,0,465.58,110.63Z"/><path class="cls-6" d="M488.42,104l1.57,4a2.81,2.81,0,0,0,3.22,1.72l.2,0a2.8,2.8,0,0,0,2.13-3.34l-.94-4.27a2.8,2.8,0,0,0-3.69-2l-.83.3A2.8,2.8,0,0,0,488.42,104Z"/><path class="cls-6" d="M511.41,95.21l1.57,4a2.81,2.81,0,0,0,3.22,1.71l.19,0a2.81,2.81,0,0,0,2.14-3.35l-.94-4.27a2.81,2.81,0,0,0-3.7-2l-.83.3A2.8,2.8,0,0,0,511.41,95.21Z"/><path class="cls-6" d="M536.66,89.65l1.58,4a2.79,2.79,0,0,0,3.21,1.71l.2,0A2.8,2.8,0,0,0,543.78,92l-.94-4.27a2.8,2.8,0,0,0-3.69-2l-.83.3A2.82,2.82,0,0,0,536.66,89.65Z"/><path class="cls-6" d="M557.76,84.05l1.58,4a2.79,2.79,0,0,0,3.21,1.72l.2,0a2.82,2.82,0,0,0,2.14-3.35l-.95-4.27a2.8,2.8,0,0,0-3.69-2l-.83.3A2.81,2.81,0,0,0,557.76,84.05Z"/><path class="cls-60" d="M535.52,141.29a1,1,0,0,0-1.86-.33c-1.58,2-1.79,4.58-2.21,7-.49,2.86-.93,5.74-1.24,8.63a75.72,75.72,0,0,0-.43,9.16,64.07,64.07,0,0,0-7.14-8.89c-.71-.72-2,.12-1.49,1.06,3.07,5.46,6.49,10.71,9.47,16.22a1.89,1.89,0,0,0,3.51-1.28,68.44,68.44,0,0,1-.08-16.74c.29-2.67.7-5.32,1.15-8C535.59,145.85,536.23,143.61,535.52,141.29Z"/><path class="cls-61" d="M539.25,145a1.36,1.36,0,0,0-.14,2.72c11.39,2,15.83,14.46,10.28,24-2.58,4.41-6.46,8.29-10.2,11.72s-8.24,6.52-13.45,7.24c-12.07,1.68-16.58-9.93-15.31-20a34.11,34.11,0,0,1,14.9-23.81c1-.7.15-2.46-.92-1.75a38.39,38.39,0,0,0-15.8,21.42c-2.32,8.08-2.31,18.68,4.71,24.52,7.27,6,17.69,3.65,24.78-1.33,7.79-5.47,17-14.35,18.22-24.28C557.6,155,550.33,144.39,539.25,145Z"/><path class="cls-62" d="M507.45,151c-.71-2.76-1.3-5.73-3-8-.57-.76-1.67-.14-1.77.64-.33,2.55.52,5.12,1.1,7.58.27,1.18.7,2.48,1.06,3.8-2.31-3.75-5.5-8.21-10.15-9s-9.21,2-12.79,4.84c-8.41,6.58-13.75,16.13-21.3,23.56-4.54,4.47-11.55,8.74-16.63,2.47-3.59-4.44-4.08-11.55-3.55-17a38.76,38.76,0,0,1,15-26.59c.6-.47-.13-1.53-.78-1.11a37.16,37.16,0,0,0-16,24.21c-1.61,8.22-1.64,22,7.46,26.08,9.92,4.43,19-7.57,24.37-14.15,3.8-4.66,7.47-9.48,12-13.45,2.56-2.23,5.68-4.73,9.12-5.33,4.75-.84,7.74,3.89,9.78,7.44a2.08,2.08,0,0,0,3.79-.63,15.2,15.2,0,0,1,.33,2.06c-3.61.71-7.86-1.45-11.16.65a.67.67,0,0,0,.11,1.22c3.66,1.19,9.64,2.7,13.36,1.35a2,2,0,0,0,1.48-1.74C509.48,157.05,508.15,153.7,507.45,151Z"/><path class="cls-63" d="M184.73,557.57,182.15,556a1.13,1.13,0,1,1,1.17-1.94h0l2.52,1.59h0a1.11,1.11,0,0,1-1.16,1.89Z"/><path class="cls-63" d="M176.22,552.2l-2.5-1.7a1.23,1.23,0,0,1,1.39-2h0l2.43,1.73h0a1.2,1.2,0,0,1,.29,1.68A1.22,1.22,0,0,1,176.22,552.2Z"/><path class="cls-63" d="M168,546.38l-2.41-1.83a1.33,1.33,0,0,1,1.61-2.12h0l0,0,2.33,1.85h0a1.3,1.3,0,0,1-1.59,2.06Z"/><path class="cls-63" d="M160.11,540.13l-2.3-2a1.41,1.41,0,0,1,1.82-2.15h0l0,0,2.25,2v0a1.37,1.37,0,0,1,.13,2A1.4,1.4,0,0,1,160.11,540.13Z"/><path class="cls-63" d="M152.56,533.46l-2.2-2.07a1.48,1.48,0,0,1,2-2.15h0l0,0,2.14,2.07v0a1.45,1.45,0,0,1-2,2.1Z"/><path class="cls-63" d="M145.36,526.41l-2.09-2.18a1.55,1.55,0,1,1,2.23-2.14h0l0,0,2,2.18h0a1.52,1.52,0,1,1-2.21,2.09Z"/><path class="cls-63" d="M138.52,519l-2-2.3a1.61,1.61,0,0,1,2.44-2.1h0l0,0,1.92,2.28v0a1.6,1.6,0,0,1-2.43,2.07Z"/><path class="cls-63" d="M132.08,511.25l-1.85-2.39a1.69,1.69,0,1,1,2.66-2.07h0l0,0,1.79,2.38v0a1.66,1.66,0,0,1-2.64,2Z"/><path class="cls-63" d="M126.05,503.16l-1.73-2.49a1.76,1.76,0,0,1,2.89-2h0l0,0,1.65,2.46,0,0a1.73,1.73,0,0,1-2.86,2Z"/><path class="cls-63" d="M120.46,494.75l-1.59-2.58a1.82,1.82,0,1,1,3.11-1.91h0l0,0,1.52,2.55v0a1.8,1.8,0,0,1-3.08,1.86Z"/><path class="cls-63" d="M115.34,486l-1.44-2.67a1.89,1.89,0,0,1,3.33-1.79h0l0,0,1.37,2.63,0,0a1.87,1.87,0,0,1-3.31,1.75Z"/><path class="cls-63" d="M110.74,477l-1.28-2.76a1.94,1.94,0,0,1,3.52-1.62h0v0l1.23,2.71v0a1.92,1.92,0,0,1-3.5,1.6Z"/><path class="cls-63" d="M106.69,467.77l-1.1-2.83a2,2,0,1,1,3.68-1.44h0v0l1.06,2.77v0a2,2,0,0,1-3.67,1.42Z"/><path class="cls-63" d="M103.22,458.25l-.92-2.9a2,2,0,0,1,3.85-1.22v.06L107,457v0a2,2,0,0,1-3.83,1.2Z"/><path class="cls-63" d="M100.38,448.52l-.72-2.95a2.06,2.06,0,1,1,4-1v.06l.68,2.88v0a2,2,0,0,1-4,.95Z"/><path class="cls-63" d="M98.21,438.62l-.51-3a2.1,2.1,0,1,1,4.13-.71h0V435l.48,2.91v.05a2.09,2.09,0,0,1-4.12.69Z"/><path class="cls-63" d="M96.75,428.57l-.29-3a2.13,2.13,0,1,1,4.25-.41h0v.05l.26,2.94v.05a2.12,2.12,0,0,1-4.23.39Z"/><path class="cls-63" d="M96,418.44,96,415.38a2.18,2.18,0,0,1,4.36-.08v.07l0,2.95v.05a2.17,2.17,0,0,1-4.33.07Z"/><path class="cls-63" d="M96.12,408.27l.18-3a2.22,2.22,0,1,1,4.43.26v.07l-.2,2.94v.05a2.2,2.2,0,0,1-4.4-.27Z"/><path class="cls-63" d="M97,398.13l.43-3a2.26,2.26,0,0,1,4.47.63v.08l-.44,2.91v0a2.25,2.25,0,0,1-4.45-.64Z"/><path class="cls-63" d="M98.72,388.09l.68-3a2.3,2.3,0,1,1,4.48,1v0l0,.05-.67,2.87v.05a2.29,2.29,0,0,1-4.46-1Z"/><path class="cls-63" d="M101.25,378.22l.91-2.91a2.34,2.34,0,1,1,4.46,1.39v0l0,0-.9,2.8,0,.06a2.32,2.32,0,0,1-4.43-1.41Z"/><path class="cls-63" d="M104.54,368.59l1.13-2.84a2.38,2.38,0,1,1,4.42,1.77h0l0,.05L109,370.31l0,.05a2.37,2.37,0,0,1-4.39-1.77Z"/><path class="cls-63" d="M108.55,359.24l1.33-2.74a2.42,2.42,0,0,1,4.36,2.11v0l0,.05-1.32,2.64,0,0a2.41,2.41,0,0,1-4.32-2.12Z"/><path class="cls-63" d="M113.24,350.22l1.53-2.64A2.43,2.43,0,0,1,119,350h0l0,0-1.49,2.55,0,0a2.43,2.43,0,0,1-4.2-2.44Z"/><path class="cls-63" d="M118.54,341.56l1.7-2.53a2.44,2.44,0,1,1,4.05,2.72h0l0,0-1.65,2.45,0,0a2.44,2.44,0,0,1-4-2.72Z"/><path class="cls-63" d="M124.39,333.26l1.85-2.42a2.45,2.45,0,0,1,3.89,3h0l0,0-1.8,2.34,0,0a2.45,2.45,0,0,1-3.88-3Z"/><path class="cls-63" d="M130.72,325.33l2-2.3a2.46,2.46,0,1,1,3.72,3.21h0l0,0-1.94,2.23,0,0a2.46,2.46,0,0,1-3.72-3.21Z"/><path class="cls-63" d="M137.48,317.79l2.11-2.19a2.47,2.47,0,1,1,3.56,3.42h0l0,0-2.06,2.13,0,0a2.46,2.46,0,0,1-3.55-3.42Z"/><path class="cls-63" d="M144.63,310.62l2.21-2.08a2.48,2.48,0,0,1,3.39,3.61h0l0,0-2.16,2,0,0a2.48,2.48,0,0,1-3.39-3.61Z"/><path class="cls-63" d="M152.12,303.81l2.32-2a2.48,2.48,0,1,1,3.22,3.78h0l0,0-2.26,1.92,0,0a2.49,2.49,0,0,1-3.22-3.79Z"/><path class="cls-63" d="M159.93,297.37l2.39-1.86a2.5,2.5,0,1,1,3.07,3.94h0l0,0L163,301.29l0,0a2.49,2.49,0,0,1-3-3.94Z"/><path class="cls-63" d="M168,291.29l2.48-1.75a2.5,2.5,0,1,1,2.9,4.08h0l-2.43,1.72,0,0a2.51,2.51,0,0,1-2.9-4.09Z"/><path class="cls-63" d="M176.33,285.57l2.54-1.65a2.51,2.51,0,1,1,2.74,4.21h0l-2.49,1.62h0a2.51,2.51,0,0,1-2.73-4.21Z"/><path class="cls-63" d="M184.88,280.19l2.61-1.55a2.52,2.52,0,1,1,2.57,4.34h0l0,0-2.56,1.51,0,0a2.52,2.52,0,1,1-2.57-4.34Z"/><path class="cls-63" d="M193.63,275.15l2.66-1.45a2.54,2.54,0,0,1,2.43,4.45h0l-2.62,1.42h0a2.53,2.53,0,0,1-2.42-4.45Z"/><path class="cls-63" d="M202.56,270.44l2.71-1.35a2.54,2.54,0,0,1,2.27,4.55h0l0,0L204.85,275h0a2.54,2.54,0,0,1-2.26-4.55Z"/><path class="cls-63" d="M211.65,266.05l2.75-1.25a2.55,2.55,0,0,1,2.11,4.65h0l-2.7,1.22,0,0a2.55,2.55,0,0,1-2.1-4.65Z"/><path class="cls-63" d="M220.88,262l2.79-1.16a2.56,2.56,0,1,1,2,4.74h0l-2.75,1.13h0a2.56,2.56,0,0,1-2-4.73Z"/><path class="cls-63" d="M230.25,258.25l2.83-1.06a2.57,2.57,0,1,1,1.8,4.82h0l-2.79,1h0a2.57,2.57,0,0,1-1.79-4.82Z"/><path class="cls-63" d="M239.74,254.84l2.87-1a2.58,2.58,0,0,1,1.63,4.9h0l-2.82.93h0a2.58,2.58,0,1,1-1.63-4.89Z"/><path class="cls-63" d="M249.34,251.76l2.9-.85a2.58,2.58,0,1,1,1.46,5h0l-2.85.84h0a2.59,2.59,0,1,1-1.47-5Z"/><path class="cls-63" d="M259.05,249l2.93-.76a2.57,2.57,0,0,1,1.28,5h0l-2.88.75h0a2.57,2.57,0,1,1-1.29-5Z"/><path class="cls-63" d="M268.85,246.63l2.95-.66a2.56,2.56,0,0,1,1.11,5h0l-2.9.65h0a2.56,2.56,0,0,1-1.12-5Z"/><path class="cls-63" d="M278.72,244.56l3-.56a2.55,2.55,0,0,1,.93,5h0l-2.92.55h0a2.55,2.55,0,0,1-.94-5Z"/><path class="cls-63" d="M288.66,242.83l3-.46a2.53,2.53,0,1,1,.76,5h0l-2.95.45h0a2.54,2.54,0,0,1-.78-5Z"/><path class="cls-63" d="M298.65,241.43l3-.36a2.52,2.52,0,0,1,.59,5h0l-3,.35h0a2.52,2.52,0,1,1-.6-5Z"/><path class="cls-63" d="M308.68,240.36l3-.25a2.51,2.51,0,1,1,.42,5h0l-3,.25h0a2.51,2.51,0,0,1-.43-5Z"/><path class="cls-63" d="M318.75,239.64l3-.15a2.49,2.49,0,0,1,.25,5h0l-3,.16h0a2.5,2.5,0,0,1-.26-5Z"/><path class="cls-63" d="M328.83,239.25l3-.05a2.48,2.48,0,1,1,.08,5h0l-3,.06h0a2.49,2.49,0,1,1-.09-5Z"/><path class="cls-63" d="M338.91,239.21l3,0a2.47,2.47,0,0,1-.09,4.94h0l-3,0h0a2.47,2.47,0,0,1,.08-4.94Z"/><path class="cls-63" d="M349,239.5l3,.16a2.45,2.45,0,1,1-.25,4.9h0l-3-.14h0a2.46,2.46,0,1,1,.24-4.92Z"/><path class="cls-63" d="M359.06,240.14l3,.26a2.44,2.44,0,1,1-.42,4.87h0l-3-.25h0a2.45,2.45,0,1,1,.4-4.88Z"/><path class="cls-63" d="M369.09,241.13l3,.36a2.43,2.43,0,0,1-.59,4.83h0l-2.95-.35h0a2.43,2.43,0,1,1,.57-4.83Z"/><path class="cls-63" d="M379.09,242.46l3,.47a2.41,2.41,0,0,1-.75,4.77h0l-2.94-.45h0a2.42,2.42,0,1,1,.73-4.78Z"/><path class="cls-63" d="M389,244.14l3,.57a2.4,2.4,0,1,1-.91,4.72h0l-2.92-.56h0a2.41,2.41,0,0,1,.9-4.73Z"/><path class="cls-63" d="M398.91,246.16l2.94.68a2.39,2.39,0,1,1-1.07,4.66h0l-2.9-.66h0a2.4,2.4,0,0,1,1.06-4.68Z"/><path class="cls-63" d="M408.71,248.54l2.92.78a2.38,2.38,0,0,1-1.23,4.6h0l-2.88-.76h0a2.38,2.38,0,0,1,1.22-4.61Z"/><path class="cls-63" d="M418.41,251.27l2.89.88a2.37,2.37,0,1,1-1.38,4.53h0l-2.84-.86h0a2.37,2.37,0,0,1,1.38-4.54Z"/><path class="cls-63" d="M428,254.32l2.86,1a2.36,2.36,0,1,1-1.52,4.46h0l-2.82-1h0a2.36,2.36,0,0,1,1.51-4.47Z"/><path class="cls-63" d="M437.51,257.68l2.83,1.07a2.34,2.34,0,0,1-1.65,4.38h0l-2.79-1.05h0a2.35,2.35,0,0,1,1.64-4.4Z"/><path class="cls-63" d="M446.9,261.33l2.79,1.14a2.33,2.33,0,0,1-1.77,4.31h0l-2.76-1.13h0a2.33,2.33,0,1,1,1.76-4.32Z"/><path class="cls-63" d="M456.17,265.23l2.76,1.22a2.32,2.32,0,0,1-1.87,4.24h0l-2.73-1.19h0a2.32,2.32,0,0,1,1.86-4.25Z"/><path class="cls-63" d="M465.34,269.37l2.72,1.28a2.3,2.3,0,0,1-2,4.17h0l-2.7-1.27h0a2.31,2.31,0,1,1,1.95-4.18Z"/><path class="cls-63" d="M474.39,273.72l2.7,1.35a2.29,2.29,0,1,1-2,4.1h0l-2.68-1.32h0a2.29,2.29,0,1,1,2-4.11Z"/><path class="cls-63" d="M483.35,278.27l2.67,1.39a2.28,2.28,0,0,1-2.11,4h0l-2.65-1.38h0a2.28,2.28,0,0,1,2.11-4.05Z"/><path class="cls-63" d="M492.22,283l2.64,1.45a2.26,2.26,0,0,1-2.17,4h0L490.06,287h0a2.27,2.27,0,0,1,2.16-4Z"/><path class="cls-63" d="M501,287.85l2.61,1.48a2.25,2.25,0,1,1-2.22,3.92h0l-2.61-1.47h0a2.26,2.26,0,0,1,2.22-3.93Z"/><path class="cls-63" d="M509.7,292.84l2.59,1.52a2.24,2.24,0,0,1-2.26,3.87h0l-2.58-1.51h0a2.25,2.25,0,1,1,2.26-3.88Z"/><path class="cls-63" d="M518.33,298l2.57,1.55a2.23,2.23,0,0,1-2.3,3.82h0L516,301.78h0a2.23,2.23,0,0,1,2.29-3.83Z"/><path class="cls-63" d="M526.89,303.15l2.56,1.57a2.21,2.21,0,1,1-2.32,3.77h0l-2.55-1.56h0a2.22,2.22,0,0,1,2.32-3.79Z"/><path class="cls-63" d="M535.41,308.42,538,310a2.21,2.21,0,0,1-2.34,3.74l-2.54-1.59a2.2,2.2,0,0,1,2.32-3.75Z"/><path class="cls-63" d="M543.89,313.75l2.53,1.61a2.19,2.19,0,0,1-2.34,3.7l-2.53-1.6a2.19,2.19,0,1,1,2.33-3.71Z"/><path class="cls-63" d="M552.33,319.12l2.53,1.62a2.18,2.18,0,0,1-2.34,3.67L550,322.8a2.18,2.18,0,1,1,2.34-3.68Z"/><path class="cls-63" d="M560.76,324.52l2.52,1.62a2.16,2.16,0,0,1-2.33,3.64l-2.53-1.61a2.17,2.17,0,1,1,2.33-3.65Z"/><path class="cls-63" d="M569.17,329.92l2.53,1.62a2.15,2.15,0,0,1-2.32,3.63l-2.53-1.62a2.15,2.15,0,1,1,2.32-3.63Z"/><path class="cls-63" d="M577.59,335.32l2.52,1.61a2.14,2.14,0,1,1-2.29,3.61l-2.54-1.61a2.14,2.14,0,1,1,2.3-3.61Z"/><path class="cls-63" d="M586,340.69l2.53,1.6a2.13,2.13,0,1,1-2.26,3.6l-2.55-1.6a2.13,2.13,0,0,1,2.28-3.6Z"/><path class="cls-63" d="M594.46,346l2.54,1.59a2.11,2.11,0,0,1-2.23,3.59l-2.55-1.59a2.11,2.11,0,0,1,2.23-3.59Z"/><path class="cls-63" d="M602.94,351.29l2.55,1.57h0a2.1,2.1,0,0,1-2.19,3.59l-2.57-1.57a2.11,2.11,0,0,1,2.2-3.59h0Z"/><path class="cls-63" d="M611.46,356.49,614,358h0a2.08,2.08,0,0,1-2.13,3.57l-2.59-1.54a2.09,2.09,0,1,1,2.14-3.58h0Z"/><path class="cls-63" d="M620,361.61l2.58,1.51h0a2.05,2.05,0,0,1-2.07,3.54l-2.6-1.5A2.06,2.06,0,0,1,620,361.6h0Z"/><path class="cls-63" d="M628.65,366.61l2.6,1.48h0a2,2,0,1,1-2,3.52l-2.62-1.47a2,2,0,1,1,2-3.55h0Z"/><path class="cls-63" d="M637.34,371.49l2.62,1.43h0a2,2,0,0,1-1.9,3.51L635.42,375a2,2,0,1,1,1.9-3.53h0Z"/><path class="cls-63" d="M646.11,376.21l2.65,1.38h0a2,2,0,0,1-1.81,3.5l-2.68-1.38a2,2,0,1,1,1.82-3.52h0Z"/><path class="cls-63" d="M655,380.76l2.68,1.33h0a1.95,1.95,0,0,1-1.72,3.49l-2.7-1.32a2,2,0,0,1-.9-2.62,1.94,1.94,0,0,1,2.61-.89h0Z"/><path class="cls-63" d="M663.93,385.11l2.71,1.27h0a1.92,1.92,0,0,1-1.62,3.49l-2.74-1.27a1.93,1.93,0,1,1,1.62-3.5h0Z"/><path class="cls-63" d="M673,389.25l2.73,1.2h0a1.89,1.89,0,0,1-1.51,3.47l-2.77-1.19a1.9,1.9,0,0,1,1.51-3.49h0Z"/><path class="cls-63" d="M682.13,393.15l2.77,1.12h0a1.86,1.86,0,0,1,1,2.43,1.88,1.88,0,0,1-2.42,1l-2.8-1.12a1.87,1.87,0,1,1,1.39-3.48h0Z"/><path class="cls-63" d="M691.39,396.78l2.79,1h0a1.84,1.84,0,0,1-1.27,3.46l-2.83-1a1.85,1.85,0,1,1,1.26-3.47h0Z"/><path class="cls-63" d="M700.75,400.13l2.82.94h0a1.81,1.81,0,0,1-1.14,3.44l-2.86-.94a1.82,1.82,0,1,1,1.13-3.46h0Z"/><path class="cls-63" d="M710.21,403.16l2.86.85h0a1.78,1.78,0,0,1-1,3.42l-2.9-.84a1.79,1.79,0,1,1,1-3.44h0Z"/><path class="cls-63" d="M719.77,405.87l2.89.74h0a1.76,1.76,0,0,1-.87,3.41l-2.93-.73a1.77,1.77,0,0,1,.86-3.43h0Z"/><path class="cls-63" d="M729.42,408.21l2.91.64h0a1.73,1.73,0,0,1-.72,3.39l-3-.63a1.74,1.74,0,1,1,.72-3.4h0Z"/><path class="cls-63" d="M739.16,410.19l2.93.51h0a1.7,1.7,0,0,1-.58,3.36l-3-.51a1.71,1.71,0,0,1,.58-3.38h0Z"/><path class="cls-63" d="M749,411.77l2.95.38h0a1.68,1.68,0,1,1-.43,3.33l-3-.38a1.69,1.69,0,0,1,.42-3.35h0Z"/><path class="cls-63" d="M758.82,412.91l3,.25h0a1.65,1.65,0,0,1-.28,3.29l-3-.25a1.66,1.66,0,0,1,.27-3.31h0Z"/><path class="cls-63" d="M768.72,413.61l3,.12h0a1.63,1.63,0,0,1-.13,3.25l-3-.11a1.63,1.63,0,1,1,.12-3.26h0Z"/><path class="cls-63" d="M778.64,413.87h3a1.6,1.6,0,0,1,0,3.2l-3,0a1.61,1.61,0,0,1,0-3.22h0Z"/><path class="cls-63" d="M788.57,413.71l3-.13h0a1.57,1.57,0,0,1,.15,3.14l-3,.15a1.58,1.58,0,1,1-.16-3.16h0Z"/><path class="cls-63" d="M798.48,413.13l3-.26h0a1.55,1.55,0,0,1,.27,3.08l-3,.27a1.55,1.55,0,0,1-.29-3.09h0Z"/><path class="cls-63" d="M808.36,412.13l3-.38h0a1.52,1.52,0,0,1,.39,3l-3,.4a1.53,1.53,0,0,1-.4-3h0Z"/><path class="cls-63" d="M818.2,410.72l2.94-.5h0a1.49,1.49,0,1,1,.51,2.94l-3,.53a1.5,1.5,0,0,1-.52-3h0Z"/><path class="cls-63" d="M828,408.91l2.91-.62h0a1.47,1.47,0,0,1,.62,2.87l-2.95.64a1.46,1.46,0,0,1-1.75-1.12,1.48,1.48,0,0,1,1.12-1.76h0Z"/><path class="cls-63" d="M837.66,406.7l2.89-.74h0a1.44,1.44,0,0,1,.72,2.79l-2.92.76a1.45,1.45,0,1,1-.73-2.8h0Z"/><path class="cls-63" d="M847.26,404.11l2.86-.85h0A1.41,1.41,0,0,1,851,406l-2.89.87a1.42,1.42,0,1,1-.82-2.71h0Z"/><path class="cls-63" d="M856.75,401.13l2.83-1h0a1.39,1.39,0,0,1,.91,2.62l-2.85,1a1.39,1.39,0,1,1-.92-2.63h0Z"/><path class="cls-63" d="M866.12,397.78l2.79-1.07h0a1.36,1.36,0,0,1,1,2.53l-2.81,1.11a1.37,1.37,0,0,1-1-2.55h0Z"/><path class="cls-63" d="M875.35,394.07l2.74-1.18h0a1.33,1.33,0,0,1,1.06,2.43l-2.77,1.22a1.34,1.34,0,1,1-1.07-2.45h0Z"/><path class="cls-63" d="M884.43,390l2.7-1.29h0a1.28,1.28,0,0,1,1.12,2.31l-2.71,1.32a1.29,1.29,0,1,1-1.14-2.32h0Z"/><path class="cls-63" d="M893.35,385.59l2.65-1.4h0a1.24,1.24,0,0,1,1.17,2.19l-2.66,1.43a1.25,1.25,0,1,1-1.19-2.2h0Z"/><path class="cls-63" d="M902.09,380.82l2.59-1.5h0a1.19,1.19,0,0,1,1.21,2.06l-2.6,1.54a1.21,1.21,0,0,1-1.23-2.08h0Z"/><path class="cls-63" d="M910.63,375.7l2.53-1.6h0a1.16,1.16,0,0,1,1.24,2l-2.53,1.63a1.16,1.16,0,1,1-1.27-1.95h0Z"/><path class="cls-63" d="M919,370.25l2.45-1.7h0a1.11,1.11,0,0,1,1.28,1.82l-2.47,1.74a1.12,1.12,0,1,1-1.29-1.83h0Z"/><path class="cls-63" d="M927.07,364.47l2.39-1.8h0a1.07,1.07,0,0,1,1.29,1.7l-2.39,1.83a1.08,1.08,0,1,1-1.31-1.71h0Z"/><path class="cls-63" d="M934.94,358.36l2.31-1.9h0a1,1,0,1,1,1.3,1.57L936.25,360a1,1,0,0,1-1.33-1.59h0Z"/><path class="cls-63" d="M942.54,351.93l2.23-2h0a1,1,0,0,1,1.31,1.46l-2.23,2a1,1,0,0,1-1.34-1.47h0Z"/><path class="cls-63" d="M949.87,345.2l2.14-2.08h0a.94.94,0,0,1,1.31,1.34l-2.14,2.12a1,1,0,0,1-1.34-1.36h0Z"/><path class="cls-63" d="M956.91,338.15,959,336h0a.89.89,0,0,1,1.3,1.22l-2,2.21a.91.91,0,0,1-1.33-1.24h0Z"/><path class="cls-63" d="M963.64,330.82l2-2.26h0a.85.85,0,0,1,1.2-.08.83.83,0,0,1,.09,1.19L964.94,332a.86.86,0,0,1-1.22.1.87.87,0,0,1-.09-1.22h0Z"/><path class="cls-63" d="M970,323.19l1.86-2.34h0a.8.8,0,0,1,1.13-.13.81.81,0,0,1,.14,1.13l-1.85,2.38a.82.82,0,0,1-1.3-1h0Z"/><path class="cls-63" d="M976.11,315.29l1.75-2.42h0a.77.77,0,0,1,1.25.89l-1.74,2.46a.78.78,0,0,1-1.09.18.77.77,0,0,1-.18-1.08h0Z"/><path class="cls-63" d="M981.81,307.12l1.63-2.5h0a.72.72,0,0,1,1-.21.74.74,0,0,1,.22,1L983,307.93a.75.75,0,0,1-1,.23.74.74,0,0,1-.22-1h0Z"/><path class="cls-63" d="M987.05,298.66l1.44-2.61h0a.68.68,0,0,1,1.2.65l-1.44,2.66a.69.69,0,0,1-1.22-.66h0Z"/><path class="cls-63" d="M991.53,289.81l1.14-2.75v0a.65.65,0,0,1,.84-.34.64.64,0,0,1,.34.83l-1.13,2.8a.65.65,0,0,1-1.21-.48h0Z"/><path class="cls-63" d="M994.85,280.48l.7-2.88v0a.6.6,0,0,1,.72-.44.59.59,0,0,1,.44.71l-.68,3a.61.61,0,0,1-1.19-.27h0Z"/><path class="cls-63" d="M996.51,270.76l.1-3v0a.56.56,0,0,1,.57-.53.55.55,0,0,1,.53.56l-.07,3a.57.57,0,0,1-.58.55.57.57,0,0,1-.55-.58h0Z"/><path class="cls-63" d="M996,261l-.7-2.88v0a.5.5,0,0,1,.37-.61.51.51,0,0,1,.62.37l.74,2.95a.52.52,0,0,1-1,.25h0Z"/><path class="cls-63" d="M992.74,251.65l-1.45-2.59,0,0a.47.47,0,0,1,.18-.63.48.48,0,0,1,.64.18l1.5,2.64a.48.48,0,0,1-.83.47h0Z"/><path class="cls-63" d="M987.11,243.58,985,241.53l0,0a.41.41,0,0,1,0-.59.41.41,0,0,1,.59,0l2.22,2.08a.44.44,0,0,1-.6.64h0Z"/><path class="cls-63" d="M979.24,237.74l-2.74-1.12,0,0a.38.38,0,1,1,.28-.7l2.84,1.13a.39.39,0,1,1-.29.73h0Z"/><polygon class="cls-64" points="964.8 217.88 961.02 233.52 952.05 224.24 964.8 217.88"/><path class="cls-65" d="M896.63,191.92l33.29,47.25a4.11,4.11,0,0,0,2.71,1.68,4.07,4.07,0,0,0,3.09-.79l46.18-35.22a1.64,1.64,0,0,0-.8-2.92Z"/><polygon class="cls-66" points="964.79 217.88 896.63 191.92 957.36 223.58 956.49 227.97 964.79 217.88"/><polygon class="cls-67" points="952.92 226.93 961.02 233.52 957.36 223.58 952.92 226.93"/><path class="cls-68" d="M650.74,1.38,965.09,0a5.38,5.38,0,0,1,5.44,5.42l-.67,110a5.39,5.39,0,0,1-5.54,5.36c-27.72-.83-311.84-4.48-317.27-4.25s-2.45-86.67-1.65-110A5.38,5.38,0,0,1,650.74,1.38Z"/><path class="cls-6" d="M964.48,116.72h0c-17.73-.53-187.61-2.65-269.26-3.67-23.76-.29-40.62-.5-45.13-.57h-.56l-.09-.55c-1.94-10.89-1.9-47.27.09-105.2a1.3,1.3,0,0,1,1.28-1.26L965.13,4.09a1.31,1.31,0,0,1,.93.38,1.28,1.28,0,0,1,.38.93l-.67,110A1.29,1.29,0,0,1,964.48,116.72Zm-313.84-5.59,44.56.57c81.65,1,251.54,3.13,269.28,3.66h0l.58-110L650.78,6.82C648.89,63.66,648.82,99.69,650.64,111.13Z"/><circle class="cls-6" cx="715.07" cy="59.91" r="36.27" transform="translate(493.54 742.43) rotate(-76.81)"/><circle class="cls-6" cx="805.21" cy="59.91" r="36.27" transform="translate(193.48 586.91) rotate(-45)"/><circle class="cls-6" cx="895.34" cy="61.09" r="36.27"/><path class="cls-69" d="M699.12,639.1s1.61,9.07,2.39,18a6.19,6.19,0,0,1-5.92,6.7c-12,.5-37.54,1.47-46.72,1.06a2,2,0,0,1-1.77-2.76h0a4.57,4.57,0,0,1,2.31-2.43l42.25-19.42Z"/><path class="cls-70" d="M700.44,633.77l-1.29,10.85s-7.4,3.44-12.46-.44l3.07-12.09Z"/><path class="cls-71" d="M699.47,429.76c.56,2.83,3,141.41-11.83,203.51a2.1,2.1,0,0,0,1.24,2.45,36.63,36.63,0,0,0,12.06,2.45,3.62,3.62,0,0,0,3.6-2.6c4.24-14.41,24.53-86.6,27.17-155.56,3-77.06,0-2.63,0-2.63L730,429.75Z"/><path class="cls-72" d="M747.73,643.83s2.55,4.58,5,16.75a3.77,3.77,0,0,1-3.32,4.52c-3.95.39-10,.89-14.9.85a3.76,3.76,0,0,1-3.72-4.2c.54-4.44,2.22-11.73,7.41-17.41Z"/><path class="cls-73" d="M750,629.87l-3,16.41s-3,2.21-8.86.61l1.44-17.66Z"/><path class="cls-74" d="M758.1,434c12.11,73.11-2.63,180.71-7.6,201.77a3.3,3.3,0,0,1-2.65,2.49,22,22,0,0,1-9.48-.38,3,3,0,0,1-2.16-2.77c-.67-17,.53-121.54-10.76-162.85a9.4,9.4,0,0,0-3.62-5.18l-21.91-15.57-1.68-25.18Z"/><path class="cls-75" d="M680.9,295.47c36.31-.6,76.37,9.53,76.37,9.53,10.82,63.15,1.89,136,1.89,136-28.11,7.37-59.81-4.51-59.81-4.51-4.68-26.39-26.47-100.68-26.47-100.68-17.74-2.2-32.35-7.31-44.39-14.08,9.18-10.64,13.51-24.18,15.39-32.18C656.71,293.53,669.7,295.66,680.9,295.47Z"/><path class="cls-76" d="M573.66,242a7,7,0,0,1,8.08-2.27c5.34,22.57,33.36,40.87,62.14,49.82-1.88,8-6.21,21.54-15.39,32.18C580.73,294.86,573.66,242,573.66,242Z"/><path class="cls-77" d="M574.53,243.09c-.38,1.19,3.94,3,6.49-1.86.09-2.33,1.5-12.29.11-14.18-7.4-10.09-21.75-22.74-21.75-22.74a3.41,3.41,0,0,0-.42,4.74l7,7.25c-1.46,2.64-3.24,4.86-4.07,8a9.8,9.8,0,0,0,1,7.18c1.23,2.2,2.89,5.06,4.47,7.3A9.62,9.62,0,0,0,574.53,243.09Z"/><path class="cls-78" d="M569,221l6.34,5.38,2,5.35L571.64,238s-1.9-10.62-3.31-12.92S567.64,221.68,569,221Z"/><path class="cls-79" d="M743.34,340.16,757.27,305s33.91,23.05,39.49,52.26a80.24,80.24,0,0,0-29.48,7.9C764.77,351.37,743.34,340.16,743.34,340.16Z"/><path class="cls-80" d="M713.71,373.24s38.07,21.52,50.92,3.14a14.45,14.45,0,0,0,2.65-11.22,80.24,80.24,0,0,1,29.48-7.9,40.31,40.31,0,0,1-4.39,27.64c-22.5,41.17-83.7-2.27-83.7-2.27Z"/><path class="cls-81" d="M718.28,400.46,697.5,327.89a2.11,2.11,0,0,0-1.79-1.52c-3.76-.44-14.67-1.67-27.27-2.74-15.17-1.28-32.79-2.32-43.32-1.44a2.13,2.13,0,0,0-1.73,3.06c6,12.11,30.61,61.39,42.94,77.53a2.18,2.18,0,0,0,1.72.84l48.21-.45A2.12,2.12,0,0,0,718.28,400.46Z"/><path class="cls-82" d="M666.29,317.34l-15.07-2.51a1.08,1.08,0,0,0-1.2,1.41l1.49,4.52a1.09,1.09,0,0,0,.88.73l14.5,1.94a1.09,1.09,0,0,0,1.2-1.32l-.93-3.95A1.08,1.08,0,0,0,666.29,317.34Z"/><path class="cls-83" d="M677.57,330.1l-1.24-6.47a1.49,1.49,0,0,0-1.32-1.2l-30.43-3.09a1.49,1.49,0,0,0-1.6,1.83l1.93,8.06a1.5,1.5,0,0,0,1.38,1.14l29.74,1.5A1.49,1.49,0,0,0,677.57,330.1Z"/><path class="cls-84" d="M713.26,382.93s2.9-11.9,1.73-16.13-3.43-9.65-11-8.44a109.8,109.8,0,0,0-16.44,4.38s.45,5.5,6.18,3.73l-3.55,2.75s.51,4.4,5.35,2l-3.31,3.65s2.08,3.61,5.64,1.29S703.16,384.36,713.26,382.93Z"/><path class="cls-85" d="M717.68,266l11.55,33.4a1.2,1.2,0,0,1-.55,1.45c-3.15,1.74-14.49,6.78-28.17-1.89a5.69,5.69,0,0,1-2.61-4L694.16,266Z"/><path class="cls-86" d="M692.54,235.06s-12.68,23.88-11.06,33.52,17.35,9,31.08,1.12l9.59-25.78Z"/><path class="cls-87" d="M712,257a1,1,0,0,1-.43-1.44,25.64,25.64,0,0,0,3.53-7.49s2.28-1.46-5.8-3.4-20.14-4.94-22.68-11.82c-2.47-6.71,4-23.58,14.38-10.14a1,1,0,0,0,1.56,0c1.7-2.21,6.16-6.79,12.36-4,5.8,2.6,6.45,6.85,6.37,9a1,1,0,0,0,1.16,1c2.93-.55,10-1,13.25,6.18,2.71,6,1,9.31-.65,11a1,1,0,0,0,.42,1.63c1.93.59,4.41,2.22,4.17,6.74-.35,6.24-7.33,5.69-9.31,5.4a1,1,0,0,0-.88.31c-1.7,1.89-9.38,9.89-17.68,10.86a1,1,0,0,1-1.05-1.31l3.6-10.45a1,1,0,0,0-.54-1.23Z"/><path class="cls-88" d="M710.51,258.52s9-6.19,9.69-1-8.13,7.56-12.49,5.61Z"/><path d="M714.9,62.08a16,16,0,1,0-16-16A16.07,16.07,0,0,0,714.9,62.08Z"/><path d="M742.41,74.89A14.94,14.94,0,0,0,740.8,72,19.93,19.93,0,0,0,727,63.27a3,3,0,0,0-2,.49,17.09,17.09,0,0,1-20.16,0,2.63,2.63,0,0,0-2-.49A19.78,19.78,0,0,0,689,72a17.23,17.23,0,0,0-1.61,2.94,1.49,1.49,0,0,0,.07,1.33,27.92,27.92,0,0,0,1.89,2.8,26.61,26.61,0,0,0,3.22,3.64,42,42,0,0,0,3.22,2.8,31.92,31.92,0,0,0,38.08,0,30.77,30.77,0,0,0,3.22-2.8A32.31,32.31,0,0,0,740.31,79a24.54,24.54,0,0,0,1.89-2.8A1.19,1.19,0,0,0,742.41,74.89Z"/><path d="M804.9,62.08a16,16,0,1,0-16-16A16.07,16.07,0,0,0,804.9,62.08Z"/><path d="M832.41,74.89A14.94,14.94,0,0,0,830.8,72,19.93,19.93,0,0,0,817,63.27a3,3,0,0,0-2,.49,17.09,17.09,0,0,1-20.16,0,2.63,2.63,0,0,0-2-.49A19.78,19.78,0,0,0,779,72a17.23,17.23,0,0,0-1.61,2.94,1.49,1.49,0,0,0,.07,1.33,27.92,27.92,0,0,0,1.89,2.8,26.61,26.61,0,0,0,3.22,3.64,42,42,0,0,0,3.22,2.8,31.92,31.92,0,0,0,38.08,0,30.77,30.77,0,0,0,3.22-2.8A32.31,32.31,0,0,0,830.31,79a24.54,24.54,0,0,0,1.89-2.8A1.19,1.19,0,0,0,832.41,74.89Z"/><path d="M894.9,62.08a16,16,0,1,0-16-16A16.07,16.07,0,0,0,894.9,62.08Z"/><path d="M922.41,74.89A14.94,14.94,0,0,0,920.8,72,19.93,19.93,0,0,0,907,63.27a3,3,0,0,0-2,.49,17.09,17.09,0,0,1-20.16,0,2.63,2.63,0,0,0-2-.49A19.78,19.78,0,0,0,869,72a17.23,17.23,0,0,0-1.61,2.94,1.49,1.49,0,0,0,.07,1.33,27.92,27.92,0,0,0,1.89,2.8,26.61,26.61,0,0,0,3.22,3.64,42,42,0,0,0,3.22,2.8,31.92,31.92,0,0,0,38.08,0,30.77,30.77,0,0,0,3.22-2.8A32.31,32.31,0,0,0,920.31,79a24.54,24.54,0,0,0,1.89-2.8A1.19,1.19,0,0,0,922.41,74.89Z"/></svg>